<?xml version="1.0" encoding="UTF-8" standalone="no"?>
<!-- Created with Inkscape (http://www.inkscape.org/) -->

<svg
   version="1.1"
   id="svg2"
   width="307.03857"
   height="307.06006"
   viewBox="0 0 307.03858 307.06006"
   sodipodi:docname="Websites.ai"
   inkscape:export-filename="_STYLE\ICONS\printer.svg"
   inkscape:export-xdpi="96"
   inkscape:export-ydpi="96"
   xmlns:inkscape="http://www.inkscape.org/namespaces/inkscape"
   xmlns:sodipodi="http://sodipodi.sourceforge.net/DTD/sodipodi-0.dtd"
   xmlns="http://www.w3.org/2000/svg"
   xmlns:svg="http://www.w3.org/2000/svg">
  <defs
     id="defs6">
    <clipPath
       clipPathUnits="userSpaceOnUse"
       id="clipPath10286">
      <path
         d="M 0,5137.634 H 1736.693 V 0 H 0 Z"
         id="path10284" />
    </clipPath>
  </defs>
  <sodipodi:namedview
     id="namedview4"
     pagecolor="#ffffff"
     bordercolor="#000000"
     borderopacity="0.25"
     inkscape:showpageshadow="2"
     inkscape:pageopacity="0.0"
     inkscape:pagecheckerboard="0"
     inkscape:deskcolor="#d1d1d1"
     showgrid="false" />
  <g
     id="g9322"
     inkscape:groupmode="layer"
     inkscape:label="Page 2"
     transform="matrix(1.3333333,0,0,-1.3333333,-1718.86,4480.8774)">
    <g
       id="g10280">
      <g
         id="g10282"
         clip-path="url(#clipPath10286)">
        <g
           id="g10288"
           transform="translate(1501.1152,3214.2271)">
          <path
             d="m 0,0 c -0.068,0.13 -0.135,0.26 -0.203,0.39 h -123.986 c 0.835,-0.54 1.23,-0.826 1.654,-1.065 20.822,-11.804 41.656,-23.591 62.453,-35.439 1.348,-0.769 2.228,-0.52 3.416,0.235 15.914,10.115 31.863,20.183 47.801,30.262 C -5.906,-3.747 -2.953,-1.873 0,0 M 10.496,-76.131 V -2.743 C 9.582,-3.285 8.889,-3.676 8.217,-4.101 -12.797,-17.374 -33.82,-30.627 -54.797,-43.959 c -2.557,-1.625 -4.691,-1.798 -7.428,-0.226 -23.423,13.454 -46.921,26.778 -70.398,40.138 -0.736,0.419 -1.492,0.81 -2.316,1.256 v -73.34 z m -150.967,-7.733 c -2.027,1.113 -2.545,2.952 -2.543,5.1 0.01,27.274 -0.002,54.548 0.014,81.822 0.002,4.021 1.275,5.261 5.23,5.262 50.278,0.004 100.553,-0.007 150.831,0.038 2.181,0.002 3.906,-0.557 5.246,-2.264 v -89.958 z"
             style="fill:#ffffff;fill-opacity:1;fill-rule:evenodd;stroke:none"
             id="path10290" />
        </g>
        <g
           id="g10292"
           transform="translate(1436.291,3326.2231)">
          <path
             d="M 0,0 C -6.789,6.802 -13.568,13.599 -20.227,20.269 V 0 Z m -23.471,34.435 c 1.051,-0.811 2.203,-1.519 3.135,-2.447 C -9.709,21.411 0.85,10.769 11.514,0.23 c 1.914,-1.891 2.765,-3.905 2.675,-6.576 -0.142,-4.247 -0.037,-8.505 -0.037,-12.913 H 6.342 V -7.834 H 3.689 c -8.919,0 -17.841,-0.005 -26.761,0.002 -3.951,0.004 -5.205,1.247 -5.217,5.272 -0.023,8.845 -0.008,17.691 -0.008,26.537 v 2.622 h -111.039 v -214.676 h 53.795 v -7.783 h -61.605 V 34.435 Z"
             style="fill:#ffffff;fill-opacity:1;fill-rule:evenodd;stroke:none"
             id="path10294" />
        </g>
        <path
           d="m 1412.053,3238.026 h 99.529 v 53.297 h -99.529 z m 107.369,-5.56 c -1.158,-1.823 -2.824,-2.34 -4.949,-2.337 -35.075,0.046 -70.151,0.029 -105.223,0.038 -3.953,0 -4.971,1.079 -4.971,5.13 0,19.486 0,38.972 0,58.457 0,4.565 1.059,5.607 5.741,5.608 21.058,0.01 42.119,0 63.179,0 13.565,0 27.129,-0.014 40.696,0.013 2.291,0.01 4.322,-0.37 5.529,-2.59 v -64.321 z"
           style="fill:#ffffff;fill-opacity:1;fill-rule:evenodd;stroke:none"
           id="path10296" />
        <path
           d="m 1385.053,3237.97 h -72.85 v 7.367 h 72.85 z"
           style="fill:#ffffff;fill-opacity:1;fill-rule:evenodd;stroke:none"
           id="path10298" />
        <path
           d="m 1385.049,3310.856 h -72.775 v 7.4 h 72.775 z"
           style="fill:#ffffff;fill-opacity:1;fill-rule:evenodd;stroke:none"
           id="path10300" />
        <path
           d="m 1312.244,3268.426 h 72.785 v -7.518 h -72.785 z"
           style="fill:#ffffff;fill-opacity:1;fill-rule:evenodd;stroke:none"
           id="path10302" />
        <g
           id="g10304"
           transform="translate(1312.1543,3283.9331)">
          <path
             d="m 0,0 v 7.562 h 46.174 c 0,-1.909 0.01,-3.687 -0.006,-5.465 C 46.162,1.441 46.092,0.786 46.043,0 Z"
             style="fill:#ffffff;fill-opacity:1;fill-rule:evenodd;stroke:none"
             id="path10306" />
        </g>
        <path
           d="m 1346.641,3191.852 h -34.398 v 7.521 h 34.398 z"
           style="fill:#ffffff;fill-opacity:1;fill-rule:evenodd;stroke:none"
           id="path10308" />
        <path
           d="m 1312.201,3176.389 h 34.326 v -7.616 h -34.326 z"
           style="fill:#ffffff;fill-opacity:1;fill-rule:evenodd;stroke:none"
           id="path10310" />
        <path
           d="m 1312.195,3222.419 h 34.342 v -7.474 h -34.342 z"
           style="fill:#ffffff;fill-opacity:1;fill-rule:evenodd;stroke:none"
           id="path10312" />
        <path
           d="m 1312.223,3337.634 h 22.875 v -7.527 h -22.875 z"
           style="fill:#ffffff;fill-opacity:1;fill-rule:evenodd;stroke:none"
           id="path10314" />
        <g
           id="g10316"
           transform="translate(1438.7285,3264.6948)">
          <path
             d="M 0,0 C 0.002,2.104 -1.541,3.701 -3.633,3.758 -5.838,3.818 -7.48,2.223 -7.482,0.014 -7.49,-2.184 -5.822,-3.824 -3.646,-3.762 -1.549,-3.701 -0.002,-2.103 0,0 M -3.84,11.507 C 2.67,11.577 7.742,6.631 7.805,0.155 c 0.06,-6.483 -4.92,-11.611 -11.346,-11.679 -6.635,-0.07 -11.709,4.896 -11.736,11.49 -0.03,6.515 4.881,11.472 11.437,11.541"
             style="fill:#ffffff;fill-opacity:1;fill-rule:evenodd;stroke:none"
             id="path10318" />
        </g>
        <path
           d="m 1458.02,3260.671 h 42.152 v -7.391 h -42.152 z"
           style="fill:#ffffff;fill-opacity:1;fill-rule:evenodd;stroke:none"
           id="path10320" />
        <path
           d="m 1481.104,3276.103 h 19.008 v -7.544 h -19.008 z"
           style="fill:#ffffff;fill-opacity:1;fill-rule:evenodd;stroke:none"
           id="path10322"
           inkscape:export-filename="_STYLE\ICONS\cartas.svg"
           inkscape:export-xdpi="96"
           inkscape:export-ydpi="96" />
      </g>
    </g>
  </g>
</svg>
