<?xml version="1.0" encoding="UTF-8" standalone="no"?>
<!-- Created with Inkscape (http://www.inkscape.org/) -->

<svg
   version="1.1"
   id="svg59"
   width="323.62549"
   height="101.1476"
   viewBox="0 0 323.62549 101.1476"
   sodipodi:docname="Websites.ai"
   xmlns:inkscape="http://www.inkscape.org/namespaces/inkscape"
   xmlns:sodipodi="http://sodipodi.sourceforge.net/DTD/sodipodi-0.dtd"
   xmlns="http://www.w3.org/2000/svg"
   xmlns:svg="http://www.w3.org/2000/svg">
  <defs
     id="defs63">
    <clipPath
       clipPathUnits="userSpaceOnUse"
       id="clipPath10953">
      <path
         d="m 0,4851.624 h 445.986 v 286.01 H 0 Z"
         id="path10951" />
    </clipPath>
  </defs>
  <sodipodi:namedview
     id="namedview61"
     pagecolor="#ffffff"
     bordercolor="#000000"
     borderopacity="0.25"
     inkscape:showpageshadow="2"
     inkscape:pageopacity="0.0"
     inkscape:pagecheckerboard="0"
     inkscape:deskcolor="#d1d1d1"
     showgrid="false" />
  <g
     id="g10453"
     inkscape:groupmode="layer"
     inkscape:label="Page 3"
     transform="matrix(1.3333333,0,0,-1.3333333,-131.22996,6746.2638)">
    <g
       id="g10947">
      <g
         id="g10949"
         clip-path="url(#clipPath10953)">
        <g
           id="g10955"
           transform="translate(135.3085,5039.0562)">
          <path
             d="M 0,0 C 0,6.128 -4.857,6.128 -7.979,6.128 H -26.478 V -6.07 H -7.979 C -4.857,-6.07 0,-6.07 0,0 m 10.405,0 c 0,-9.02 -6.3,-14.801 -15.492,-14.801 H -26.478 V -25.612 H -36.886 V 14.857 H -5.087 C 4.105,14.857 10.405,9.018 10.405,0"
             style="fill:#afafaf;fill-opacity:1;fill-rule:nonzero;stroke:none"
             id="path10957" />
        </g>
        <g
           id="g10959"
           transform="translate(197.4456,5047.498)">
          <path
             d="m 0,0 v -34.055 h -9.886 v 5.956 c -4.857,-3.816 -11.563,-6.533 -19.831,-6.533 -9.075,0 -17.574,3.239 -17.69,15.784 L -47.291,0 h 9.944 v -15.09 c 0,-7.225 2.429,-10.985 10.58,-10.985 6.648,0 13.817,3.411 16.881,6.996 V 0 Z"
             style="fill:#afafaf;fill-opacity:1;fill-rule:nonzero;stroke:none"
             id="path10961" />
        </g>
        <g
           id="g10963"
           transform="translate(239.0041,5030.4429)">
          <path
             d="m 0,0 c 0,6.761 -4.799,9.365 -13.644,9.365 -8.845,0 -13.702,-2.604 -13.702,-9.365 0,-6.708 4.857,-9.309 13.702,-9.309 C -4.799,-9.309 0,-6.708 0,0 m 9.942,0 c 0,-13.008 -9.365,-17.577 -20.292,-17.577 -7.341,0 -13.297,2.024 -16.996,5.898 V -17 h -9.887 v 46.253 h 9.887 V 11.735 c 3.699,3.871 9.655,5.895 16.996,5.895 C 0.577,17.63 9.942,13.008 9.942,0"
             style="fill:#afafaf;fill-opacity:1;fill-rule:nonzero;stroke:none"
             id="path10965" />
        </g>
        <path
           d="m 262.58,5013.445 h -9.886 v 46.252 h 9.886 z"
           style="fill:#1c7ce5;fill-opacity:1;fill-rule:nonzero;stroke:none"
           id="path10967" />
        <path
           d="m 277.088,5013.445 h -9.886 v 34.054 h 9.886 z m 0,37.638 h -9.886 v 8.615 h 9.886 z"
           style="fill:#e5007e;fill-opacity:1;fill-rule:nonzero;stroke:none"
           id="path10969" />
        <g
           id="g10971"
           transform="translate(304.2557,5033.6802)">
          <path
             d="M 0,0 -22.778,20.233 H -8.443 L 7.052,6.358 22.487,20.233 H 36.886 L 14.105,0 36.886,-20.236 H 22.487 L 7.052,-6.361 -8.443,-20.236 h -14.335 z"
             style="fill:#ffec00;fill-opacity:1;fill-rule:nonzero;stroke:none"
             id="path10973" />
        </g>
        <g
           id="g10975"
           transform="translate(270.3903,4998.3223)">
          <path
             d="m 0,0 c 0,3.307 -2.373,4.642 -6.776,4.642 -4.374,0 -6.749,-1.335 -6.749,-4.642 0,-3.308 2.375,-4.642 6.749,-4.642 C -2.373,-4.642 0,-3.308 0,0 m 4.107,0 c 0,-5.896 -4.213,-8.083 -9.496,-8.083 -3.626,0 -6.429,0.962 -8.136,2.747 v -9.149 H -17.66 V 7.814 h 4.135 V 5.308 c 1.707,1.813 4.51,2.773 8.136,2.773 5.283,0 9.496,-2.214 9.496,-8.081"
             style="fill:#000000;fill-opacity:1;fill-rule:nonzero;stroke:none"
             id="path10977" />
        </g>
        <g
           id="g10979"
           transform="translate(293.3429,5005.8701)">
          <path
             d="m 0,0 v -3.441 c -1.494,0.375 -2.694,0.534 -4.082,0.534 -2.641,0 -5.68,-0.64 -8.668,-2.854 v -9.602 h -4.108 V 0.266 h 4.108 V -2.4 c 2.56,2.107 5.495,2.935 8.508,2.935 C -2.373,0.535 -1.069,0.266 0,0"
             style="fill:#000000;fill-opacity:1;fill-rule:nonzero;stroke:none"
             id="path10981" />
        </g>
        <path
           d="m 299.595,4990.507 h -4.107 v 15.632 h 4.107 z m 0,17.445 h -4.107 v 3.895 h 4.107 z"
           style="fill:#000000;fill-opacity:1;fill-rule:nonzero;stroke:none"
           id="path10983" />
        <g
           id="g10985"
           transform="translate(324.056,4999.042)">
          <path
             d="m 0,0 -0.053,-8.537 h -4.135 v 7.017 c 0,3.467 -1.145,5.361 -5.146,5.361 -3.36,0 -6.989,-1.759 -8.43,-3.547 v -8.831 h -4.108 V 7.096 h 4.108 V 4.188 c 2.294,1.895 5.576,3.173 9.496,3.173 C -3.945,7.361 -0.053,5.789 0,0"
             style="fill:#000000;fill-opacity:1;fill-rule:nonzero;stroke:none"
             id="path10987" />
        </g>
        <g
           id="g10989"
           transform="translate(333.4583,5002.6963)">
          <path
             d="m 0,0 v -4.829 c 0,-3.414 0.587,-4.186 3.601,-4.186 1.443,0 2.241,0 4.082,0.266 v -3.307 c -1.522,-0.266 -3.229,-0.401 -5.336,-0.401 -3.813,0 -6.48,1.52 -6.48,4.989 V 0 h -4.348 v 3.441 h 4.348 V 6.855 L 0,8.083 V 3.441 H 7.683 V 0 Z"
             style="fill:#000000;fill-opacity:1;fill-rule:nonzero;stroke:none"
             id="path10991" />
        </g>
      </g>
    </g>
  </g>
</svg>
