<?xml version="1.0" encoding="UTF-8" standalone="no"?>
<!-- Created with Inkscape (http://www.inkscape.org/) -->

<svg
   version="1.1"
   id="svg2"
   width="305.19849"
   height="302.47974"
   viewBox="0 0 305.19849 302.47974"
   sodipodi:docname="Websites.ai"
   inkscape:export-filename="_STYLE\ICONS\printer.svg"
   inkscape:export-xdpi="96"
   inkscape:export-ydpi="96"
   xmlns:inkscape="http://www.inkscape.org/namespaces/inkscape"
   xmlns:sodipodi="http://sodipodi.sourceforge.net/DTD/sodipodi-0.dtd"
   xmlns="http://www.w3.org/2000/svg"
   xmlns:svg="http://www.w3.org/2000/svg">
  <defs
     id="defs6">
    <clipPath
       clipPathUnits="userSpaceOnUse"
       id="clipPath10220">
      <path
         d="M 0,5137.634 H 1736.693 V 0 H 0 Z"
         id="path10218" />
    </clipPath>
  </defs>
  <sodipodi:namedview
     id="namedview4"
     pagecolor="#ffffff"
     bordercolor="#000000"
     borderopacity="0.25"
     inkscape:showpageshadow="2"
     inkscape:pageopacity="0.0"
     inkscape:pagecheckerboard="0"
     inkscape:deskcolor="#d1d1d1"
     showgrid="false" />
  <g
     id="g9322"
     inkscape:groupmode="layer"
     inkscape:label="Page 2"
     transform="matrix(1.3333333,0,0,-1.3333333,-1038.832,4380.6257)">
    <g
       id="g10214"
       transform="translate(18.346318,-73.385272)">
      <g
         id="g10216"
         clip-path="url(#clipPath10220)">
        <path
           d="M 926.018,3341.734 H 824.342 v -42.876 H 926.018 Z M 824.037,3149.063 h 102.152 v 74.599 H 824.037 Z m 119.223,39.871 c 6.808,0 12.955,-0.293 19.062,0.078 6.776,0.412 10.469,4.42 10.5,11.262 0.11,23.524 0.119,47.05 -0.002,70.574 -0.037,7.192 -4.008,11.093 -11.224,11.101 -57.53,0.064 -115.057,0.064 -172.586,0 -7.36,-0.01 -11.399,-4.157 -11.428,-11.643 -0.096,-23.309 -0.1,-46.621 0.008,-69.931 0.031,-6.745 3.844,-10.925 10.519,-11.351 6.112,-0.39 12.266,-0.082 18.93,-0.082 0,13.777 -0.016,26.994 0.006,40.211 0.014,8.648 2.902,11.626 11.369,11.63 37.854,0.018 75.707,0.019 113.561,0 8.849,0 11.265,-2.488 11.279,-11.465 0.021,-13.207 0.006,-26.413 0.006,-40.384 m -0.002,-16.597 c 0,-11.005 0.064,-20.833 -0.024,-30.658 -0.058,-6.515 -2.783,-9.582 -9.281,-9.6 -39.139,-0.112 -78.279,-0.113 -117.42,10e-4 -6.525,0.019 -9.418,3.419 -9.474,10.267 -0.077,9.773 -0.018,19.547 -0.018,29.991 -6.631,0 -12.572,-0.1 -18.512,0.02 -16.373,0.33 -27.646,11.732 -27.699,28.111 -0.072,23.314 -0.066,46.627 -0.004,69.94 0.045,16.668 11.569,28.19 28.143,28.289 5.738,0.034 11.48,0.01 18.07,0.01 v 7.247 c 0,13.902 -0.025,27.804 0.01,41.707 0.019,7.874 3.035,11.142 10.623,11.153 38.498,0.053 76.996,0.056 115.494,-0.01 7.209,-0.012 10.047,-2.96 10.074,-10.145 0.059,-14.329 0.008,-28.66 0.031,-42.99 0.006,-2.082 0.186,-4.164 0.319,-6.968 6.512,0 12.654,0.055 18.793,-0.012 15.359,-0.167 26.935,-11.196 27.097,-26.518 0.262,-24.379 0.258,-48.764 0.012,-73.144 -0.156,-15.363 -11.465,-26.284 -26.98,-26.664 -6.151,-0.152 -12.305,-0.026 -19.254,-0.026"
           style="fill:#ffffff;fill-opacity:1;fill-rule:evenodd;stroke:none"
           id="path10238" />
        <g
           id="g10240"
           transform="translate(831.2949,3252.8276)">
          <path
             d="m 0,0 c -4.738,-0.012 -8.654,3.892 -8.254,8.637 0.414,4.876 3.039,7.875 8.236,7.833 C 5.072,16.429 7.871,13.755 8.121,8.675 8.369,3.666 4.859,0.013 0,0"
             style="fill:#ffffff;fill-opacity:1;fill-rule:evenodd;stroke:none"
             id="path10242" />
        </g>
        <g
           id="g10244"
           transform="translate(804.8711,3269.2739)">
          <path
             d="m 0,0 c 6.326,0.172 10.016,-3.268 9.865,-8.149 -0.154,-5.107 -3.164,-7.819 -8.017,-8.247 -4.571,-0.402 -8.84,3.786 -8.6,8.364 0.26,4.954 2.984,7.78 6.752,8.032"
             style="fill:#ffffff;fill-opacity:1;fill-rule:evenodd;stroke:none"
             id="path10246" />
        </g>
        <g
           id="g10248"
           transform="translate(875.166,3191.9819)">
          <path
             d="m 0,0 c -10.482,0 -20.965,-0.049 -31.447,0.018 -6.598,0.042 -9.858,2.85 -9.864,8.248 -0.003,5.338 3.383,8.406 9.79,8.426 21.177,0.07 42.355,0.072 63.533,-0.002 6.031,-0.02 9.875,-3.62 9.703,-8.663 C 41.553,3.17 37.943,0.062 32.086,0.021 21.391,-0.053 10.695,0 0,0"
             style="fill:#ffffff;fill-opacity:1;fill-rule:evenodd;stroke:none"
             id="path10250" />
        </g>
        <g
           id="g10252"
           transform="translate(875.2051,3162.2319)">
          <path
             d="m 0,0 c -10.686,0.001 -21.375,-0.064 -32.063,0.026 -6.187,0.052 -9.261,2.843 -9.283,8.058 -0.021,5.128 3.17,8.383 9.147,8.42 21.588,0.133 43.178,0.14 64.765,-0.014 5.864,-0.042 9.252,-3.592 9.12,-8.579 C 41.553,2.989 38.123,0.068 32.063,0.022 21.377,-0.058 10.688,0 0,0"
             style="fill:#ffffff;fill-opacity:1;fill-rule:evenodd;stroke:none"
             id="path10254" />
        </g>
      </g>
    </g>
  </g>
</svg>
