<?xml version="1.0" encoding="UTF-8" standalone="no"?>
<!-- Created with Inkscape (http://www.inkscape.org/) -->

<svg
   version="1.1"
   id="svg2"
   width="299.81885"
   height="300.04272"
   viewBox="0 0 299.81885 300.04272"
   sodipodi:docname="Websites.ai"
   inkscape:export-filename="Websites.ai.svg"
   inkscape:export-xdpi="96"
   inkscape:export-ydpi="96"
   xmlns:inkscape="http://www.inkscape.org/namespaces/inkscape"
   xmlns:sodipodi="http://sodipodi.sourceforge.net/DTD/sodipodi-0.dtd"
   xmlns="http://www.w3.org/2000/svg"
   xmlns:svg="http://www.w3.org/2000/svg">
  <defs
     id="defs6">
    <clipPath
       clipPathUnits="userSpaceOnUse"
       id="clipPath10220">
      <path
         d="M 0,5137.634 H 1736.693 V 0 H 0 Z"
         id="path10218" />
    </clipPath>
  </defs>
  <sodipodi:namedview
     id="namedview4"
     pagecolor="#ffffff"
     bordercolor="#000000"
     borderopacity="0.25"
     inkscape:showpageshadow="2"
     inkscape:pageopacity="0.0"
     inkscape:pagecheckerboard="0"
     inkscape:deskcolor="#d1d1d1"
     showgrid="false" />
  <g
     id="g9322"
     inkscape:groupmode="layer"
     inkscape:label="Page 2"
     transform="matrix(1.3333333,0,0,-1.3333333,-306.94915,4492.3435)">
    <g
       id="g10214"
       transform="translate(6.1154391,12.230878)">
      <g
         id="g10216"
         clip-path="url(#clipPath10220)">
        <g
           id="g10222"
           transform="translate(441.2051,3327.8481)"
           inkscape:export-filename="rulerpen.svg"
           inkscape:export-xdpi="96"
           inkscape:export-ydpi="96">
          <path
             d="m 0,0 c -0.014,15.694 -16.256,25.854 -29.803,19.148 -2.136,-1.058 -2.353,-1.73 -0.828,-3.263 8.473,-8.515 16.985,-16.989 25.457,-25.503 1.174,-1.179 1.953,-1.09 2.733,0.386 C -0.832,-6.178 -0.113,-2.917 0,0 m -206.338,-187.15 c 9.654,1.349 19.311,2.665 28.955,4.075 1.985,0.291 1.049,1.349 0.276,2.126 -8.37,8.389 -16.75,16.766 -25.137,25.137 -0.404,0.404 -0.803,1.058 -1.49,0.773 -0.623,-0.259 -0.631,-0.977 -0.711,-1.561 -1.284,-9.435 -2.547,-18.873 -3.838,-28.306 -0.213,-1.547 0.33,-2.314 1.945,-2.244 m 194.717,168.16 c -0.205,0.907 -0.975,1.445 -1.6,2.071 -8.168,8.186 -16.347,16.359 -24.523,24.536 -2.596,2.594 -2.598,2.594 -5.213,-0.019 -50.914,-50.915 -101.83,-101.829 -152.744,-152.744 -0.477,-0.479 -0.936,-0.976 -1.426,-1.442 -1.082,-1.032 -1.088,-2.03 -0.014,-3.092 2.51,-2.481 5.012,-4.971 7.481,-7.492 1.123,-1.146 2.158,-1.192 3.262,-0.009 0.613,0.659 1.277,1.27 1.914,1.907 40.035,40.033 80.068,80.067 120.103,120.1 0.69,0.69 1.391,1.37 2.092,2.048 0.828,0.8 1.687,0.95 2.562,0.08 1.756,-1.748 3.51,-3.497 5.25,-5.26 0.715,-0.722 0.637,-1.469 -0.046,-2.177 -0.625,-0.649 -1.254,-1.295 -1.891,-1.932 -40.297,-40.3 -80.598,-80.599 -120.897,-120.899 -0.584,-0.583 -1.146,-1.19 -1.746,-1.758 -0.955,-0.908 -0.943,-1.764 -0.002,-2.696 2.776,-2.746 5.541,-5.502 8.278,-8.288 1.008,-1.027 1.904,-1.024 2.863,0.021 0.508,0.552 1.064,1.058 1.596,1.589 50.759,50.758 101.519,101.517 152.277,152.277 0.584,0.584 1.168,1.168 1.736,1.769 0.36,0.38 0.719,0.778 0.688,1.41 M 7.75,1.391 C 7.9,-7.56 4.93,-14.42 -0.744,-20.097 c -55.83,-55.86 -111.686,-111.695 -167.506,-167.564 -1.732,-1.734 -3.627,-2.733 -6.061,-3.055 -12.052,-1.597 -24.093,-3.287 -36.138,-4.941 -0.446,-0.061 -0.895,-0.105 -1.344,-0.148 -3.869,-0.372 -5.701,1.402 -5.248,5.267 0.525,4.473 1.17,8.931 1.787,13.392 1.152,8.327 2.342,16.648 3.463,24.979 0.221,1.644 0.811,3.018 2.023,4.144 0.606,0.561 1.163,1.173 1.747,1.757 55.525,55.529 111.042,111.066 166.587,166.575 8.075,8.069 17.827,10.74 28.75,7.571 C -2.1,24.809 4.441,17.501 7.17,6.811 7.695,4.753 7.766,2.655 7.75,1.391"
             style="fill:#ffffff;fill-opacity:1;fill-rule:evenodd;stroke:none"
             id="path10224" />
        </g>
        <g
           id="g10226"
           transform="translate(224.5488,3321.9224)">
          <path
             d="m 0,0 c -0.08,1.771 0.668,3.042 1.764,4.14 10.029,10.037 20.043,20.089 30.109,30.088 2.699,2.68 5.578,2.642 8.309,-0.082 19.875,-19.833 39.713,-39.704 59.593,-59.529 1.319,-1.315 1.303,-2.247 -0.017,-3.531 -4.033,-3.926 -8.014,-7.909 -11.942,-11.941 -1.267,-1.3 -2.222,-1.418 -3.529,-0.048 -5.525,5.79 -5.435,3.856 -0.064,9.395 3.806,3.923 3.925,3.298 -0.018,7.245 -4.471,4.477 -4.473,4.475 -8.91,0.037 -1.963,-1.963 -3.99,-3.871 -5.873,-5.909 -1.352,-1.461 -2.443,-1.397 -3.707,0.057 -0.932,1.075 -1.959,2.077 -3.02,3.028 -1.177,1.056 -1.062,1.924 0.034,2.988 2.959,2.878 5.808,5.872 8.785,8.731 1.386,1.333 1.494,2.44 0.033,3.744 -1.121,0.998 -2.156,2.091 -3.201,3.168 -1.049,1.081 -2.035,1.068 -3.09,-0.005 -1.736,-1.766 -3.531,-3.476 -5.258,-5.253 -0.98,-1.007 -1.846,-1.09 -2.861,-0.045 -6.082,6.265 -5.791,4.128 -0.43,9.698 3.797,3.945 3.977,3.275 0.022,7.239 C 56.25,3.693 55.75,4.149 55.285,4.639 54.246,5.733 53.256,5.705 52.201,4.63 50.467,2.86 48.672,1.152 46.945,-0.624 c -0.98,-1.007 -1.849,-1.089 -2.861,-0.044 -6.041,6.23 -5.797,4.097 -0.393,9.695 3.795,3.932 3.895,3.324 -0.031,7.254 -2.068,2.072 -4.162,4.118 -6.207,6.214 -0.982,1.006 -1.838,1.072 -2.863,0.043 C 27.652,15.567 20.705,8.606 13.727,1.679 c -1.465,-1.454 -0.721,-2.452 0.404,-3.573 6.492,-6.46 12.959,-12.946 19.433,-19.422 11.573,-11.573 23.147,-23.143 34.715,-34.719 2.106,-2.107 2.098,-2.196 0.03,-4.29 -1.108,-1.121 -2.274,-2.189 -3.338,-3.351 -1.258,-1.374 -2.401,-1.305 -3.569,0.073 -0.242,0.286 -0.531,0.531 -0.795,0.796 C 41.283,-43.483 21.963,-24.16 2.637,-4.841 1.24,-3.443 -0.174,-2.071 0,0"
             style="fill:#ffffff;fill-opacity:1;fill-rule:evenodd;stroke:none"
             id="path10228" />
        </g>
        <g
           id="g10230"
           transform="translate(452.0332,3166.5972)">
          <path
             d="m 0,0 c 0.066,-1.637 -0.609,-2.928 -1.721,-4.038 -10.142,-10.138 -20.261,-20.297 -30.433,-30.403 -2.412,-2.396 -5.071,-2.352 -7.612,-0.107 -0.505,0.446 -0.976,0.934 -1.455,1.412 -20.332,20.331 -40.666,40.663 -60.998,60.996 -2.342,2.344 -2.338,2.349 0.043,4.738 0.901,0.903 1.799,1.81 2.709,2.706 2.069,2.035 2.201,2.044 4.307,-0.06 18.318,-18.311 36.617,-36.642 54.957,-54.933 4.859,-4.845 3.506,-4.855 8.43,0.012 5.873,5.805 11.693,11.664 17.519,17.516 1.914,1.922 1.918,2.269 -0.012,4.2 -16.978,16.996 -33.984,33.968 -50.935,50.992 -1.438,1.444 -2.43,1.554 -3.862,0.025 -2.669,-2.849 -5.572,-5.479 -8.23,-8.334 -1.51,-1.619 -2.66,-1.56 -4.021,0.068 -0.815,0.976 -1.737,1.88 -2.702,2.708 -1.371,1.174 -1.191,2.122 0.036,3.329 5.298,5.212 10.568,10.455 15.759,15.774 1.448,1.481 2.444,1.447 3.879,-0.015 6.207,-6.319 12.506,-12.551 18.77,-18.815 14.334,-14.333 28.666,-28.667 43.002,-43 C -1.227,3.429 0.09,2.078 0,0"
             style="fill:#ffffff;fill-opacity:1;fill-rule:evenodd;stroke:none"
             id="path10232" />
        </g>
        <g
           id="g10234"
           transform="translate(412.1348,3164.063)">
          <path
             d="M 0,0 C 3.568,0.021 6.436,2.854 6.475,6.394 6.514,9.852 3.289,13.066 -0.156,13.004 -3.707,12.941 -6.486,10.08 -6.51,6.464 -6.533,2.612 -3.881,-0.021 0,0 M 11.521,6.366 C 11.512,0.014 6.301,-5.22 -0.061,-5.265 -6.287,-5.31 -11.656,0.036 -11.711,6.337 -11.766,12.773 -6.475,18.064 0.004,18.048 6.283,18.033 11.529,12.713 11.521,6.366"
             style="fill:#ffffff;fill-opacity:1;fill-rule:evenodd;stroke:none"
             id="path10236" />
        </g>
      </g>
    </g>
  </g>
</svg>
