<svg xmlns="http://www.w3.org/2000/svg" viewBox="0 0 130.99 93.09"><defs><style>.cls-1{fill:#cc9932;}</style></defs><g id="Layer_2" data-name="Layer 2"><g id="Layer_1-2" data-name="Layer 1"><path class="cls-1" d="M75.94,10.18c-.46-.83-1.69-1.09-3.18-.37-2.06,1-4.23,4-5.66,6.32-.25-.11-.54-.2-.54-.4a2.91,2.91,0,0,0,0-.51c.63-1.79,3.35-4.59,6.12-7.81,1-1.2,1.09-2.22.17-3s-2.29.2-3.26,1.42a41.28,41.28,0,0,0-3.09,6.3c0-.4.09-.8.15-1.17.31-1-.32-3,3.8-8.21a7.49,7.49,0,0,0-5-2.79c-2.63.11-5.29,2.37-5.17,2.54C64.39,7.78,64,10,64.27,11a7.8,7.8,0,0,1,.15,1.17,38.61,38.61,0,0,0-3.09-6.3c-1-1.22-2.35-2.14-3.26-1.42s-.86,1.76.17,3c2.77,3.22,5.49,6,6.12,7.81,0,.17,0,.34,0,.51s-.29.29-.54.4c-1.43-2.33-3.61-5.3-5.66-6.32-1.49-.72-2.72-.46-3.18.37a2.16,2.16,0,0,0,1,3c1.2.68,6.66,2.36,8.23,6.07,0,3.19-.08,6.38,0,9.18.14,5.27.25,10,.4,13.28-.06.6-3.21,4.19-3.21,4.19,2.18,1.71,2.55,3.08,3.78,5,0,.08.14,0,.28-.09.15.12.23.17.29.09,1.23-1.91,1.6-3.28,3.77-5,0,0-3.17-3.59-3.23-4.19.17-3.25.29-8,.4-13.28.09-2.8.06-6,0-9.18,1.6-3.71,7.06-5.39,8.23-6.07A2.15,2.15,0,0,0,75.94,10.18Z"></path><path class="cls-1" d="M61.18,31.5c-.68-1.6-3.34-4.14-4.4-5.45S52.92,21.66,52.69,21a5.31,5.31,0,0,1-.8-3.74,1.77,1.77,0,0,1,1.4-1.19,1.32,1.32,0,0,1,1.38.4l.08.08a1.25,1.25,0,0,1-.34,1.77,2,2,0,0,0,1.51,3.42,2.25,2.25,0,0,0,1.49-.46c.31,0,1-.91,1-2.62a4.24,4.24,0,0,0-2-3.59A4.14,4.14,0,0,0,54,14a4.61,4.61,0,0,0-2.69.62,4,4,0,0,0-1.83,3.57,7.16,7.16,0,0,0,1,3.47,37.7,37.7,0,0,0,2.38,3.11.31.31,0,0,1-.29.51,7.68,7.68,0,0,0-.86,0,11.45,11.45,0,0,0-3.23.46,8.76,8.76,0,0,0-6.06,6.61A11,11,0,0,0,43.92,40a6.55,6.55,0,0,0,4.94,3.19c3,.37,6.18-.82,7.12-3.59a7,7,0,0,0-.89-6.72,3.72,3.72,0,0,0-3.48-1.43,2.52,2.52,0,0,0-1.92,2.31A2.19,2.19,0,0,0,52,36.17a4.25,4.25,0,0,0,1.54-.37A.33.33,0,0,1,54,36a3.61,3.61,0,0,1,.11,1.82C53.89,39.71,51.66,41,50,40.9a4.19,4.19,0,0,1-2-.54,6.4,6.4,0,0,1-2.81-7A6.12,6.12,0,0,1,49,28.65,8.8,8.8,0,0,1,52.24,28a7.59,7.59,0,0,1,3.34.88A9.66,9.66,0,0,1,60,33.52a10.69,10.69,0,0,1,.92,5.19C60.7,42,57.58,45,57.58,45s4.92-1.37,4.92-7.9A12.24,12.24,0,0,0,61.18,31.5Z"></path><path class="cls-1" d="M69.82,31.5c.68-1.6,3.31-4.14,4.4-5.45s3.86-4.39,4.09-5.07c.86-1.37,1.06-3.28.77-3.74a1.7,1.7,0,0,0-1.37-1.19,1.29,1.29,0,0,0-1.37.4l-.09.08a1.25,1.25,0,0,0,.34,1.77,2.05,2.05,0,0,1,.52,1.2,2.08,2.08,0,0,1-2.06,2.22,2.3,2.3,0,0,1-1.49-.46c-.28,0-1-.91-1-2.62a4.24,4.24,0,0,1,2-3.59A4.17,4.17,0,0,1,77.05,14a4.68,4.68,0,0,1,2.69.62,3.92,3.92,0,0,1,1.8,3.57,6.73,6.73,0,0,1-1,3.47,34.53,34.53,0,0,1-2.4,3.11.32.32,0,0,0,.31.51,7.49,7.49,0,0,1,.83,0,11.68,11.68,0,0,1,3.26.46,8.86,8.86,0,0,1,6.06,6.61A10.82,10.82,0,0,1,87.06,40a6.46,6.46,0,0,1-5,3.19c-3,.37-6.14-.82-7.09-3.59a7.11,7.11,0,0,1,.86-6.72,3.81,3.81,0,0,1,3.52-1.43,2.51,2.51,0,0,1,1.91,2.31A2.19,2.19,0,0,1,79,36.17a4.58,4.58,0,0,1-1.55-.37.3.3,0,0,0-.4.2,3.75,3.75,0,0,0-.11,1.82c.14,1.89,2.4,3.17,4,3.08a4.43,4.43,0,0,0,2.09-.54,6.44,6.44,0,0,0,2.8-7A6.19,6.19,0,0,0,82,28.65,9.09,9.09,0,0,0,78.74,28a7.39,7.39,0,0,0-3.32.88,9.57,9.57,0,0,0-4.37,4.65,11.1,11.1,0,0,0-1,5.19C70.28,42,73.39,45,73.39,45s-4.89-1.37-4.89-7.9A12.24,12.24,0,0,1,69.82,31.5Z"></path><path class="cls-1" d="M53.46,58.46A6.84,6.84,0,0,1,50.81,64,9.11,9.11,0,0,1,44.89,66a11.51,11.51,0,0,1-4.21-1.17,13.09,13.09,0,0,0,3.46.52,6,6,0,0,0,4.69-1.83,6.79,6.79,0,0,0,1.6-4.81,5.52,5.52,0,0,0-2.51-5,10.79,10.79,0,0,0-5.78-1.34c-1,0-1.6.23-1.77.66a4.14,4.14,0,0,0-.11,1.08V64.3a2.12,2.12,0,0,1-2.15,1.54,2.77,2.77,0,0,1-1.74-.71v0c0-.14,0-.37,0-.66a1.21,1.21,0,0,0,.54.17c.35,0,.52-.25.6-.74,0-.17,0-.6,0-1.31V54.24a1.81,1.81,0,0,0-.71-1.65A4.49,4.49,0,0,0,35,52.27v-.88h8.2A14.73,14.73,0,0,1,50,52.82,6,6,0,0,1,53.46,58.46Zm14,2.68H57.81c.17,2.71,1.63,4.08,4.37,4.08a10.41,10.41,0,0,0,2.49-.38l.06.29a1.19,1.19,0,0,0-.43.14,7.06,7.06,0,0,1-2.63.66,6.69,6.69,0,0,1-4.2-1.26A4.86,4.86,0,0,1,57.18,57a6.32,6.32,0,0,1,4-1.53,5.91,5.91,0,0,1,5.26,2.42A4.92,4.92,0,0,1,67.42,61.14Zm-2.35-.91c-.23-2.6-1.46-3.88-3.71-3.91a3.25,3.25,0,0,0-2.58,1.17,4.49,4.49,0,0,0-1,2.74Zm11-9.27c-2,.35-3.12,1-3.49,2a8.13,8.13,0,0,0-.31,2.76V65.84H69.16V64.9H70V55.52C70,52.3,72,50.79,76.11,51ZM90.43,64.79a6.7,6.7,0,0,0-.11.82,2.15,2.15,0,0,1-1.4.52,2.29,2.29,0,0,1-1.18-.32,1.15,1.15,0,0,1-.6-1V60.91a5.36,5.36,0,0,0-.91-3.16,3.39,3.39,0,0,0-2.89-1.46,3.1,3.1,0,0,0-2.69,1.4,4.81,4.81,0,0,0-.88,3v4.28h.83v.94h-4v-.94h.8V51.79h-.8v-.94h4v.94h-.83v4.79a6.37,6.37,0,0,1,3.4-1.08,6.29,6.29,0,0,1,4.23,1.25,4.44,4.44,0,0,1,2,3.79v3.14a3.51,3.51,0,0,0,.12.71c.11.37.26.54.43.54A1.22,1.22,0,0,0,90.43,64.79Zm5.15-12.14a1.16,1.16,0,0,1-.37.88,1.15,1.15,0,0,1-.89.37,1.11,1.11,0,0,1-.89-.37,1.16,1.16,0,0,1-.37-.88,1.26,1.26,0,0,1,1.26-1.26,1.26,1.26,0,0,1,.89.37A1.22,1.22,0,0,1,95.58,52.65ZM96,56.41h-.83v9.43H92.06V64.9h.83V55.5H96Z"></path><path class="cls-1" d="M28.28,81.52a10.41,10.41,0,0,1-4.09,8.41,13.8,13.8,0,0,1-9,3.16A18.26,18.26,0,0,1,8.72,91.3a21.3,21.3,0,0,0,5.29.77,9.27,9.27,0,0,0,7.18-2.77,10.56,10.56,0,0,0,2.45-7.41c0-3.51-1.28-6.07-3.86-7.7-2.14-1.34-5.08-2-8.8-2-1.54,0-2.46.34-2.72,1a5.51,5.51,0,0,0-.17,1.65V90.44a3.29,3.29,0,0,1-3.26,2.37,4.15,4.15,0,0,1-2.69-1.09v0c0-.2,0-.54,0-1a1.73,1.73,0,0,0,.82.26c.49,0,.78-.37.89-1.14,0-.26,0-.94,0-2V75.11c0-1.29-.34-2.14-1.06-2.54A7,7,0,0,0,0,72.08V70.75H12.55A22.17,22.17,0,0,1,23,72.91,9.13,9.13,0,0,1,28.28,81.52ZM51.12,92.81H46.55V85.05c0-4.5-1.89-6.75-5.72-6.78a4.79,4.79,0,0,0-4.15,2.08,7.68,7.68,0,0,0-1.34,4.53A6.92,6.92,0,0,0,37.08,90a6.47,6.47,0,0,0,5,1.88,14.9,14.9,0,0,0,3.8-.54l.09.42a2.62,2.62,0,0,0-.6.2,10.63,10.63,0,0,1-4.06,1A10.21,10.21,0,0,1,34.88,91a7.41,7.41,0,0,1-.46-11.69A9.71,9.71,0,0,1,40.6,77,9.83,9.83,0,0,1,47,79a6.79,6.79,0,0,1,3.12,5.7v6.7h1Zm17.93-14.6c0,.12,0,.2-.06.23l-.23,0A15.49,15.49,0,0,0,65.13,78c-2.49,0-4.32.8-5.46,2.4a6.2,6.2,0,0,0-1.2,3.73v7.24H59.9v1.43h-5V80.09c0-.91-.17-1.36-.57-1.36a2.06,2.06,0,0,0-.83.25v-1a3.44,3.44,0,0,1,2.32-.86,2.28,2.28,0,0,1,2.4,1.51,10,10,0,0,1,6-1.68A11.94,11.94,0,0,1,68.7,78C68.9,78.07,69,78.13,69.05,78.21ZM90.52,84.6a7.21,7.21,0,0,1-2.63,5.93,9.66,9.66,0,0,1-6.12,2.36,9.79,9.79,0,0,1-6-1.59,2.6,2.6,0,0,1-2.6,1.51A3.55,3.55,0,0,1,71,92c0-.23,0-.6,0-1.17a2.13,2.13,0,0,0,.8.32c.26,0,.4-.32.43-.89V71.31H71V69.89h6.09v1.42H75.77V84.83c0,4.47,1.88,6.75,5.69,6.78a4.78,4.78,0,0,0,4.14-2A7.34,7.34,0,0,0,86.94,85a7.17,7.17,0,0,0-1.68-5.1,6.47,6.47,0,0,0-5-1.91,14.51,14.51,0,0,0-3.77.54l-.14-.37a1.59,1.59,0,0,0,.34-.14l.31-.11a11.61,11.61,0,0,1,4.06-1,10.23,10.23,0,0,1,6.41,1.94A7.21,7.21,0,0,1,90.52,84.6Zm22.53,8.21h-4.58V85.05c0-4.5-1.88-6.75-5.72-6.78a4.78,4.78,0,0,0-4.14,2.08,7.61,7.61,0,0,0-1.34,4.53A6.92,6.92,0,0,0,99,90,6.47,6.47,0,0,0,104,91.84a14.9,14.9,0,0,0,3.8-.54l.08.42a3,3,0,0,0-.6.2,10.59,10.59,0,0,1-4.06,1A10.2,10.2,0,0,1,96.81,91a7.09,7.09,0,0,1-3.09-5.76,7.18,7.18,0,0,1,2.63-5.93A9.71,9.71,0,0,1,102.53,77a9.83,9.83,0,0,1,6.4,2,6.79,6.79,0,0,1,3.12,5.7v6.7h1ZM131,78.21c0,.12,0,.2-.05.23l-.23,0a15.49,15.49,0,0,0-3.63-.46c-2.49,0-4.32.8-5.46,2.4a6.2,6.2,0,0,0-1.2,3.73v7.24h1.43v1.43h-5V80.09c0-.91-.17-1.36-.57-1.36a2,2,0,0,0-.83.25v-1a3.44,3.44,0,0,1,2.32-.86,2.29,2.29,0,0,1,2.4,1.51,10,10,0,0,1,6-1.68A12,12,0,0,1,130.63,78C130.83,78.07,131,78.13,131,78.21Z"></path></g></g></svg>