<?xml version="1.0" encoding="UTF-8" standalone="no"?>
<!-- Created with Inkscape (http://www.inkscape.org/) -->

<svg
   version="1.1"
   id="svg2"
   width="416.34979"
   height="176.26097"
   viewBox="0 0 416.34979 176.26097"
   sodipodi:docname="Base Namaskar.ai"
   inkscape:export-filename="logo-150x150.png"
   inkscape:export-xdpi="18.148119"
   inkscape:export-ydpi="18.148119"
   xmlns:inkscape="http://www.inkscape.org/namespaces/inkscape"
   xmlns:sodipodi="http://sodipodi.sourceforge.net/DTD/sodipodi-0.dtd"
   xmlns="http://www.w3.org/2000/svg"
   xmlns:svg="http://www.w3.org/2000/svg">
  <defs
     id="defs6">
    <clipPath
       clipPathUnits="userSpaceOnUse"
       id="clipPath52">
      <path
         d="M 0,332.964 H 595.276 V 0 H 0 Z"
         id="path50" />
    </clipPath>
    <clipPath
       clipPathUnits="userSpaceOnUse"
       id="clipPath60">
      <path
         d="M 229.862,148.124 H 365.068 V 15.928 H 229.862 Z"
         id="path58" />
    </clipPath>
    <clipPath
       clipPathUnits="userSpaceOnUse"
       id="clipPath64">
      <path
         d="m 345.611,74.219 c -3.772,3.173 -7.764,5.863 -11.957,7.807 4.193,1.945 8.185,4.634 11.957,7.808 5.045,-1.723 9.932,-4.521 14.61,-7.807 l -10e-4,-0.001 10e-4,-10e-4 c -4.678,-3.286 -9.565,-6.084 -14.61,-7.806 m 19.451,7.807 -0.001,0.004 c 0.046,0.657 -0.131,1.321 -0.638,1.667 -0.789,0.538 -1.576,1.068 -2.365,1.586 -0.806,0.518 -1.612,1.024 -2.419,1.515 -0.809,0.49 -1.604,0.966 -2.425,1.422 -0.825,0.455 -1.65,0.892 -2.474,1.308 -1.549,0.792 -3.158,1.502 -4.75,2.122 -1.402,0.563 -3.081,1.41 -4.526,1.483 -1.099,0.057 -1.571,-0.662 -2.405,-1.415 -0.693,-0.634 -1.426,-1.258 -2.153,-1.858 -0.731,-0.601 -1.452,-1.179 -2.197,-1.735 -2.886,-2.138 -5.856,-3.921 -9.017,-5.287 -0.381,-0.167 -0.565,-0.49 -0.555,-0.812 -0.01,-0.321 0.174,-0.645 0.555,-0.811 3.161,-1.366 6.131,-3.15 9.017,-5.288 0.745,-0.556 1.466,-1.134 2.197,-1.734 0.727,-0.601 1.46,-1.225 2.153,-1.859 0.834,-0.753 1.306,-1.472 2.405,-1.415 1.445,0.073 3.124,0.92 4.526,1.484 1.592,0.62 3.201,1.33 4.75,2.121 0.824,0.416 1.649,0.853 2.474,1.309 0.821,0.456 1.616,0.931 2.425,1.421 0.807,0.491 1.613,0.997 2.419,1.516 0.789,0.517 1.576,1.047 2.365,1.585 0.507,0.346 0.684,1.01 0.638,1.667 z"
         id="path62" />
    </clipPath>
    <clipPath
       clipPathUnits="userSpaceOnUse"
       id="clipPath84">
      <path
         d="m 341.839,38.638 c -5.691,0.897 -11.168,2.307 -15.982,4.584 -0.368,4.845 -1.237,9.509 -2.803,13.785 4.374,-1.531 9.143,-2.38 14.099,-2.741 2.329,-4.707 3.771,-10.062 4.688,-15.626 h -0.002 z m 3.661,1.045 c -0.194,0.923 -0.397,1.837 -0.612,2.74 -0.415,1.796 -0.935,3.596 -1.491,5.315 -0.527,1.631 -1.162,3.252 -1.827,4.78 -0.599,1.376 -1.167,3.13 -2.13,4.176 -0.734,0.799 -1.592,0.62 -2.731,0.667 -1.906,0.067 -3.83,0.234 -5.674,0.466 -3.578,0.476 -6.98,1.272 -10.196,2.49 -0.39,0.146 -0.754,0.046 -0.978,-0.188 -0.239,-0.219 -0.342,-0.575 -0.192,-0.957 1.245,-3.144 2.059,-6.47 2.546,-9.969 0.238,-1.802 0.409,-3.684 0.477,-5.547 0.048,-1.113 -0.135,-1.953 0.683,-2.67 1.069,-0.942 2.863,-1.497 4.271,-2.082 1.562,-0.651 3.22,-1.272 4.888,-1.787 1.758,-0.544 3.599,-1.052 5.436,-1.458 0.924,-0.21 1.859,-0.408 2.803,-0.598 0.943,-0.188 1.876,-0.349 2.827,-0.514 0.609,-0.105 1.216,0.244 1.66,0.742 l 0.003,0.003 0.003,0.003 c 0.51,0.434 0.867,1.028 0.76,1.624 -0.169,0.929 -0.334,1.842 -0.526,2.764"
         id="path82" />
    </clipPath>
    <clipPath
       clipPathUnits="userSpaceOnUse"
       id="clipPath104">
      <path
         d="m 333.78,46.52 c -0.913,0.218 -1.805,0.463 -2.679,0.729 -0.173,0.817 -0.355,1.624 -0.543,2.421 0.815,-0.184 1.64,-0.362 2.476,-0.531 0.273,-0.854 0.523,-1.727 0.746,-2.619 z m 2.807,0.704 c -0.19,0.674 -0.395,1.342 -0.612,1.997 -0.224,0.683 -0.351,1.752 -0.923,2.171 -0.638,0.468 -1.8,0.422 -2.577,0.56 -1.124,0.189 -2.254,0.413 -3.359,0.676 -0.434,0.101 -0.876,-0.08 -1.182,-0.392 -0.32,-0.299 -0.505,-0.732 -0.401,-1.156 0.269,-1.08 0.498,-2.186 0.691,-3.284 0.141,-0.76 0.094,-1.896 0.572,-2.52 0.43,-0.559 1.523,-0.684 2.222,-0.902 0.669,-0.213 1.352,-0.413 2.042,-0.599 0.681,-0.179 1.372,-0.347 2.069,-0.511 0.558,-0.132 1.072,0.13 1.432,0.533 l 0.002,0.002 0.001,0.002 c 0.413,0.352 0.681,0.854 0.546,1.4 -0.168,0.681 -0.34,1.357 -0.523,2.023"
         id="path102" />
    </clipPath>
    <clipPath
       clipPathUnits="userSpaceOnUse"
       id="clipPath124">
      <path
         d="m 303.576,67.575 c -1.917,-0.775 -3.949,-1.174 -6.111,-1.182 -2.161,0.008 -4.194,0.407 -6.111,1.182 -1.911,0.772 -3.697,1.934 -5.195,3.397 -1.496,1.464 -2.685,3.21 -3.474,5.079 -0.792,1.874 -1.201,3.862 -1.209,5.975 0.008,2.114 0.417,4.101 1.209,5.975 0.789,1.869 1.978,3.615 3.474,5.08 1.498,1.462 3.284,2.624 5.195,3.397 1.917,0.774 3.95,1.173 6.111,1.181 2.162,-0.008 4.194,-0.407 6.111,-1.181 1.912,-0.773 3.698,-1.935 5.195,-3.397 1.496,-1.465 2.685,-3.211 3.475,-5.08 0.792,-1.874 1.2,-3.861 1.209,-5.975 -0.009,-2.113 -0.417,-4.101 -1.209,-5.975 -0.79,-1.869 -1.979,-3.615 -3.475,-5.079 -1.497,-1.463 -3.283,-2.625 -5.195,-3.397 m 10.856,7.59 c 0.912,2.155 1.381,4.451 1.389,6.861 -0.008,2.41 -0.477,4.706 -1.389,6.862 -0.91,2.15 -2.274,4.151 -3.987,5.829 -1.716,1.675 -3.762,3.009 -5.962,3.898 -2.205,0.892 -4.553,1.35 -7.018,1.358 -2.465,-0.008 -4.813,-0.466 -7.017,-1.358 -2.2,-0.889 -4.247,-2.223 -5.962,-3.898 -1.714,-1.678 -3.078,-3.679 -3.987,-5.829 -0.912,-2.156 -1.382,-4.452 -1.39,-6.862 0.008,-2.41 0.478,-4.706 1.39,-6.861 0.909,-2.151 2.273,-4.152 3.987,-5.829 1.715,-1.676 3.762,-3.01 5.962,-3.899 2.204,-0.891 4.552,-1.35 7.017,-1.358 2.465,0.008 4.813,0.467 7.018,1.358 2.2,0.889 4.246,2.223 5.962,3.899 1.713,1.677 3.077,3.678 3.987,5.829"
         id="path122" />
    </clipPath>
    <clipPath
       clipPathUnits="userSpaceOnUse"
       id="clipPath144">
      <path
         d="m 312.965,59.582 c 0.247,-0.894 0.467,-1.8 0.664,-2.727 0.097,-0.463 0.19,-0.933 0.274,-1.402 0.08,-0.462 0.154,-0.929 0.221,-1.399 0.553,-3.797 0.597,-7.692 0.151,-11.705 -3.214,2.507 -6.016,5.337 -8.359,8.371 -2.352,3.067 -4.234,6.295 -5.661,9.711 l 0.606,0.07 0.597,0.109 c 0.198,0.037 0.4,0.059 0.597,0.104 l 0.589,0.137 c 0.894,-1.626 1.881,-3.132 3.002,-4.659 0.555,-0.743 1.135,-1.468 1.748,-2.19 0.307,-0.361 0.62,-0.719 0.942,-1.075 0.318,-0.347 0.642,-0.689 0.975,-1.03 0.286,-0.294 0.683,-0.344 1.008,-0.22 0.328,0.117 0.562,0.45 0.552,0.854 -0.088,3.757 -0.71,7.467 -1.754,10.937 0.684,0.429 1.365,0.866 2.001,1.366 0.736,-1.712 1.326,-3.426 1.847,-5.252 m -4.112,-4.449 c -0.911,0.967 -1.758,1.936 -2.558,2.953 -0.806,1.029 -1.55,2.067 -2.24,3.131 l 0.971,0.32 c 0.322,0.114 0.635,0.25 0.956,0.364 0.63,0.264 1.253,0.543 1.86,0.858 0.569,-2.476 0.909,-5.021 1.011,-7.626 m -11.388,7.432 c -2.664,0.007 -5.218,0.505 -7.611,1.474 -2.388,0.965 -4.605,2.412 -6.463,4.226 -1.856,1.816 -3.335,3.984 -4.323,6.32 -0.99,2.339 -1.499,4.837 -1.507,7.441 0.008,2.605 0.517,5.102 1.507,7.441 0.988,2.336 2.467,4.504 4.323,6.32 1.858,1.815 4.075,3.261 6.463,4.226 2.393,0.969 4.947,1.467 7.611,1.474 2.664,-0.007 5.218,-0.505 7.611,-1.474 2.389,-0.965 4.606,-2.411 6.464,-4.226 1.855,-1.816 3.335,-3.984 4.322,-6.32 0.991,-2.339 1.5,-4.836 1.508,-7.441 -0.008,-2.604 -0.517,-5.102 -1.508,-7.441 -0.987,-2.336 -2.467,-4.504 -4.322,-6.32 -1.858,-1.814 -4.075,-3.261 -6.464,-4.226 -2.393,-0.969 -4.947,-1.467 -7.611,-1.474 m -11.387,-7.432 c 0.102,2.605 0.441,5.15 1.011,7.626 0.606,-0.315 1.229,-0.594 1.859,-0.858 0.322,-0.114 0.634,-0.25 0.956,-0.364 l 0.972,-0.32 c -0.69,-1.064 -1.435,-2.102 -2.24,-3.131 -0.801,-1.017 -1.648,-1.986 -2.558,-2.953 m 2.937,-4.413 c -2.343,-3.034 -5.145,-5.864 -8.359,-8.371 -0.447,4.013 -0.402,7.908 0.151,11.705 0.067,0.47 0.14,0.937 0.22,1.399 0.084,0.469 0.177,0.939 0.275,1.402 0.197,0.927 0.416,1.833 0.664,2.727 0.52,1.826 1.11,3.54 1.847,5.252 0.635,-0.5 1.317,-0.937 2.001,-1.366 -1.045,-3.47 -1.666,-7.18 -1.755,-10.937 -0.009,-0.404 0.225,-0.737 0.553,-0.854 0.325,-0.124 0.721,-0.074 1.008,0.22 0.332,0.341 0.656,0.683 0.975,1.03 0.321,0.356 0.635,0.714 0.941,1.075 0.613,0.722 1.194,1.447 1.748,2.19 1.122,1.527 2.109,3.033 3.002,4.659 l 0.589,-0.137 c 0.197,-0.045 0.4,-0.067 0.598,-0.104 l 0.597,-0.109 0.605,-0.07 c -1.426,-3.416 -3.308,-6.644 -5.66,-9.711 m -14.504,16.152 c -0.915,-0.242 -1.842,-0.457 -2.79,-0.649 -0.474,-0.096 -0.954,-0.187 -1.434,-0.269 -0.473,-0.078 -0.95,-0.15 -1.431,-0.215 -3.883,-0.541 -7.867,-0.585 -11.971,-0.148 2.564,3.142 5.458,5.882 8.561,8.173 3.137,2.299 6.439,4.14 9.933,5.534 l 0.071,-0.592 0.111,-0.583 c 0.039,-0.194 0.061,-0.392 0.107,-0.584 l 0.14,-0.577 c -1.662,-0.873 -3.203,-1.838 -4.765,-2.935 -0.76,-0.542 -1.501,-1.11 -2.24,-1.709 -0.369,-0.299 -0.735,-0.606 -1.099,-0.92 -0.356,-0.312 -0.705,-0.628 -1.053,-0.953 -0.302,-0.281 -0.353,-0.668 -0.226,-0.986 0.12,-0.321 0.461,-0.55 0.873,-0.541 3.843,0.087 7.638,0.695 11.187,1.716 0.438,-0.669 0.885,-1.335 1.397,-1.956 -1.751,-0.721 -3.505,-1.297 -5.371,-1.806 m 3.249,5.009 c -2.533,-0.557 -5.136,-0.889 -7.8,-0.989 0.989,0.89 1.98,1.718 3.02,2.501 1.053,0.788 2.115,1.516 3.202,2.191 l 0.328,-0.951 c 0.116,-0.314 0.256,-0.62 0.372,-0.935 0.27,-0.615 0.555,-1.224 0.878,-1.817 m -0.878,18.473 c -0.116,-0.315 -0.256,-0.621 -0.372,-0.935 l -0.328,-0.95 c -1.087,0.675 -2.149,1.403 -3.202,2.19 -1.04,0.783 -2.031,1.611 -3.02,2.501 2.664,-0.1 5.267,-0.432 7.8,-0.988 -0.323,-0.593 -0.608,-1.203 -0.878,-1.818 m -11.436,-0.065 c -3.103,2.29 -5.997,5.03 -8.561,8.172 4.104,0.437 8.088,0.393 11.971,-0.147 0.481,-0.066 0.958,-0.138 1.431,-0.216 0.48,-0.082 0.96,-0.173 1.434,-0.268 0.948,-0.193 1.875,-0.407 2.79,-0.649 1.866,-0.509 3.62,-1.086 5.371,-1.806 -0.512,-0.622 -0.959,-1.288 -1.397,-1.957 -3.549,1.021 -7.344,1.629 -11.187,1.716 -0.412,0.009 -0.753,-0.22 -0.873,-0.54 -0.127,-0.318 -0.076,-0.706 0.226,-0.986 0.348,-0.325 0.697,-0.642 1.053,-0.953 0.364,-0.315 0.73,-0.621 1.099,-0.921 0.739,-0.599 1.48,-1.167 2.24,-1.709 1.562,-1.097 3.103,-2.061 4.765,-2.935 l -0.14,-0.576 c -0.046,-0.193 -0.068,-0.39 -0.107,-0.584 l -0.111,-0.584 -0.071,-0.592 c -3.494,1.395 -6.796,3.235 -9.933,5.535 m 25.43,12.547 -0.972,-0.321 c -0.322,-0.113 -0.634,-0.25 -0.956,-0.364 -0.63,-0.263 -1.253,-0.542 -1.859,-0.858 -0.57,2.477 -0.909,5.021 -1.011,7.626 0.91,-0.967 1.757,-1.936 2.558,-2.952 0.805,-1.03 1.55,-2.068 2.24,-3.131 m -8.91,1.634 c -0.248,0.894 -0.467,1.8 -0.664,2.728 -0.098,0.462 -0.191,0.932 -0.275,1.401 -0.08,0.462 -0.153,0.929 -0.22,1.4 -0.553,3.796 -0.598,7.691 -0.151,11.704 3.214,-2.507 6.016,-5.336 8.359,-8.37 2.352,-3.068 4.234,-6.296 5.66,-9.712 l -0.605,-0.07 -0.597,-0.108 c -0.198,-0.038 -0.401,-0.06 -0.598,-0.104 l -0.589,-0.137 c -0.893,1.625 -1.88,3.131 -3.002,4.658 -0.554,0.743 -1.135,1.468 -1.748,2.19 -0.306,0.361 -0.62,0.719 -0.941,1.075 -0.319,0.348 -0.643,0.689 -0.975,1.03 -0.287,0.294 -0.683,0.344 -1.008,0.221 -0.328,-0.118 -0.562,-0.451 -0.553,-0.855 0.089,-3.756 0.71,-7.467 1.755,-10.937 -0.684,-0.429 -1.366,-0.866 -2.001,-1.366 -0.737,1.712 -1.327,3.427 -1.847,5.252 m 26.887,4.449 c -0.102,-2.605 -0.442,-5.149 -1.011,-7.626 -0.607,0.316 -1.23,0.595 -1.86,0.858 -0.321,0.114 -0.634,0.251 -0.956,0.364 l -0.971,0.321 c 0.69,1.063 1.434,2.101 2.24,3.131 0.8,1.016 1.647,1.985 2.558,2.952 m -2.937,4.414 c 2.343,3.034 5.145,5.863 8.359,8.37 0.446,-4.013 0.402,-7.908 -0.151,-11.704 -0.067,-0.471 -0.141,-0.938 -0.221,-1.4 -0.084,-0.469 -0.177,-0.939 -0.274,-1.401 -0.197,-0.928 -0.417,-1.834 -0.664,-2.728 -0.521,-1.825 -1.111,-3.54 -1.847,-5.252 -0.636,0.5 -1.317,0.937 -2.001,1.366 1.044,3.47 1.666,7.181 1.754,10.937 0.01,0.404 -0.224,0.737 -0.552,0.855 -0.325,0.123 -0.722,0.073 -1.008,-0.221 -0.333,-0.341 -0.657,-0.682 -0.975,-1.03 -0.322,-0.356 -0.635,-0.714 -0.942,-1.075 -0.613,-0.722 -1.193,-1.447 -1.748,-2.19 -1.121,-1.527 -2.108,-3.033 -3.002,-4.658 l -0.589,0.137 c -0.197,0.044 -0.399,0.066 -0.597,0.104 l -0.597,0.108 -0.606,0.07 c 1.427,3.416 3.309,6.644 5.661,9.712 M 320.42,97.181 c 0.915,0.242 1.842,0.456 2.79,0.649 0.473,0.095 0.953,0.186 1.433,0.268 0.473,0.078 0.95,0.15 1.432,0.216 3.883,0.54 7.866,0.584 11.971,0.147 -2.565,-3.142 -5.458,-5.882 -8.561,-8.172 -3.138,-2.3 -6.44,-4.14 -9.933,-5.535 l -0.071,0.592 -0.112,0.584 c -0.038,0.194 -0.06,0.391 -0.106,0.584 l -0.14,0.576 c 1.662,0.874 3.203,1.838 4.764,2.935 0.761,0.542 1.502,1.11 2.241,1.709 0.368,0.3 0.735,0.606 1.099,0.921 0.355,0.311 0.704,0.628 1.053,0.953 0.301,0.28 0.352,0.668 0.226,0.986 -0.12,0.32 -0.461,0.549 -0.874,0.54 -3.842,-0.087 -7.637,-0.695 -11.187,-1.716 -0.438,0.669 -0.885,1.335 -1.397,1.957 1.751,0.72 3.505,1.297 5.372,1.806 m -3.249,-5.009 c 2.533,0.556 5.135,0.888 7.8,0.988 -0.989,-0.89 -1.981,-1.718 -3.02,-2.501 -1.053,-0.787 -2.115,-1.515 -3.202,-2.19 l -0.328,0.95 c -0.116,0.314 -0.256,0.62 -0.373,0.935 -0.269,0.615 -0.554,1.225 -0.877,1.818 m 0.877,-18.474 c 0.117,0.315 0.257,0.621 0.373,0.935 l 0.328,0.951 c 1.087,-0.675 2.149,-1.403 3.202,-2.191 1.039,-0.783 2.031,-1.611 3.02,-2.501 -2.665,0.1 -5.267,0.432 -7.8,0.989 0.323,0.593 0.608,1.202 0.877,1.817 m 11.437,0.066 c 3.103,-2.291 5.996,-5.031 8.561,-8.173 -4.105,-0.437 -8.088,-0.393 -11.971,0.148 -0.482,0.065 -0.959,0.137 -1.432,0.215 -0.48,0.082 -0.96,0.173 -1.433,0.269 -0.948,0.192 -1.875,0.407 -2.79,0.649 -1.867,0.509 -3.621,1.085 -5.372,1.806 0.512,0.621 0.959,1.287 1.397,1.956 3.55,-1.021 7.345,-1.629 11.187,-1.716 0.413,-0.009 0.754,0.22 0.874,0.541 0.126,0.318 0.075,0.705 -0.226,0.986 -0.349,0.325 -0.698,0.641 -1.053,0.953 -0.364,0.314 -0.731,0.621 -1.099,0.92 -0.739,0.599 -1.48,1.167 -2.241,1.709 -1.561,1.097 -3.102,2.062 -4.764,2.935 l 0.14,0.577 c 0.046,0.192 0.068,0.39 0.106,0.584 l 0.112,0.583 0.071,0.592 c 3.493,-1.394 6.795,-3.235 9.933,-5.534 m -16.272,-7.135 0.255,0.268 c 8.577,-4.62 19.134,-6.558 30.136,-4.942 0.451,0.068 0.867,0.464 1.056,0.954 0.2,0.486 0.218,1.044 -0.054,1.405 -3.308,4.374 -7.18,8.056 -11.396,10.959 -4.21,2.906 -8.782,5.035 -13.489,6.385 l 0.015,0.368 -0.015,0.369 c 4.707,1.349 9.279,3.478 13.489,6.384 4.216,2.903 8.088,6.585 11.396,10.96 0.272,0.36 0.254,0.919 0.054,1.404 -0.189,0.49 -0.605,0.886 -1.056,0.954 -11.002,1.616 -21.559,-0.322 -30.136,-4.942 l -0.255,0.268 -0.274,0.249 c 4.725,8.387 6.707,18.708 5.054,29.466 -0.069,0.441 -0.475,0.847 -0.976,1.032 -0.496,0.196 -1.067,0.213 -1.436,-0.053 -4.474,-3.234 -8.24,-7.019 -11.209,-11.142 -2.972,-4.116 -5.15,-8.587 -6.53,-13.189 l -0.377,0.015 -0.377,-0.015 c -1.38,4.602 -3.558,9.073 -6.529,13.189 -2.97,4.123 -6.735,7.908 -11.209,11.142 -0.37,0.266 -0.941,0.249 -1.437,0.053 -0.501,-0.185 -0.906,-0.591 -0.976,-1.032 -1.653,-10.758 0.33,-21.079 5.055,-29.466 l -0.275,-0.249 -0.254,-0.268 c -8.578,4.62 -19.134,6.558 -30.137,4.942 -0.45,-0.068 -0.866,-0.464 -1.055,-0.954 -0.2,-0.485 -0.219,-1.044 0.054,-1.404 3.308,-4.375 7.179,-8.057 11.396,-10.96 4.21,-2.906 8.782,-5.035 13.488,-6.384 l -0.015,-0.369 0.015,-0.368 c -4.706,-1.35 -9.278,-3.479 -13.488,-6.385 -4.217,-2.903 -8.088,-6.585 -11.396,-10.959 -0.273,-0.361 -0.254,-0.919 -0.054,-1.405 0.189,-0.49 0.605,-0.886 1.055,-0.954 11.003,-1.616 21.559,0.322 30.137,4.942 l 0.254,-0.268 0.275,-0.249 c -4.725,-8.387 -6.708,-18.708 -5.055,-29.466 0.07,-0.44 0.475,-0.847 0.976,-1.031 0.496,-0.196 1.067,-0.214 1.437,0.052 4.474,3.234 8.239,7.019 11.209,11.142 2.971,4.116 5.149,8.587 6.529,13.189 l 0.377,-0.015 0.377,0.015 c 1.38,-4.602 3.558,-9.073 6.53,-13.189 2.969,-4.123 6.735,-7.908 11.209,-11.142 0.369,-0.266 0.94,-0.248 1.436,-0.052 0.501,0.184 0.907,0.591 0.976,1.031 1.653,10.758 -0.329,21.079 -5.054,29.466 z"
         id="path142" />
    </clipPath>
    <clipPath
       clipPathUnits="userSpaceOnUse"
       id="clipPath164">
      <path
         d="m 297.466,20.668 -0.001,0.001 -10e-4,-0.001 c -3.361,4.573 -6.223,9.352 -7.984,14.285 3.246,3.687 5.996,7.59 7.985,11.69 1.989,-4.1 4.74,-8.003 7.985,-11.69 -1.761,-4.933 -4.623,-9.712 -7.984,-14.285 m 8.011,18.885 c -0.614,0.714 -1.205,1.42 -1.774,2.147 -2.187,2.822 -4.011,5.726 -5.408,8.817 -0.17,0.373 -0.501,0.553 -0.83,0.542 -0.328,0.011 -0.659,-0.169 -0.83,-0.542 -1.397,-3.091 -3.221,-5.995 -5.408,-8.817 -0.568,-0.727 -1.159,-1.433 -1.774,-2.147 -0.614,-0.711 -1.252,-1.428 -1.9,-2.106 -0.77,-0.815 -1.506,-1.276 -1.448,-2.351 0.075,-1.413 0.941,-3.054 1.518,-4.426 0.634,-1.556 1.36,-3.129 2.169,-4.644 0.426,-0.805 0.873,-1.612 1.339,-2.419 0.466,-0.802 0.952,-1.579 1.454,-2.371 0.502,-0.788 1.019,-1.577 1.549,-2.365 0.53,-0.772 1.072,-1.541 1.622,-2.312 0.354,-0.496 1.033,-0.669 1.705,-0.624 h 0.004 0.005 c 0.671,-0.045 1.35,0.128 1.704,0.624 0.551,0.771 1.093,1.54 1.622,2.312 0.53,0.788 1.048,1.577 1.55,2.365 0.501,0.792 0.987,1.569 1.454,2.371 0.466,0.807 0.913,1.614 1.338,2.419 0.81,1.515 1.536,3.088 2.17,4.644 0.576,1.372 1.443,3.013 1.517,4.426 0.058,1.075 -0.677,1.536 -1.447,2.351 -0.649,0.678 -1.287,1.395 -1.901,2.106"
         id="path162" />
    </clipPath>
    <clipPath
       clipPathUnits="userSpaceOnUse"
       id="clipPath184">
      <path
         d="m 298.83,34.182 c -0.425,-0.793 -0.878,-1.584 -1.365,-2.37 v 10e-4 -10e-4 c -0.486,0.786 -0.94,1.577 -1.365,2.37 0.468,0.697 0.923,1.393 1.365,2.085 0.443,-0.692 0.897,-1.388 1.365,-2.085 m -2.483,5.176 c -0.591,-0.943 -1.228,-1.898 -1.885,-2.804 -0.449,-0.633 -1.303,-1.401 -1.415,-2.172 -0.101,-0.693 0.582,-1.539 0.918,-2.178 0.639,-1.242 1.356,-2.431 2.103,-3.625 0.298,-0.479 0.85,-0.65 1.395,-0.614 h 0.002 0.003 c 0.544,-0.036 1.096,0.135 1.395,0.614 0.746,1.194 1.464,2.383 2.102,3.625 0.337,0.639 1.02,1.485 0.919,2.178 -0.112,0.771 -0.966,1.539 -1.415,2.172 -0.658,0.906 -1.294,1.861 -1.885,2.804 -0.233,0.371 -0.677,0.548 -1.119,0.538 -0.442,0.01 -0.886,-0.167 -1.118,-0.538"
         id="path182" />
    </clipPath>
    <clipPath
       clipPathUnits="userSpaceOnUse"
       id="clipPath204">
      <path
         d="m 269.073,43.222 c -4.814,-2.277 -10.291,-3.687 -15.982,-4.584 v 0.002 h -0.001 c 0.917,5.564 2.358,10.919 4.688,15.626 4.955,0.361 9.725,1.21 14.098,2.741 -1.566,-4.276 -2.434,-8.94 -2.803,-13.785 m 5.018,17.095 c -3.215,-1.218 -6.618,-2.014 -10.196,-2.49 -1.843,-0.232 -3.768,-0.399 -5.674,-0.466 -1.138,-0.047 -1.997,0.132 -2.731,-0.667 -0.963,-1.046 -1.531,-2.8 -2.129,-4.176 -0.665,-1.528 -1.301,-3.149 -1.827,-4.78 -0.557,-1.719 -1.076,-3.519 -1.492,-5.315 -0.214,-0.903 -0.417,-1.817 -0.611,-2.74 -0.193,-0.922 -0.357,-1.835 -0.526,-2.764 -0.108,-0.596 0.25,-1.19 0.76,-1.624 l 0.002,-0.003 0.004,-0.003 c 0.443,-0.498 1.05,-0.847 1.66,-0.742 0.95,0.165 1.884,0.326 2.827,0.514 0.944,0.19 1.879,0.388 2.803,0.598 1.836,0.406 3.677,0.914 5.436,1.458 1.668,0.515 3.325,1.136 4.888,1.787 1.407,0.585 3.201,1.14 4.271,2.082 0.817,0.717 0.634,1.557 0.683,2.67 0.068,1.863 0.239,3.745 0.477,5.547 0.486,3.499 1.3,6.825 2.546,9.969 0.149,0.382 0.046,0.738 -0.192,0.957 -0.225,0.234 -0.589,0.334 -0.979,0.188"
         id="path202" />
    </clipPath>
    <clipPath
       clipPathUnits="userSpaceOnUse"
       id="clipPath224">
      <path
         d="m 261.896,49.139 c 0.836,0.169 1.661,0.347 2.476,0.531 -0.188,-0.797 -0.37,-1.604 -0.543,-2.421 -0.874,-0.266 -1.766,-0.511 -2.679,-0.729 h 0.001 -0.001 c 0.223,0.892 0.474,1.765 0.746,2.619 m -3.53,-5.338 0.002,-0.002 0.002,-0.002 c 0.359,-0.403 0.873,-0.665 1.431,-0.533 0.697,0.164 1.388,0.332 2.07,0.511 0.689,0.186 1.373,0.386 2.042,0.599 0.699,0.218 1.792,0.343 2.221,0.902 0.478,0.624 0.431,1.76 0.573,2.52 0.192,1.098 0.422,2.204 0.69,3.284 0.104,0.424 -0.081,0.857 -0.401,1.156 -0.305,0.312 -0.748,0.493 -1.181,0.392 -1.105,-0.263 -2.236,-0.487 -3.36,-0.676 -0.777,-0.138 -1.939,-0.092 -2.576,-0.56 -0.573,-0.419 -0.7,-1.488 -0.923,-2.171 -0.218,-0.655 -0.422,-1.323 -0.613,-1.997 -0.182,-0.666 -0.355,-1.342 -0.523,-2.023 -0.135,-0.546 0.134,-1.048 0.546,-1.4"
         id="path222" />
    </clipPath>
    <clipPath
       clipPathUnits="userSpaceOnUse"
       id="clipPath244">
      <path
         d="m 234.71,82.025 0.001,10e-4 -0.001,0.001 c 4.678,3.286 9.565,6.084 14.61,7.807 3.771,-3.174 7.763,-5.863 11.957,-7.808 -4.194,-1.944 -8.186,-4.634 -11.957,-7.807 -5.045,1.722 -9.932,4.52 -14.61,7.806 m 17.161,-9.691 c 0.693,0.634 1.427,1.258 2.154,1.859 0.73,0.6 1.452,1.178 2.196,1.734 2.886,2.138 5.857,3.922 9.018,5.288 0.381,0.166 0.565,0.49 0.554,0.811 0.011,0.322 -0.173,0.645 -0.554,0.812 -3.161,1.366 -6.132,3.149 -9.018,5.287 -0.744,0.556 -1.466,1.134 -2.196,1.735 -0.727,0.6 -1.461,1.224 -2.154,1.858 -0.833,0.753 -1.305,1.472 -2.405,1.415 -1.444,-0.073 -3.124,-0.92 -4.526,-1.483 -1.591,-0.62 -3.201,-1.33 -4.75,-2.122 -0.824,-0.416 -1.648,-0.853 -2.473,-1.308 -0.821,-0.456 -1.616,-0.932 -2.426,-1.422 -0.806,-0.491 -1.613,-0.997 -2.419,-1.515 -0.789,-0.518 -1.576,-1.048 -2.365,-1.586 -0.507,-0.346 -0.684,-1.01 -0.638,-1.667 v -0.004 -0.004 c -0.046,-0.657 0.131,-1.321 0.638,-1.667 0.789,-0.538 1.576,-1.068 2.365,-1.585 0.806,-0.519 1.613,-1.025 2.419,-1.516 0.81,-0.49 1.605,-0.965 2.426,-1.421 0.825,-0.456 1.649,-0.893 2.473,-1.309 1.549,-0.791 3.159,-1.501 4.75,-2.121 1.402,-0.564 3.082,-1.411 4.526,-1.484 1.1,-0.057 1.572,0.662 2.405,1.415"
         id="path242" />
    </clipPath>
    <clipPath
       clipPathUnits="userSpaceOnUse"
       id="clipPath264">
      <path
         d="m 248.532,80.692 c -0.812,0.415 -1.62,0.858 -2.424,1.334 h 0.001 -0.001 c 0.804,0.476 1.612,0.919 2.424,1.335 0.712,-0.458 1.424,-0.902 2.133,-1.335 -0.709,-0.433 -1.421,-0.877 -2.133,-1.334 m 5.293,2.428 c -0.964,0.577 -1.94,1.2 -2.867,1.843 -0.648,0.439 -1.433,1.274 -2.222,1.383 -0.708,0.099 -1.574,-0.569 -2.227,-0.898 -1.27,-0.624 -2.486,-1.325 -3.708,-2.056 -0.49,-0.292 -0.664,-0.831 -0.628,-1.363 v -0.003 -0.002 c -0.036,-0.533 0.138,-1.072 0.628,-1.364 1.222,-0.73 2.438,-1.431 3.708,-2.056 0.653,-0.329 1.519,-0.997 2.227,-0.898 0.789,0.11 1.574,0.944 2.222,1.383 0.927,0.643 1.903,1.266 2.867,1.844 0.38,0.227 0.562,0.661 0.551,1.093 0.011,0.432 -0.171,0.866 -0.551,1.094"
         id="path262" />
    </clipPath>
    <clipPath
       clipPathUnits="userSpaceOnUse"
       id="clipPath284">
      <path
         d="m 253.091,125.414 c 5.691,-0.897 11.168,-2.306 15.982,-4.584 0.369,-4.845 1.237,-9.509 2.803,-13.784 -4.373,1.531 -9.143,2.38 -14.098,2.74 -2.33,4.707 -3.771,10.062 -4.688,15.626 h 0.001 z m -3.66,-1.044 c 0.194,-0.923 0.397,-1.838 0.611,-2.741 0.416,-1.796 0.935,-3.596 1.492,-5.315 0.526,-1.631 1.162,-3.251 1.827,-4.779 0.598,-1.376 1.166,-3.131 2.129,-4.176 0.734,-0.799 1.593,-0.621 2.731,-0.668 1.906,-0.067 3.831,-0.234 5.674,-0.466 3.578,-0.476 6.981,-1.272 10.196,-2.489 0.39,-0.147 0.754,-0.046 0.979,0.187 0.238,0.22 0.341,0.575 0.192,0.957 -1.246,3.144 -2.06,6.47 -2.546,9.969 -0.238,1.802 -0.409,3.684 -0.477,5.547 -0.049,1.114 0.134,1.953 -0.683,2.671 -1.07,0.941 -2.864,1.496 -4.271,2.082 -1.563,0.65 -3.22,1.271 -4.888,1.786 -1.759,0.544 -3.6,1.052 -5.436,1.459 -0.924,0.209 -1.859,0.407 -2.803,0.597 -0.943,0.189 -1.877,0.349 -2.827,0.514 -0.61,0.106 -1.217,-0.244 -1.66,-0.742 l -0.004,-0.003 -0.002,-0.003 c -0.51,-0.434 -0.868,-1.028 -0.76,-1.623 0.169,-0.93 0.333,-1.843 0.526,-2.764"
         id="path282" />
    </clipPath>
    <clipPath
       clipPathUnits="userSpaceOnUse"
       id="clipPath304">
      <path
         d="m 261.15,117.533 c 0.913,-0.218 1.805,-0.463 2.679,-0.73 0.173,-0.817 0.355,-1.624 0.543,-2.42 -0.815,0.183 -1.64,0.361 -2.476,0.53 -0.272,0.855 -0.523,1.727 -0.746,2.62 l 0.001,-0.001 z m -2.807,-0.705 c 0.191,-0.674 0.395,-1.342 0.613,-1.996 0.223,-0.684 0.35,-1.753 0.923,-2.172 0.637,-0.468 1.799,-0.422 2.576,-0.56 1.124,-0.189 2.255,-0.413 3.36,-0.675 0.433,-0.102 0.876,0.079 1.181,0.392 0.32,0.298 0.505,0.731 0.401,1.155 -0.268,1.081 -0.498,2.186 -0.69,3.285 -0.142,0.76 -0.095,1.896 -0.573,2.519 -0.429,0.56 -1.522,0.684 -2.221,0.902 -0.669,0.213 -1.353,0.413 -2.042,0.599 -0.682,0.179 -1.373,0.347 -2.07,0.511 -0.558,0.132 -1.072,-0.13 -1.431,-0.533 l -0.002,-0.002 -0.002,-0.002 c -0.412,-0.351 -0.681,-0.854 -0.546,-1.399 0.168,-0.682 0.341,-1.357 0.523,-2.024"
         id="path302" />
    </clipPath>
    <clipPath
       clipPathUnits="userSpaceOnUse"
       id="clipPath324">
      <path
         d="m 297.464,143.385 10e-4,-0.002 0.001,0.002 c 3.361,-4.574 6.223,-9.352 7.984,-14.285 -3.245,-3.688 -5.996,-7.591 -7.985,-11.691 -1.989,4.1 -4.739,8.003 -7.985,11.691 1.761,4.933 4.623,9.711 7.984,14.285 M 289.453,124.5 c 0.615,-0.715 1.206,-1.42 1.774,-2.148 2.187,-2.822 4.011,-5.726 5.408,-8.816 0.171,-0.373 0.502,-0.553 0.83,-0.543 0.329,-0.01 0.66,0.17 0.83,0.543 1.397,3.09 3.221,5.994 5.408,8.816 0.569,0.728 1.16,1.433 1.774,2.148 0.614,0.71 1.252,1.428 1.901,2.105 0.77,0.815 1.505,1.276 1.447,2.352 -0.074,1.412 -0.941,3.054 -1.517,4.425 -0.634,1.556 -1.36,3.13 -2.17,4.644 -0.425,0.806 -0.872,1.612 -1.338,2.419 -0.467,0.802 -0.953,1.58 -1.454,2.371 -0.502,0.789 -1.02,1.577 -1.55,2.365 -0.529,0.772 -1.071,1.541 -1.622,2.313 -0.354,0.496 -1.033,0.668 -1.704,0.623 l -0.005,0.001 -0.004,-0.001 c -0.672,0.045 -1.351,-0.127 -1.705,-0.623 -0.55,-0.772 -1.092,-1.541 -1.622,-2.313 -0.53,-0.788 -1.047,-1.576 -1.549,-2.365 -0.502,-0.791 -0.988,-1.569 -1.454,-2.371 -0.466,-0.807 -0.913,-1.613 -1.339,-2.419 -0.809,-1.514 -1.535,-3.088 -2.169,-4.644 -0.577,-1.371 -1.443,-3.013 -1.518,-4.425 -0.058,-1.076 0.678,-1.537 1.448,-2.352 0.648,-0.677 1.286,-1.395 1.9,-2.105"
         id="path322" />
    </clipPath>
    <clipPath
       clipPathUnits="userSpaceOnUse"
       id="clipPath344">
      <path
         d="m 296.1,129.87 c 0.425,0.794 0.879,1.584 1.365,2.37 v 0 0 c 0.487,-0.786 0.94,-1.576 1.365,-2.37 -0.468,-0.697 -0.922,-1.392 -1.365,-2.085 -0.442,0.693 -0.897,1.388 -1.365,2.085 m 2.484,-5.176 c 0.591,0.943 1.227,1.898 1.885,2.804 0.449,0.633 1.303,1.401 1.415,2.173 0.101,0.692 -0.582,1.539 -0.919,2.177 -0.638,1.242 -1.356,2.431 -2.102,3.625 -0.299,0.48 -0.851,0.65 -1.395,0.614 h -0.003 -0.002 c -0.545,0.036 -1.097,-0.134 -1.395,-0.614 -0.747,-1.194 -1.464,-2.383 -2.103,-3.625 -0.336,-0.638 -1.019,-1.485 -0.918,-2.177 0.112,-0.772 0.966,-1.54 1.415,-2.173 0.657,-0.906 1.294,-1.861 1.885,-2.804 0.232,-0.371 0.676,-0.548 1.118,-0.538 0.442,-0.01 0.886,0.167 1.119,0.538"
         id="path342" />
    </clipPath>
    <clipPath
       clipPathUnits="userSpaceOnUse"
       id="clipPath364">
      <path
         d="m 325.857,120.83 c 4.814,2.278 10.291,3.687 15.982,4.584 v -0.002 h 0.002 c -0.917,-5.564 -2.359,-10.919 -4.688,-15.626 -4.956,-0.36 -9.725,-1.209 -14.099,-2.74 1.566,4.275 2.435,8.939 2.803,13.784 m -5.018,-17.094 c 3.216,1.217 6.618,2.013 10.196,2.489 1.844,0.232 3.768,0.399 5.674,0.466 1.139,0.047 1.997,-0.131 2.731,0.668 0.963,1.045 1.531,2.8 2.13,4.176 0.665,1.528 1.3,3.148 1.827,4.779 0.556,1.719 1.076,3.519 1.491,5.315 0.215,0.903 0.418,1.818 0.612,2.741 0.192,0.921 0.357,1.834 0.526,2.764 0.107,0.595 -0.25,1.189 -0.76,1.623 l -0.003,0.003 -0.003,0.003 c -0.444,0.498 -1.051,0.848 -1.66,0.742 -0.951,-0.165 -1.884,-0.325 -2.827,-0.514 -0.944,-0.19 -1.879,-0.388 -2.803,-0.597 -1.837,-0.407 -3.678,-0.915 -5.436,-1.459 -1.668,-0.515 -3.326,-1.136 -4.888,-1.786 -1.408,-0.586 -3.202,-1.141 -4.271,-2.082 -0.818,-0.718 -0.635,-1.557 -0.683,-2.671 -0.068,-1.863 -0.239,-3.745 -0.477,-5.547 -0.487,-3.499 -1.301,-6.825 -2.546,-9.969 -0.15,-0.382 -0.047,-0.737 0.192,-0.957 0.224,-0.233 0.588,-0.334 0.978,-0.187"
         id="path362" />
    </clipPath>
    <clipPath
       clipPathUnits="userSpaceOnUse"
       id="clipPath384">
      <path
         d="m 333.034,114.913 c -0.836,-0.169 -1.661,-0.347 -2.476,-0.53 0.188,0.796 0.37,1.603 0.543,2.42 0.874,0.267 1.766,0.512 2.679,0.73 v -0.001 0.001 c -0.223,-0.893 -0.473,-1.765 -0.746,-2.62 m 3.53,5.338 -0.001,0.002 -0.002,0.002 c -0.36,0.403 -0.874,0.665 -1.432,0.533 -0.697,-0.164 -1.388,-0.332 -2.069,-0.511 -0.69,-0.186 -1.373,-0.386 -2.042,-0.599 -0.699,-0.218 -1.792,-0.342 -2.222,-0.902 -0.478,-0.623 -0.431,-1.759 -0.572,-2.519 -0.193,-1.099 -0.422,-2.204 -0.691,-3.285 -0.104,-0.424 0.081,-0.857 0.401,-1.155 0.306,-0.313 0.748,-0.494 1.182,-0.392 1.105,0.262 2.235,0.486 3.359,0.675 0.777,0.138 1.939,0.092 2.577,0.56 0.572,0.419 0.699,1.488 0.923,2.172 0.217,0.654 0.422,1.322 0.612,1.996 0.183,0.667 0.355,1.342 0.523,2.024 0.135,0.545 -0.133,1.048 -0.546,1.399"
         id="path382" />
    </clipPath>
    <clipPath
       clipPathUnits="userSpaceOnUse"
       id="clipPath404">
      <path
         d="m 348.822,82.026 c -0.803,-0.476 -1.612,-0.919 -2.423,-1.334 -0.713,0.457 -1.425,0.901 -2.133,1.334 0.708,0.433 1.42,0.877 2.133,1.335 0.811,-0.416 1.62,-0.859 2.423,-1.335 z m 3.307,1.366 c -1.221,0.731 -2.437,1.432 -3.707,2.056 -0.654,0.329 -1.519,0.997 -2.227,0.898 -0.789,-0.109 -1.575,-0.944 -2.223,-1.383 -0.926,-0.643 -1.902,-1.266 -2.867,-1.843 -0.379,-0.228 -0.561,-0.662 -0.55,-1.094 -0.011,-0.432 0.171,-0.866 0.55,-1.093 0.965,-0.578 1.941,-1.201 2.867,-1.844 0.648,-0.439 1.434,-1.273 2.223,-1.383 0.708,-0.099 1.573,0.569 2.227,0.898 1.27,0.625 2.486,1.326 3.707,2.056 0.491,0.292 0.665,0.831 0.628,1.364 v 0.002 0.003 c 0.037,0.532 -0.137,1.071 -0.628,1.363"
         id="path402" />
    </clipPath>
  </defs>
  <sodipodi:namedview
     id="namedview4"
     pagecolor="#ffffff"
     bordercolor="#000000"
     borderopacity="0.25"
     inkscape:showpageshadow="2"
     inkscape:pageopacity="0.0"
     inkscape:pagecheckerboard="0"
     inkscape:deskcolor="#d1d1d1"
     showgrid="false" />
  <g
     id="g10"
     inkscape:groupmode="layer"
     inkscape:label="Page 1"
     transform="matrix(1.3333333,0,0,-1.3333333,-164.31252,205.00649)">
    <g
       id="g46"
       transform="translate(-18.099609,5.6309895)">
      <g
         id="g48"
         clip-path="url(#clipPath52)">
        <g
           id="g54">
          <g
             id="g56" />
          <g
             id="g604">
            <g
               clip-path="url(#clipPath60)"
               opacity="0.199997"
               id="g602"
               inkscape:export-filename="logo-300x293.png"
               inkscape:export-xdpi="159.75623"
               inkscape:export-ydpi="159.75623"
               style="fill:#dcb954;fill-opacity:1">
              <g
                 id="g430"
                 style="fill:#dcb954;fill-opacity:1">
                <g
                   clip-path="url(#clipPath64)"
                   id="g428"
                   style="fill:#dcb954;fill-opacity:1">
                  <g
                     id="g426"
                     style="fill:#dcb954;fill-opacity:1">
                    <g
                       id="g424"
                       style="fill:#dcb954;fill-opacity:1">
                      <path
                         d="m 345.611,74.219 c -3.772,3.173 -7.764,5.863 -11.957,7.807 4.193,1.945 8.185,4.634 11.957,7.808 5.045,-1.723 9.932,-4.521 14.61,-7.807 l -10e-4,-0.001 10e-4,-10e-4 c -4.678,-3.286 -9.565,-6.084 -14.61,-7.806 m 19.451,7.807 -0.001,0.004 c 0.046,0.657 -0.131,1.321 -0.638,1.667 -0.789,0.538 -1.576,1.068 -2.365,1.586 -0.806,0.518 -1.612,1.024 -2.419,1.515 -0.809,0.49 -1.604,0.966 -2.425,1.422 -0.825,0.455 -1.65,0.892 -2.474,1.308 -1.549,0.792 -3.158,1.502 -4.75,2.122 -1.402,0.563 -3.081,1.41 -4.526,1.483 -1.099,0.057 -1.571,-0.662 -2.405,-1.415 -0.693,-0.634 -1.426,-1.258 -2.153,-1.858 -0.731,-0.601 -1.452,-1.179 -2.197,-1.735 -2.886,-2.138 -5.856,-3.921 -9.017,-5.287 -0.381,-0.167 -0.565,-0.49 -0.555,-0.812 -0.01,-0.321 0.174,-0.645 0.555,-0.811 3.161,-1.366 6.131,-3.15 9.017,-5.288 0.745,-0.556 1.466,-1.134 2.197,-1.734 0.727,-0.601 1.46,-1.225 2.153,-1.859 0.834,-0.753 1.306,-1.472 2.405,-1.415 1.445,0.073 3.124,0.92 4.526,1.484 1.592,0.62 3.201,1.33 4.75,2.121 0.824,0.416 1.649,0.853 2.474,1.309 0.821,0.456 1.616,0.931 2.425,1.421 0.807,0.491 1.613,0.997 2.419,1.516 0.789,0.517 1.576,1.047 2.365,1.585 0.507,0.346 0.684,1.01 0.638,1.667 z"
                         style="fill:#dcb954;fill-opacity:1;stroke:none"
                         id="path422" />
                    </g>
                  </g>
                </g>
              </g>
              <g
                 id="g440"
                 style="fill:#dcb954;fill-opacity:1">
                <g
                   clip-path="url(#clipPath84)"
                   id="g438"
                   style="fill:#dcb954;fill-opacity:1">
                  <g
                     id="g436"
                     style="fill:#dcb954;fill-opacity:1">
                    <g
                       id="g434"
                       style="fill:#dcb954;fill-opacity:1">
                      <path
                         d="m 341.839,38.638 c -5.691,0.897 -11.168,2.307 -15.982,4.584 -0.368,4.845 -1.237,9.509 -2.803,13.785 4.374,-1.531 9.143,-2.38 14.099,-2.741 2.329,-4.707 3.771,-10.062 4.688,-15.626 h -0.002 z m 3.661,1.045 c -0.194,0.923 -0.397,1.837 -0.612,2.74 -0.415,1.796 -0.935,3.596 -1.491,5.315 -0.527,1.631 -1.162,3.252 -1.827,4.78 -0.599,1.376 -1.167,3.13 -2.13,4.176 -0.734,0.799 -1.592,0.62 -2.731,0.667 -1.906,0.067 -3.83,0.234 -5.674,0.466 -3.578,0.476 -6.98,1.272 -10.196,2.49 -0.39,0.146 -0.754,0.046 -0.978,-0.188 -0.239,-0.219 -0.342,-0.575 -0.192,-0.957 1.245,-3.144 2.059,-6.47 2.546,-9.969 0.238,-1.802 0.409,-3.684 0.477,-5.547 0.048,-1.113 -0.135,-1.953 0.683,-2.67 1.069,-0.942 2.863,-1.497 4.271,-2.082 1.562,-0.651 3.22,-1.272 4.888,-1.787 1.758,-0.544 3.599,-1.052 5.436,-1.458 0.924,-0.21 1.859,-0.408 2.803,-0.598 0.943,-0.188 1.876,-0.349 2.827,-0.514 0.609,-0.105 1.216,0.244 1.66,0.742 l 0.003,0.003 0.003,0.003 c 0.51,0.434 0.867,1.028 0.76,1.624 -0.169,0.929 -0.334,1.842 -0.526,2.764"
                         style="fill:#dcb954;fill-opacity:1;stroke:none"
                         id="path432" />
                    </g>
                  </g>
                </g>
              </g>
              <g
                 id="g450"
                 style="fill:#dcb954;fill-opacity:1">
                <g
                   clip-path="url(#clipPath104)"
                   id="g448"
                   style="fill:#dcb954;fill-opacity:1">
                  <g
                     id="g446"
                     style="fill:#dcb954;fill-opacity:1">
                    <g
                       id="g444"
                       style="fill:#dcb954;fill-opacity:1">
                      <path
                         d="m 333.78,46.52 c -0.913,0.218 -1.805,0.463 -2.679,0.729 -0.173,0.817 -0.355,1.624 -0.543,2.421 0.815,-0.184 1.64,-0.362 2.476,-0.531 0.273,-0.854 0.523,-1.727 0.746,-2.619 z m 2.807,0.704 c -0.19,0.674 -0.395,1.342 -0.612,1.997 -0.224,0.683 -0.351,1.752 -0.923,2.171 -0.638,0.468 -1.8,0.422 -2.577,0.56 -1.124,0.189 -2.254,0.413 -3.359,0.676 -0.434,0.101 -0.876,-0.08 -1.182,-0.392 -0.32,-0.299 -0.505,-0.732 -0.401,-1.156 0.269,-1.08 0.498,-2.186 0.691,-3.284 0.141,-0.76 0.094,-1.896 0.572,-2.52 0.43,-0.559 1.523,-0.684 2.222,-0.902 0.669,-0.213 1.352,-0.413 2.042,-0.599 0.681,-0.179 1.372,-0.347 2.069,-0.511 0.558,-0.132 1.072,0.13 1.432,0.533 l 0.002,0.002 0.001,0.002 c 0.413,0.352 0.681,0.854 0.546,1.4 -0.168,0.681 -0.34,1.357 -0.523,2.023"
                         style="fill:#dcb954;fill-opacity:1;stroke:none"
                         id="path442" />
                    </g>
                  </g>
                </g>
              </g>
              <g
                 id="g460"
                 style="fill:#dcb954;fill-opacity:1">
                <g
                   clip-path="url(#clipPath124)"
                   id="g458"
                   style="fill:#dcb954;fill-opacity:1">
                  <g
                     id="g456"
                     style="fill:#dcb954;fill-opacity:1">
                    <g
                       id="g454"
                       style="fill:#dcb954;fill-opacity:1">
                      <path
                         d="m 303.576,67.575 c -1.917,-0.775 -3.949,-1.174 -6.111,-1.182 -2.161,0.008 -4.194,0.407 -6.111,1.182 -1.911,0.772 -3.697,1.934 -5.195,3.397 -1.496,1.464 -2.685,3.21 -3.474,5.079 -0.792,1.874 -1.201,3.862 -1.209,5.975 0.008,2.114 0.417,4.101 1.209,5.975 0.789,1.869 1.978,3.615 3.474,5.08 1.498,1.462 3.284,2.624 5.195,3.397 1.917,0.774 3.95,1.173 6.111,1.181 2.162,-0.008 4.194,-0.407 6.111,-1.181 1.912,-0.773 3.698,-1.935 5.195,-3.397 1.496,-1.465 2.685,-3.211 3.475,-5.08 0.792,-1.874 1.2,-3.861 1.209,-5.975 -0.009,-2.113 -0.417,-4.101 -1.209,-5.975 -0.79,-1.869 -1.979,-3.615 -3.475,-5.079 -1.497,-1.463 -3.283,-2.625 -5.195,-3.397 m 10.856,7.59 c 0.912,2.155 1.381,4.451 1.389,6.861 -0.008,2.41 -0.477,4.706 -1.389,6.862 -0.91,2.15 -2.274,4.151 -3.987,5.829 -1.716,1.675 -3.762,3.009 -5.962,3.898 -2.205,0.892 -4.553,1.35 -7.018,1.358 -2.465,-0.008 -4.813,-0.466 -7.017,-1.358 -2.2,-0.889 -4.247,-2.223 -5.962,-3.898 -1.714,-1.678 -3.078,-3.679 -3.987,-5.829 -0.912,-2.156 -1.382,-4.452 -1.39,-6.862 0.008,-2.41 0.478,-4.706 1.39,-6.861 0.909,-2.151 2.273,-4.152 3.987,-5.829 1.715,-1.676 3.762,-3.01 5.962,-3.899 2.204,-0.891 4.552,-1.35 7.017,-1.358 2.465,0.008 4.813,0.467 7.018,1.358 2.2,0.889 4.246,2.223 5.962,3.899 1.713,1.677 3.077,3.678 3.987,5.829"
                         style="fill:#dcb954;fill-opacity:1;stroke:none"
                         id="path452" />
                    </g>
                  </g>
                </g>
              </g>
              <g
                 id="g470"
                 style="fill:#dcb954;fill-opacity:1">
                <g
                   clip-path="url(#clipPath144)"
                   id="g468"
                   style="fill:#dcb954;fill-opacity:1">
                  <g
                     id="g466"
                     style="fill:#dcb954;fill-opacity:1">
                    <g
                       id="g464"
                       style="fill:#dcb954;fill-opacity:1">
                      <path
                         d="m 312.965,59.582 c 0.247,-0.894 0.467,-1.8 0.664,-2.727 0.097,-0.463 0.19,-0.933 0.274,-1.402 0.08,-0.462 0.154,-0.929 0.221,-1.399 0.553,-3.797 0.597,-7.692 0.151,-11.705 -3.214,2.507 -6.016,5.337 -8.359,8.371 -2.352,3.067 -4.234,6.295 -5.661,9.711 l 0.606,0.07 0.597,0.109 c 0.198,0.037 0.4,0.059 0.597,0.104 l 0.589,0.137 c 0.894,-1.626 1.881,-3.132 3.002,-4.659 0.555,-0.743 1.135,-1.468 1.748,-2.19 0.307,-0.361 0.62,-0.719 0.942,-1.075 0.318,-0.347 0.642,-0.689 0.975,-1.03 0.286,-0.294 0.683,-0.344 1.008,-0.22 0.328,0.117 0.562,0.45 0.552,0.854 -0.088,3.757 -0.71,7.467 -1.754,10.937 0.684,0.429 1.365,0.866 2.001,1.366 0.736,-1.712 1.326,-3.426 1.847,-5.252 m -4.112,-4.449 c -0.911,0.967 -1.758,1.936 -2.558,2.953 -0.806,1.029 -1.55,2.067 -2.24,3.131 l 0.971,0.32 c 0.322,0.114 0.635,0.25 0.956,0.364 0.63,0.264 1.253,0.543 1.86,0.858 0.569,-2.476 0.909,-5.021 1.011,-7.626 m -11.388,7.432 c -2.664,0.007 -5.218,0.505 -7.611,1.474 -2.388,0.965 -4.605,2.412 -6.463,4.226 -1.856,1.816 -3.335,3.984 -4.323,6.32 -0.99,2.339 -1.499,4.837 -1.507,7.441 0.008,2.605 0.517,5.102 1.507,7.441 0.988,2.336 2.467,4.504 4.323,6.32 1.858,1.815 4.075,3.261 6.463,4.226 2.393,0.969 4.947,1.467 7.611,1.474 2.664,-0.007 5.218,-0.505 7.611,-1.474 2.389,-0.965 4.606,-2.411 6.464,-4.226 1.855,-1.816 3.335,-3.984 4.322,-6.32 0.991,-2.339 1.5,-4.836 1.508,-7.441 -0.008,-2.604 -0.517,-5.102 -1.508,-7.441 -0.987,-2.336 -2.467,-4.504 -4.322,-6.32 -1.858,-1.814 -4.075,-3.261 -6.464,-4.226 -2.393,-0.969 -4.947,-1.467 -7.611,-1.474 m -11.387,-7.432 c 0.102,2.605 0.441,5.15 1.011,7.626 0.606,-0.315 1.229,-0.594 1.859,-0.858 0.322,-0.114 0.634,-0.25 0.956,-0.364 l 0.972,-0.32 c -0.69,-1.064 -1.435,-2.102 -2.24,-3.131 -0.801,-1.017 -1.648,-1.986 -2.558,-2.953 m 2.937,-4.413 c -2.343,-3.034 -5.145,-5.864 -8.359,-8.371 -0.447,4.013 -0.402,7.908 0.151,11.705 0.067,0.47 0.14,0.937 0.22,1.399 0.084,0.469 0.177,0.939 0.275,1.402 0.197,0.927 0.416,1.833 0.664,2.727 0.52,1.826 1.11,3.54 1.847,5.252 0.635,-0.5 1.317,-0.937 2.001,-1.366 -1.045,-3.47 -1.666,-7.18 -1.755,-10.937 -0.009,-0.404 0.225,-0.737 0.553,-0.854 0.325,-0.124 0.721,-0.074 1.008,0.22 0.332,0.341 0.656,0.683 0.975,1.03 0.321,0.356 0.635,0.714 0.941,1.075 0.613,0.722 1.194,1.447 1.748,2.19 1.122,1.527 2.109,3.033 3.002,4.659 l 0.589,-0.137 c 0.197,-0.045 0.4,-0.067 0.598,-0.104 l 0.597,-0.109 0.605,-0.07 c -1.426,-3.416 -3.308,-6.644 -5.66,-9.711 m -14.504,16.152 c -0.915,-0.242 -1.842,-0.457 -2.79,-0.649 -0.474,-0.096 -0.954,-0.187 -1.434,-0.269 -0.473,-0.078 -0.95,-0.15 -1.431,-0.215 -3.883,-0.541 -7.867,-0.585 -11.971,-0.148 2.564,3.142 5.458,5.882 8.561,8.173 3.137,2.299 6.439,4.14 9.933,5.534 l 0.071,-0.592 0.111,-0.583 c 0.039,-0.194 0.061,-0.392 0.107,-0.584 l 0.14,-0.577 c -1.662,-0.873 -3.203,-1.838 -4.765,-2.935 -0.76,-0.542 -1.501,-1.11 -2.24,-1.709 -0.369,-0.299 -0.735,-0.606 -1.099,-0.92 -0.356,-0.312 -0.705,-0.628 -1.053,-0.953 -0.302,-0.281 -0.353,-0.668 -0.226,-0.986 0.12,-0.321 0.461,-0.55 0.873,-0.541 3.843,0.087 7.638,0.695 11.187,1.716 0.438,-0.669 0.885,-1.335 1.397,-1.956 -1.751,-0.721 -3.505,-1.297 -5.371,-1.806 m 3.249,5.009 c -2.533,-0.557 -5.136,-0.889 -7.8,-0.989 0.989,0.89 1.98,1.718 3.02,2.501 1.053,0.788 2.115,1.516 3.202,2.191 l 0.328,-0.951 c 0.116,-0.314 0.256,-0.62 0.372,-0.935 0.27,-0.615 0.555,-1.224 0.878,-1.817 m -0.878,18.473 c -0.116,-0.315 -0.256,-0.621 -0.372,-0.935 l -0.328,-0.95 c -1.087,0.675 -2.149,1.403 -3.202,2.19 -1.04,0.783 -2.031,1.611 -3.02,2.501 2.664,-0.1 5.267,-0.432 7.8,-0.988 -0.323,-0.593 -0.608,-1.203 -0.878,-1.818 m -11.436,-0.065 c -3.103,2.29 -5.997,5.03 -8.561,8.172 4.104,0.437 8.088,0.393 11.971,-0.147 0.481,-0.066 0.958,-0.138 1.431,-0.216 0.48,-0.082 0.96,-0.173 1.434,-0.268 0.948,-0.193 1.875,-0.407 2.79,-0.649 1.866,-0.509 3.62,-1.086 5.371,-1.806 -0.512,-0.622 -0.959,-1.288 -1.397,-1.957 -3.549,1.021 -7.344,1.629 -11.187,1.716 -0.412,0.009 -0.753,-0.22 -0.873,-0.54 -0.127,-0.318 -0.076,-0.706 0.226,-0.986 0.348,-0.325 0.697,-0.642 1.053,-0.953 0.364,-0.315 0.73,-0.621 1.099,-0.921 0.739,-0.599 1.48,-1.167 2.24,-1.709 1.562,-1.097 3.103,-2.061 4.765,-2.935 l -0.14,-0.576 c -0.046,-0.193 -0.068,-0.39 -0.107,-0.584 l -0.111,-0.584 -0.071,-0.592 c -3.494,1.395 -6.796,3.235 -9.933,5.535 m 25.43,12.547 -0.972,-0.321 c -0.322,-0.113 -0.634,-0.25 -0.956,-0.364 -0.63,-0.263 -1.253,-0.542 -1.859,-0.858 -0.57,2.477 -0.909,5.021 -1.011,7.626 0.91,-0.967 1.757,-1.936 2.558,-2.952 0.805,-1.03 1.55,-2.068 2.24,-3.131 m -8.91,1.634 c -0.248,0.894 -0.467,1.8 -0.664,2.728 -0.098,0.462 -0.191,0.932 -0.275,1.401 -0.08,0.462 -0.153,0.929 -0.22,1.4 -0.553,3.796 -0.598,7.691 -0.151,11.704 3.214,-2.507 6.016,-5.336 8.359,-8.37 2.352,-3.068 4.234,-6.296 5.66,-9.712 l -0.605,-0.07 -0.597,-0.108 c -0.198,-0.038 -0.401,-0.06 -0.598,-0.104 l -0.589,-0.137 c -0.893,1.625 -1.88,3.131 -3.002,4.658 -0.554,0.743 -1.135,1.468 -1.748,2.19 -0.306,0.361 -0.62,0.719 -0.941,1.075 -0.319,0.348 -0.643,0.689 -0.975,1.03 -0.287,0.294 -0.683,0.344 -1.008,0.221 -0.328,-0.118 -0.562,-0.451 -0.553,-0.855 0.089,-3.756 0.71,-7.467 1.755,-10.937 -0.684,-0.429 -1.366,-0.866 -2.001,-1.366 -0.737,1.712 -1.327,3.427 -1.847,5.252 m 26.887,4.449 c -0.102,-2.605 -0.442,-5.149 -1.011,-7.626 -0.607,0.316 -1.23,0.595 -1.86,0.858 -0.321,0.114 -0.634,0.251 -0.956,0.364 l -0.971,0.321 c 0.69,1.063 1.434,2.101 2.24,3.131 0.8,1.016 1.647,1.985 2.558,2.952 m -2.937,4.414 c 2.343,3.034 5.145,5.863 8.359,8.37 0.446,-4.013 0.402,-7.908 -0.151,-11.704 -0.067,-0.471 -0.141,-0.938 -0.221,-1.4 -0.084,-0.469 -0.177,-0.939 -0.274,-1.401 -0.197,-0.928 -0.417,-1.834 -0.664,-2.728 -0.521,-1.825 -1.111,-3.54 -1.847,-5.252 -0.636,0.5 -1.317,0.937 -2.001,1.366 1.044,3.47 1.666,7.181 1.754,10.937 0.01,0.404 -0.224,0.737 -0.552,0.855 -0.325,0.123 -0.722,0.073 -1.008,-0.221 -0.333,-0.341 -0.657,-0.682 -0.975,-1.03 -0.322,-0.356 -0.635,-0.714 -0.942,-1.075 -0.613,-0.722 -1.193,-1.447 -1.748,-2.19 -1.121,-1.527 -2.108,-3.033 -3.002,-4.658 l -0.589,0.137 c -0.197,0.044 -0.399,0.066 -0.597,0.104 l -0.597,0.108 -0.606,0.07 c 1.427,3.416 3.309,6.644 5.661,9.712 M 320.42,97.181 c 0.915,0.242 1.842,0.456 2.79,0.649 0.473,0.095 0.953,0.186 1.433,0.268 0.473,0.078 0.95,0.15 1.432,0.216 3.883,0.54 7.866,0.584 11.971,0.147 -2.565,-3.142 -5.458,-5.882 -8.561,-8.172 -3.138,-2.3 -6.44,-4.14 -9.933,-5.535 l -0.071,0.592 -0.112,0.584 c -0.038,0.194 -0.06,0.391 -0.106,0.584 l -0.14,0.576 c 1.662,0.874 3.203,1.838 4.764,2.935 0.761,0.542 1.502,1.11 2.241,1.709 0.368,0.3 0.735,0.606 1.099,0.921 0.355,0.311 0.704,0.628 1.053,0.953 0.301,0.28 0.352,0.668 0.226,0.986 -0.12,0.32 -0.461,0.549 -0.874,0.54 -3.842,-0.087 -7.637,-0.695 -11.187,-1.716 -0.438,0.669 -0.885,1.335 -1.397,1.957 1.751,0.72 3.505,1.297 5.372,1.806 m -3.249,-5.009 c 2.533,0.556 5.135,0.888 7.8,0.988 -0.989,-0.89 -1.981,-1.718 -3.02,-2.501 -1.053,-0.787 -2.115,-1.515 -3.202,-2.19 l -0.328,0.95 c -0.116,0.314 -0.256,0.62 -0.373,0.935 -0.269,0.615 -0.554,1.225 -0.877,1.818 m 0.877,-18.474 c 0.117,0.315 0.257,0.621 0.373,0.935 l 0.328,0.951 c 1.087,-0.675 2.149,-1.403 3.202,-2.191 1.039,-0.783 2.031,-1.611 3.02,-2.501 -2.665,0.1 -5.267,0.432 -7.8,0.989 0.323,0.593 0.608,1.202 0.877,1.817 m 11.437,0.066 c 3.103,-2.291 5.996,-5.031 8.561,-8.173 -4.105,-0.437 -8.088,-0.393 -11.971,0.148 -0.482,0.065 -0.959,0.137 -1.432,0.215 -0.48,0.082 -0.96,0.173 -1.433,0.269 -0.948,0.192 -1.875,0.407 -2.79,0.649 -1.867,0.509 -3.621,1.085 -5.372,1.806 0.512,0.621 0.959,1.287 1.397,1.956 3.55,-1.021 7.345,-1.629 11.187,-1.716 0.413,-0.009 0.754,0.22 0.874,0.541 0.126,0.318 0.075,0.705 -0.226,0.986 -0.349,0.325 -0.698,0.641 -1.053,0.953 -0.364,0.314 -0.731,0.621 -1.099,0.92 -0.739,0.599 -1.48,1.167 -2.241,1.709 -1.561,1.097 -3.102,2.062 -4.764,2.935 l 0.14,0.577 c 0.046,0.192 0.068,0.39 0.106,0.584 l 0.112,0.583 0.071,0.592 c 3.493,-1.394 6.795,-3.235 9.933,-5.534 m -16.272,-7.135 0.255,0.268 c 8.577,-4.62 19.134,-6.558 30.136,-4.942 0.451,0.068 0.867,0.464 1.056,0.954 0.2,0.486 0.218,1.044 -0.054,1.405 -3.308,4.374 -7.18,8.056 -11.396,10.959 -4.21,2.906 -8.782,5.035 -13.489,6.385 l 0.015,0.368 -0.015,0.369 c 4.707,1.349 9.279,3.478 13.489,6.384 4.216,2.903 8.088,6.585 11.396,10.96 0.272,0.36 0.254,0.919 0.054,1.404 -0.189,0.49 -0.605,0.886 -1.056,0.954 -11.002,1.616 -21.559,-0.322 -30.136,-4.942 l -0.255,0.268 -0.274,0.249 c 4.725,8.387 6.707,18.708 5.054,29.466 -0.069,0.441 -0.475,0.847 -0.976,1.032 -0.496,0.196 -1.067,0.213 -1.436,-0.053 -4.474,-3.234 -8.24,-7.019 -11.209,-11.142 -2.972,-4.116 -5.15,-8.587 -6.53,-13.189 l -0.377,0.015 -0.377,-0.015 c -1.38,4.602 -3.558,9.073 -6.529,13.189 -2.97,4.123 -6.735,7.908 -11.209,11.142 -0.37,0.266 -0.941,0.249 -1.437,0.053 -0.501,-0.185 -0.906,-0.591 -0.976,-1.032 -1.653,-10.758 0.33,-21.079 5.055,-29.466 l -0.275,-0.249 -0.254,-0.268 c -8.578,4.62 -19.134,6.558 -30.137,4.942 -0.45,-0.068 -0.866,-0.464 -1.055,-0.954 -0.2,-0.485 -0.219,-1.044 0.054,-1.404 3.308,-4.375 7.179,-8.057 11.396,-10.96 4.21,-2.906 8.782,-5.035 13.488,-6.384 l -0.015,-0.369 0.015,-0.368 c -4.706,-1.35 -9.278,-3.479 -13.488,-6.385 -4.217,-2.903 -8.088,-6.585 -11.396,-10.959 -0.273,-0.361 -0.254,-0.919 -0.054,-1.405 0.189,-0.49 0.605,-0.886 1.055,-0.954 11.003,-1.616 21.559,0.322 30.137,4.942 l 0.254,-0.268 0.275,-0.249 c -4.725,-8.387 -6.708,-18.708 -5.055,-29.466 0.07,-0.44 0.475,-0.847 0.976,-1.031 0.496,-0.196 1.067,-0.214 1.437,0.052 4.474,3.234 8.239,7.019 11.209,11.142 2.971,4.116 5.149,8.587 6.529,13.189 l 0.377,-0.015 0.377,0.015 c 1.38,-4.602 3.558,-9.073 6.53,-13.189 2.969,-4.123 6.735,-7.908 11.209,-11.142 0.369,-0.266 0.94,-0.248 1.436,-0.052 0.501,0.184 0.907,0.591 0.976,1.031 1.653,10.758 -0.329,21.079 -5.054,29.466 z"
                         style="fill:#dcb954;fill-opacity:1;stroke:none"
                         id="path462" />
                    </g>
                  </g>
                </g>
              </g>
              <g
                 id="g480"
                 style="fill:#dcb954;fill-opacity:1">
                <g
                   clip-path="url(#clipPath164)"
                   id="g478"
                   style="fill:#dcb954;fill-opacity:1">
                  <g
                     id="g476"
                     style="fill:#dcb954;fill-opacity:1">
                    <g
                       id="g474"
                       style="fill:#dcb954;fill-opacity:1">
                      <path
                         d="m 297.466,20.668 -0.001,0.001 -10e-4,-0.001 c -3.361,4.573 -6.223,9.352 -7.984,14.285 3.246,3.687 5.996,7.59 7.985,11.69 1.989,-4.1 4.74,-8.003 7.985,-11.69 -1.761,-4.933 -4.623,-9.712 -7.984,-14.285 m 8.011,18.885 c -0.614,0.714 -1.205,1.42 -1.774,2.147 -2.187,2.822 -4.011,5.726 -5.408,8.817 -0.17,0.373 -0.501,0.553 -0.83,0.542 -0.328,0.011 -0.659,-0.169 -0.83,-0.542 -1.397,-3.091 -3.221,-5.995 -5.408,-8.817 -0.568,-0.727 -1.159,-1.433 -1.774,-2.147 -0.614,-0.711 -1.252,-1.428 -1.9,-2.106 -0.77,-0.815 -1.506,-1.276 -1.448,-2.351 0.075,-1.413 0.941,-3.054 1.518,-4.426 0.634,-1.556 1.36,-3.129 2.169,-4.644 0.426,-0.805 0.873,-1.612 1.339,-2.419 0.466,-0.802 0.952,-1.579 1.454,-2.371 0.502,-0.788 1.019,-1.577 1.549,-2.365 0.53,-0.772 1.072,-1.541 1.622,-2.312 0.354,-0.496 1.033,-0.669 1.705,-0.624 h 0.004 0.005 c 0.671,-0.045 1.35,0.128 1.704,0.624 0.551,0.771 1.093,1.54 1.622,2.312 0.53,0.788 1.048,1.577 1.55,2.365 0.501,0.792 0.987,1.569 1.454,2.371 0.466,0.807 0.913,1.614 1.338,2.419 0.81,1.515 1.536,3.088 2.17,4.644 0.576,1.372 1.443,3.013 1.517,4.426 0.058,1.075 -0.677,1.536 -1.447,2.351 -0.649,0.678 -1.287,1.395 -1.901,2.106"
                         style="fill:#dcb954;fill-opacity:1;stroke:none"
                         id="path472" />
                    </g>
                  </g>
                </g>
              </g>
              <g
                 id="g490"
                 style="fill:#dcb954;fill-opacity:1">
                <g
                   clip-path="url(#clipPath184)"
                   id="g488"
                   style="fill:#dcb954;fill-opacity:1">
                  <g
                     id="g486"
                     style="fill:#dcb954;fill-opacity:1">
                    <g
                       id="g484"
                       style="fill:#dcb954;fill-opacity:1">
                      <path
                         d="m 298.83,34.182 c -0.425,-0.793 -0.878,-1.584 -1.365,-2.37 v 10e-4 -10e-4 c -0.486,0.786 -0.94,1.577 -1.365,2.37 0.468,0.697 0.923,1.393 1.365,2.085 0.443,-0.692 0.897,-1.388 1.365,-2.085 m -2.483,5.176 c -0.591,-0.943 -1.228,-1.898 -1.885,-2.804 -0.449,-0.633 -1.303,-1.401 -1.415,-2.172 -0.101,-0.693 0.582,-1.539 0.918,-2.178 0.639,-1.242 1.356,-2.431 2.103,-3.625 0.298,-0.479 0.85,-0.65 1.395,-0.614 h 0.002 0.003 c 0.544,-0.036 1.096,0.135 1.395,0.614 0.746,1.194 1.464,2.383 2.102,3.625 0.337,0.639 1.02,1.485 0.919,2.178 -0.112,0.771 -0.966,1.539 -1.415,2.172 -0.658,0.906 -1.294,1.861 -1.885,2.804 -0.233,0.371 -0.677,0.548 -1.119,0.538 -0.442,0.01 -0.886,-0.167 -1.118,-0.538"
                         style="fill:#dcb954;fill-opacity:1;stroke:none"
                         id="path482" />
                    </g>
                  </g>
                </g>
              </g>
              <g
                 id="g500"
                 style="fill:#dcb954;fill-opacity:1">
                <g
                   clip-path="url(#clipPath204)"
                   id="g498"
                   style="fill:#dcb954;fill-opacity:1">
                  <g
                     id="g496"
                     style="fill:#dcb954;fill-opacity:1">
                    <g
                       id="g494"
                       style="fill:#dcb954;fill-opacity:1">
                      <path
                         d="m 269.073,43.222 c -4.814,-2.277 -10.291,-3.687 -15.982,-4.584 v 0.002 h -0.001 c 0.917,5.564 2.358,10.919 4.688,15.626 4.955,0.361 9.725,1.21 14.098,2.741 -1.566,-4.276 -2.434,-8.94 -2.803,-13.785 m 5.018,17.095 c -3.215,-1.218 -6.618,-2.014 -10.196,-2.49 -1.843,-0.232 -3.768,-0.399 -5.674,-0.466 -1.138,-0.047 -1.997,0.132 -2.731,-0.667 -0.963,-1.046 -1.531,-2.8 -2.129,-4.176 -0.665,-1.528 -1.301,-3.149 -1.827,-4.78 -0.557,-1.719 -1.076,-3.519 -1.492,-5.315 -0.214,-0.903 -0.417,-1.817 -0.611,-2.74 -0.193,-0.922 -0.357,-1.835 -0.526,-2.764 -0.108,-0.596 0.25,-1.19 0.76,-1.624 l 0.002,-0.003 0.004,-0.003 c 0.443,-0.498 1.05,-0.847 1.66,-0.742 0.95,0.165 1.884,0.326 2.827,0.514 0.944,0.19 1.879,0.388 2.803,0.598 1.836,0.406 3.677,0.914 5.436,1.458 1.668,0.515 3.325,1.136 4.888,1.787 1.407,0.585 3.201,1.14 4.271,2.082 0.817,0.717 0.634,1.557 0.683,2.67 0.068,1.863 0.239,3.745 0.477,5.547 0.486,3.499 1.3,6.825 2.546,9.969 0.149,0.382 0.046,0.738 -0.192,0.957 -0.225,0.234 -0.589,0.334 -0.979,0.188"
                         style="fill:#dcb954;fill-opacity:1;stroke:none"
                         id="path492" />
                    </g>
                  </g>
                </g>
              </g>
              <g
                 id="g510"
                 style="fill:#dcb954;fill-opacity:1">
                <g
                   clip-path="url(#clipPath224)"
                   id="g508"
                   style="fill:#dcb954;fill-opacity:1">
                  <g
                     id="g506"
                     style="fill:#dcb954;fill-opacity:1">
                    <g
                       id="g504"
                       style="fill:#dcb954;fill-opacity:1">
                      <path
                         d="m 261.896,49.139 c 0.836,0.169 1.661,0.347 2.476,0.531 -0.188,-0.797 -0.37,-1.604 -0.543,-2.421 -0.874,-0.266 -1.766,-0.511 -2.679,-0.729 h 0.001 -0.001 c 0.223,0.892 0.474,1.765 0.746,2.619 m -3.53,-5.338 0.002,-0.002 0.002,-0.002 c 0.359,-0.403 0.873,-0.665 1.431,-0.533 0.697,0.164 1.388,0.332 2.07,0.511 0.689,0.186 1.373,0.386 2.042,0.599 0.699,0.218 1.792,0.343 2.221,0.902 0.478,0.624 0.431,1.76 0.573,2.52 0.192,1.098 0.422,2.204 0.69,3.284 0.104,0.424 -0.081,0.857 -0.401,1.156 -0.305,0.312 -0.748,0.493 -1.181,0.392 -1.105,-0.263 -2.236,-0.487 -3.36,-0.676 -0.777,-0.138 -1.939,-0.092 -2.576,-0.56 -0.573,-0.419 -0.7,-1.488 -0.923,-2.171 -0.218,-0.655 -0.422,-1.323 -0.613,-1.997 -0.182,-0.666 -0.355,-1.342 -0.523,-2.023 -0.135,-0.546 0.134,-1.048 0.546,-1.4"
                         style="fill:#dcb954;fill-opacity:1;stroke:none"
                         id="path502" />
                    </g>
                  </g>
                </g>
              </g>
              <g
                 id="g520"
                 style="fill:#dcb954;fill-opacity:1">
                <g
                   clip-path="url(#clipPath244)"
                   id="g518"
                   style="fill:#dcb954;fill-opacity:1">
                  <g
                     id="g516"
                     style="fill:#dcb954;fill-opacity:1">
                    <g
                       id="g514"
                       style="fill:#dcb954;fill-opacity:1">
                      <path
                         d="m 234.71,82.025 0.001,10e-4 -0.001,0.001 c 4.678,3.286 9.565,6.084 14.61,7.807 3.771,-3.174 7.763,-5.863 11.957,-7.808 -4.194,-1.944 -8.186,-4.634 -11.957,-7.807 -5.045,1.722 -9.932,4.52 -14.61,7.806 m 17.161,-9.691 c 0.693,0.634 1.427,1.258 2.154,1.859 0.73,0.6 1.452,1.178 2.196,1.734 2.886,2.138 5.857,3.922 9.018,5.288 0.381,0.166 0.565,0.49 0.554,0.811 0.011,0.322 -0.173,0.645 -0.554,0.812 -3.161,1.366 -6.132,3.149 -9.018,5.287 -0.744,0.556 -1.466,1.134 -2.196,1.735 -0.727,0.6 -1.461,1.224 -2.154,1.858 -0.833,0.753 -1.305,1.472 -2.405,1.415 -1.444,-0.073 -3.124,-0.92 -4.526,-1.483 -1.591,-0.62 -3.201,-1.33 -4.75,-2.122 -0.824,-0.416 -1.648,-0.853 -2.473,-1.308 -0.821,-0.456 -1.616,-0.932 -2.426,-1.422 -0.806,-0.491 -1.613,-0.997 -2.419,-1.515 -0.789,-0.518 -1.576,-1.048 -2.365,-1.586 -0.507,-0.346 -0.684,-1.01 -0.638,-1.667 v -0.004 -0.004 c -0.046,-0.657 0.131,-1.321 0.638,-1.667 0.789,-0.538 1.576,-1.068 2.365,-1.585 0.806,-0.519 1.613,-1.025 2.419,-1.516 0.81,-0.49 1.605,-0.965 2.426,-1.421 0.825,-0.456 1.649,-0.893 2.473,-1.309 1.549,-0.791 3.159,-1.501 4.75,-2.121 1.402,-0.564 3.082,-1.411 4.526,-1.484 1.1,-0.057 1.572,0.662 2.405,1.415"
                         style="fill:#dcb954;fill-opacity:1;stroke:none"
                         id="path512" />
                    </g>
                  </g>
                </g>
              </g>
              <g
                 id="g530"
                 style="fill:#dcb954;fill-opacity:1">
                <g
                   clip-path="url(#clipPath264)"
                   id="g528"
                   style="fill:#dcb954;fill-opacity:1">
                  <g
                     id="g526"
                     style="fill:#dcb954;fill-opacity:1">
                    <g
                       id="g524"
                       style="fill:#dcb954;fill-opacity:1">
                      <path
                         d="m 248.532,80.692 c -0.812,0.415 -1.62,0.858 -2.424,1.334 h 0.001 -0.001 c 0.804,0.476 1.612,0.919 2.424,1.335 0.712,-0.458 1.424,-0.902 2.133,-1.335 -0.709,-0.433 -1.421,-0.877 -2.133,-1.334 m 5.293,2.428 c -0.964,0.577 -1.94,1.2 -2.867,1.843 -0.648,0.439 -1.433,1.274 -2.222,1.383 -0.708,0.099 -1.574,-0.569 -2.227,-0.898 -1.27,-0.624 -2.486,-1.325 -3.708,-2.056 -0.49,-0.292 -0.664,-0.831 -0.628,-1.363 v -0.003 -0.002 c -0.036,-0.533 0.138,-1.072 0.628,-1.364 1.222,-0.73 2.438,-1.431 3.708,-2.056 0.653,-0.329 1.519,-0.997 2.227,-0.898 0.789,0.11 1.574,0.944 2.222,1.383 0.927,0.643 1.903,1.266 2.867,1.844 0.38,0.227 0.562,0.661 0.551,1.093 0.011,0.432 -0.171,0.866 -0.551,1.094"
                         style="fill:#dcb954;fill-opacity:1;stroke:none"
                         id="path522" />
                    </g>
                  </g>
                </g>
              </g>
              <g
                 id="g540"
                 style="fill:#dcb954;fill-opacity:1">
                <g
                   clip-path="url(#clipPath284)"
                   id="g538"
                   style="fill:#dcb954;fill-opacity:1">
                  <g
                     id="g536"
                     style="fill:#dcb954;fill-opacity:1">
                    <g
                       id="g534"
                       style="fill:#dcb954;fill-opacity:1">
                      <path
                         d="m 253.091,125.414 c 5.691,-0.897 11.168,-2.306 15.982,-4.584 0.369,-4.845 1.237,-9.509 2.803,-13.784 -4.373,1.531 -9.143,2.38 -14.098,2.74 -2.33,4.707 -3.771,10.062 -4.688,15.626 h 0.001 z m -3.66,-1.044 c 0.194,-0.923 0.397,-1.838 0.611,-2.741 0.416,-1.796 0.935,-3.596 1.492,-5.315 0.526,-1.631 1.162,-3.251 1.827,-4.779 0.598,-1.376 1.166,-3.131 2.129,-4.176 0.734,-0.799 1.593,-0.621 2.731,-0.668 1.906,-0.067 3.831,-0.234 5.674,-0.466 3.578,-0.476 6.981,-1.272 10.196,-2.489 0.39,-0.147 0.754,-0.046 0.979,0.187 0.238,0.22 0.341,0.575 0.192,0.957 -1.246,3.144 -2.06,6.47 -2.546,9.969 -0.238,1.802 -0.409,3.684 -0.477,5.547 -0.049,1.114 0.134,1.953 -0.683,2.671 -1.07,0.941 -2.864,1.496 -4.271,2.082 -1.563,0.65 -3.22,1.271 -4.888,1.786 -1.759,0.544 -3.6,1.052 -5.436,1.459 -0.924,0.209 -1.859,0.407 -2.803,0.597 -0.943,0.189 -1.877,0.349 -2.827,0.514 -0.61,0.106 -1.217,-0.244 -1.66,-0.742 l -0.004,-0.003 -0.002,-0.003 c -0.51,-0.434 -0.868,-1.028 -0.76,-1.623 0.169,-0.93 0.333,-1.843 0.526,-2.764"
                         style="fill:#dcb954;fill-opacity:1;stroke:none"
                         id="path532" />
                    </g>
                  </g>
                </g>
              </g>
              <g
                 id="g550"
                 style="fill:#dcb954;fill-opacity:1">
                <g
                   clip-path="url(#clipPath304)"
                   id="g548"
                   style="fill:#dcb954;fill-opacity:1">
                  <g
                     id="g546"
                     style="fill:#dcb954;fill-opacity:1">
                    <g
                       id="g544"
                       style="fill:#dcb954;fill-opacity:1">
                      <path
                         d="m 261.15,117.533 c 0.913,-0.218 1.805,-0.463 2.679,-0.73 0.173,-0.817 0.355,-1.624 0.543,-2.42 -0.815,0.183 -1.64,0.361 -2.476,0.53 -0.272,0.855 -0.523,1.727 -0.746,2.62 l 0.001,-0.001 z m -2.807,-0.705 c 0.191,-0.674 0.395,-1.342 0.613,-1.996 0.223,-0.684 0.35,-1.753 0.923,-2.172 0.637,-0.468 1.799,-0.422 2.576,-0.56 1.124,-0.189 2.255,-0.413 3.36,-0.675 0.433,-0.102 0.876,0.079 1.181,0.392 0.32,0.298 0.505,0.731 0.401,1.155 -0.268,1.081 -0.498,2.186 -0.69,3.285 -0.142,0.76 -0.095,1.896 -0.573,2.519 -0.429,0.56 -1.522,0.684 -2.221,0.902 -0.669,0.213 -1.353,0.413 -2.042,0.599 -0.682,0.179 -1.373,0.347 -2.07,0.511 -0.558,0.132 -1.072,-0.13 -1.431,-0.533 l -0.002,-0.002 -0.002,-0.002 c -0.412,-0.351 -0.681,-0.854 -0.546,-1.399 0.168,-0.682 0.341,-1.357 0.523,-2.024"
                         style="fill:#dcb954;fill-opacity:1;stroke:none"
                         id="path542" />
                    </g>
                  </g>
                </g>
              </g>
              <g
                 id="g560"
                 style="fill:#dcb954;fill-opacity:1">
                <g
                   clip-path="url(#clipPath324)"
                   id="g558"
                   style="fill:#dcb954;fill-opacity:1">
                  <g
                     id="g556"
                     style="fill:#dcb954;fill-opacity:1">
                    <g
                       id="g554"
                       style="fill:#dcb954;fill-opacity:1">
                      <path
                         d="m 297.464,143.385 10e-4,-0.002 0.001,0.002 c 3.361,-4.574 6.223,-9.352 7.984,-14.285 -3.245,-3.688 -5.996,-7.591 -7.985,-11.691 -1.989,4.1 -4.739,8.003 -7.985,11.691 1.761,4.933 4.623,9.711 7.984,14.285 M 289.453,124.5 c 0.615,-0.715 1.206,-1.42 1.774,-2.148 2.187,-2.822 4.011,-5.726 5.408,-8.816 0.171,-0.373 0.502,-0.553 0.83,-0.543 0.329,-0.01 0.66,0.17 0.83,0.543 1.397,3.09 3.221,5.994 5.408,8.816 0.569,0.728 1.16,1.433 1.774,2.148 0.614,0.71 1.252,1.428 1.901,2.105 0.77,0.815 1.505,1.276 1.447,2.352 -0.074,1.412 -0.941,3.054 -1.517,4.425 -0.634,1.556 -1.36,3.13 -2.17,4.644 -0.425,0.806 -0.872,1.612 -1.338,2.419 -0.467,0.802 -0.953,1.58 -1.454,2.371 -0.502,0.789 -1.02,1.577 -1.55,2.365 -0.529,0.772 -1.071,1.541 -1.622,2.313 -0.354,0.496 -1.033,0.668 -1.704,0.623 l -0.005,0.001 -0.004,-0.001 c -0.672,0.045 -1.351,-0.127 -1.705,-0.623 -0.55,-0.772 -1.092,-1.541 -1.622,-2.313 -0.53,-0.788 -1.047,-1.576 -1.549,-2.365 -0.502,-0.791 -0.988,-1.569 -1.454,-2.371 -0.466,-0.807 -0.913,-1.613 -1.339,-2.419 -0.809,-1.514 -1.535,-3.088 -2.169,-4.644 -0.577,-1.371 -1.443,-3.013 -1.518,-4.425 -0.058,-1.076 0.678,-1.537 1.448,-2.352 0.648,-0.677 1.286,-1.395 1.9,-2.105"
                         style="fill:#dcb954;fill-opacity:1;stroke:none"
                         id="path552" />
                    </g>
                  </g>
                </g>
              </g>
              <g
                 id="g570"
                 style="fill:#dcb954;fill-opacity:1">
                <g
                   clip-path="url(#clipPath344)"
                   id="g568"
                   style="fill:#dcb954;fill-opacity:1">
                  <g
                     id="g566"
                     style="fill:#dcb954;fill-opacity:1">
                    <g
                       id="g564"
                       style="fill:#dcb954;fill-opacity:1">
                      <path
                         d="m 296.1,129.87 c 0.425,0.794 0.879,1.584 1.365,2.37 v 0 0 c 0.487,-0.786 0.94,-1.576 1.365,-2.37 -0.468,-0.697 -0.922,-1.392 -1.365,-2.085 -0.442,0.693 -0.897,1.388 -1.365,2.085 m 2.484,-5.176 c 0.591,0.943 1.227,1.898 1.885,2.804 0.449,0.633 1.303,1.401 1.415,2.173 0.101,0.692 -0.582,1.539 -0.919,2.177 -0.638,1.242 -1.356,2.431 -2.102,3.625 -0.299,0.48 -0.851,0.65 -1.395,0.614 h -0.003 -0.002 c -0.545,0.036 -1.097,-0.134 -1.395,-0.614 -0.747,-1.194 -1.464,-2.383 -2.103,-3.625 -0.336,-0.638 -1.019,-1.485 -0.918,-2.177 0.112,-0.772 0.966,-1.54 1.415,-2.173 0.657,-0.906 1.294,-1.861 1.885,-2.804 0.232,-0.371 0.676,-0.548 1.118,-0.538 0.442,-0.01 0.886,0.167 1.119,0.538"
                         style="fill:#dcb954;fill-opacity:1;stroke:none"
                         id="path562" />
                    </g>
                  </g>
                </g>
              </g>
              <g
                 id="g580"
                 style="fill:#dcb954;fill-opacity:1">
                <g
                   clip-path="url(#clipPath364)"
                   id="g578"
                   style="fill:#dcb954;fill-opacity:1">
                  <g
                     id="g576"
                     style="fill:#dcb954;fill-opacity:1">
                    <g
                       id="g574"
                       style="fill:#dcb954;fill-opacity:1">
                      <path
                         d="m 325.857,120.83 c 4.814,2.278 10.291,3.687 15.982,4.584 v -0.002 h 0.002 c -0.917,-5.564 -2.359,-10.919 -4.688,-15.626 -4.956,-0.36 -9.725,-1.209 -14.099,-2.74 1.566,4.275 2.435,8.939 2.803,13.784 m -5.018,-17.094 c 3.216,1.217 6.618,2.013 10.196,2.489 1.844,0.232 3.768,0.399 5.674,0.466 1.139,0.047 1.997,-0.131 2.731,0.668 0.963,1.045 1.531,2.8 2.13,4.176 0.665,1.528 1.3,3.148 1.827,4.779 0.556,1.719 1.076,3.519 1.491,5.315 0.215,0.903 0.418,1.818 0.612,2.741 0.192,0.921 0.357,1.834 0.526,2.764 0.107,0.595 -0.25,1.189 -0.76,1.623 l -0.003,0.003 -0.003,0.003 c -0.444,0.498 -1.051,0.848 -1.66,0.742 -0.951,-0.165 -1.884,-0.325 -2.827,-0.514 -0.944,-0.19 -1.879,-0.388 -2.803,-0.597 -1.837,-0.407 -3.678,-0.915 -5.436,-1.459 -1.668,-0.515 -3.326,-1.136 -4.888,-1.786 -1.408,-0.586 -3.202,-1.141 -4.271,-2.082 -0.818,-0.718 -0.635,-1.557 -0.683,-2.671 -0.068,-1.863 -0.239,-3.745 -0.477,-5.547 -0.487,-3.499 -1.301,-6.825 -2.546,-9.969 -0.15,-0.382 -0.047,-0.737 0.192,-0.957 0.224,-0.233 0.588,-0.334 0.978,-0.187"
                         style="fill:#dcb954;fill-opacity:1;stroke:none"
                         id="path572" />
                    </g>
                  </g>
                </g>
              </g>
              <g
                 id="g590"
                 style="fill:#dcb954;fill-opacity:1">
                <g
                   clip-path="url(#clipPath384)"
                   id="g588"
                   style="fill:#dcb954;fill-opacity:1">
                  <g
                     id="g586"
                     style="fill:#dcb954;fill-opacity:1">
                    <g
                       id="g584"
                       style="fill:#dcb954;fill-opacity:1">
                      <path
                         d="m 333.034,114.913 c -0.836,-0.169 -1.661,-0.347 -2.476,-0.53 0.188,0.796 0.37,1.603 0.543,2.42 0.874,0.267 1.766,0.512 2.679,0.73 v -0.001 0.001 c -0.223,-0.893 -0.473,-1.765 -0.746,-2.62 m 3.53,5.338 -0.001,0.002 -0.002,0.002 c -0.36,0.403 -0.874,0.665 -1.432,0.533 -0.697,-0.164 -1.388,-0.332 -2.069,-0.511 -0.69,-0.186 -1.373,-0.386 -2.042,-0.599 -0.699,-0.218 -1.792,-0.342 -2.222,-0.902 -0.478,-0.623 -0.431,-1.759 -0.572,-2.519 -0.193,-1.099 -0.422,-2.204 -0.691,-3.285 -0.104,-0.424 0.081,-0.857 0.401,-1.155 0.306,-0.313 0.748,-0.494 1.182,-0.392 1.105,0.262 2.235,0.486 3.359,0.675 0.777,0.138 1.939,0.092 2.577,0.56 0.572,0.419 0.699,1.488 0.923,2.172 0.217,0.654 0.422,1.322 0.612,1.996 0.183,0.667 0.355,1.342 0.523,2.024 0.135,0.545 -0.133,1.048 -0.546,1.399"
                         style="fill:#dcb954;fill-opacity:1;stroke:none"
                         id="path582" />
                    </g>
                  </g>
                </g>
              </g>
              <g
                 id="g600"
                 style="fill:#dcb954;fill-opacity:1">
                <g
                   clip-path="url(#clipPath404)"
                   id="g598"
                   style="fill:#dcb954;fill-opacity:1">
                  <g
                     id="g596"
                     style="fill:#dcb954;fill-opacity:1">
                    <g
                       id="g594"
                       style="fill:#dcb954;fill-opacity:1">
                      <path
                         d="m 348.822,82.026 c -0.803,-0.476 -1.612,-0.919 -2.423,-1.334 -0.713,0.457 -1.425,0.901 -2.133,1.334 0.708,0.433 1.42,0.877 2.133,1.335 0.811,-0.416 1.62,-0.859 2.423,-1.335 z m 3.307,1.366 c -1.221,0.731 -2.437,1.432 -3.707,2.056 -0.654,0.329 -1.519,0.997 -2.227,0.898 -0.789,-0.109 -1.575,-0.944 -2.223,-1.383 -0.926,-0.643 -1.902,-1.266 -2.867,-1.843 -0.379,-0.228 -0.561,-0.662 -0.55,-1.094 -0.011,-0.432 0.171,-0.866 0.55,-1.093 0.965,-0.578 1.941,-1.201 2.867,-1.844 0.648,-0.439 1.434,-1.273 2.223,-1.383 0.708,-0.099 1.573,0.569 2.227,0.898 1.27,0.625 2.486,1.326 3.707,2.056 0.491,0.292 0.665,0.831 0.628,1.364 v 0.002 0.003 c 0.037,0.532 -0.137,1.071 -0.628,1.363"
                         style="fill:#dcb954;fill-opacity:1;stroke:none"
                         id="path592" />
                    </g>
                  </g>
                </g>
              </g>
            </g>
          </g>
        </g>
        <g
           id="g606"
           transform="translate(196.69,74.6943)">
          <path
             d="M 0,0 C -1.393,0.541 -2.806,2.032 -3.352,3.42 -4.104,5.329 -2.745,6.853 -0.948,7.768 1.46,8.994 4.018,8.198 6.575,5.488 4.701,1.493 2.184,-0.849 0,0 m 72.391,24.06 c -4.272,2.789 -8.371,0.939 -12.24,-1.251 -1.722,-0.975 -3.298,-2.198 -5.067,-3.394 -1.97,4.214 -5.325,6.847 -9.734,5.762 -3.804,-0.935 -7.2,-3.459 -10.798,-5.292 v 5.179 C 27.124,26.37 23.817,24.994 20.911,19.349 h 5.741 c 0.169,-0.379 0.304,-0.541 0.305,-0.704 0.033,-4.904 -0.181,-9.824 0.161,-14.706 0.206,-2.94 -1.217,-3.81 -3.633,-4.349 -2.793,-0.623 -4.8,0.635 -6.149,2.712 -1.732,2.665 -3.129,5.544 -4.614,8.359 -1.952,3.7 -3.634,7.559 -5.869,11.085 -0.981,1.547 -2.873,2.948 -4.65,3.512 -2.935,0.932 -11.259,-3.412 -12.687,-5.779 2.545,0 5.77,0.836 8.076,-0.232 2.367,-1.096 3.836,-4.052 5.876,-6.398 C 0.155,10.865 -2.548,9.693 -4.655,7.863 -6.875,5.936 -9.11,3.634 -10.288,1.039 c -1.759,-3.879 0.805,-7.035 5.137,-6.586 2.292,0.237 4.63,1.236 6.661,2.379 2.292,1.29 4.262,3.128 6.438,4.778 2.189,-3.21 3.782,-7.637 8.377,-7.067 3.632,0.451 7.042,2.618 10.597,4.041 0.074,-1.148 0.168,-2.609 0.263,-4.07 0.24,-0.14 0.48,-0.28 0.72,-0.421 0.928,1.105 1.669,2.475 2.826,3.255 2.049,1.382 2.443,3.131 2.78,5.431 0.689,4.708 1.807,9.393 3.226,13.946 0.734,2.355 2.65,4.265 5.653,3.968 3.104,-0.307 4.49,-2.516 4.9,-5.157 0.443,-2.848 0.486,-5.768 0.543,-8.66 0.082,-4.202 0.021,-8.407 0.021,-13.373 1.587,1.651 2.442,2.92 3.632,3.697 2.357,1.538 2.712,3.655 3.08,6.213 0.664,4.612 1.77,9.201 3.161,13.659 0.717,2.296 2.69,3.917 5.57,3.625 2.986,-0.304 4.532,-2.363 4.919,-4.841 0.526,-3.366 0.99,-6.942 0.375,-10.23 -0.777,-4.156 -2.666,-8.114 -4.051,-12.088 5.666,5.032 10.307,10.917 11.512,18.721 0.675,4.372 0.702,8.953 -3.661,11.801"
             style="fill:#ffffff;fill-opacity:1;fill-rule:nonzero;stroke:none"
             id="path608" />
        </g>
        <g
           id="g610"
           transform="translate(388.5197,74.6974)">
          <path
             d="M 0,0 C -1.303,0.071 -3.023,1.735 -3.626,3.073 -4.502,5.018 -3.277,6.72 -1.348,7.726 1.032,8.967 3.521,8.245 6.389,5.394 4.861,2.907 3.63,-0.197 0,0 m 65,13.258 c -0.262,0 -0.524,-10e-4 -0.785,-10e-4 C 63.8,12.459 63.476,11.599 62.955,10.875 60.675,7.7 58.612,4.317 55.941,1.489 c -2.432,-2.574 -4.61,-2.216 -6.708,0.636 -1.506,2.046 -2.586,4.389 -3.924,6.559 -0.822,1.333 -0.46,2.142 0.643,3.241 1.795,1.79 3.467,3.782 4.781,5.929 1.172,1.914 1.069,4.399 -0.738,5.755 -1.43,1.073 -3.835,1.842 -5.498,1.46 -2.706,-0.622 -5.174,-2.267 -7.711,-3.539 -0.762,-0.382 -1.42,-0.963 -2.321,-1.589 v 5.167 c -7.86,1.229 -11.24,-0.112 -14.236,-5.777 h 6.615 c 0,-5.223 -0.275,-10.223 0.099,-15.177 0.242,-3.213 -1.383,-4.085 -3.946,-4.6 -2.787,-0.56 -4.76,0.786 -6.085,2.88 -1.7,2.689 -3.085,5.571 -4.573,8.386 -1.957,3.701 -3.611,7.591 -5.939,11.05 -1.081,1.606 -3.428,3.331 -5.227,3.358 -4.997,0.076 -8.638,-3.254 -12.619,-5.72 3.136,0 6.124,0.594 8.708,-0.153 C 0.355,18.461 1.345,15.24 2.497,12.468 -0.116,10.9 -2.793,9.709 -4.923,7.9 -7.1,6.051 -9.298,3.851 -10.488,1.349 c -1.963,-4.123 0.629,-7.421 5.231,-6.903 2.206,0.249 4.451,1.231 6.398,2.348 2.286,1.312 4.269,3.132 6.457,4.787 2.228,-3.118 3.784,-7.619 8.355,-7.035 3.724,0.474 7.216,2.683 10.938,4.174 v -5.118 c 2.308,1.902 5.253,3.254 6.272,5.459 1.089,2.354 0.357,5.514 0.426,8.322 0.016,0.636 -0.051,1.297 0.102,1.902 0.774,3.052 1.275,6.229 2.528,9.087 0.973,2.22 3.366,2.745 5.746,1.812 2.063,-0.808 3.109,-3.224 2.15,-5.506 -0.689,-1.638 -1.781,-3.172 -2.944,-4.55 -3.604,-4.271 -3.651,-4.234 -0.955,-9.26 0.258,-0.482 0.517,-0.964 0.804,-1.429 3.595,-5.826 8.424,-6.725 13.928,-2.509 4.911,3.763 7.742,8.952 10.022,14.473 0.221,0.535 0.03,1.233 0.03,1.855"
             style="fill:#ffffff;fill-opacity:1;fill-rule:nonzero;stroke:none"
             id="path612" />
        </g>
        <g
           id="g614"
           transform="translate(169.2667,99.016)">
          <path
             d="m 0,0 c -2.215,-0.779 -4.34,-2.061 -6.19,-3.502 -1.902,-1.482 -3.419,-3.439 -5.105,-5.188 -0.223,0.106 -0.446,0.211 -0.669,0.317 v 4.26 4.434 c -8.366,0.842 -10.295,0.03 -13.831,-5.771 h 6.32 v -25.008 c 1.541,1.403 2.576,2.616 3.864,3.458 2.136,1.395 2.83,3.154 2.931,5.669 0.184,4.555 1.322,8.969 4.087,12.787 1.689,2.334 3.849,4.078 6.99,3.527 3.352,-0.589 4.89,-3.008 5.581,-6.05 1.45,-6.378 -0.228,-12.194 -3.35,-17.751 -0.43,-0.766 -0.771,-1.579 -1.154,-2.37 0.29,-0.174 0.58,-0.347 0.869,-0.52 2.745,3.609 5.714,7.078 8.171,10.866 2.525,3.892 3.522,8.327 3.232,12.994 C 11.34,-1.311 6.267,2.203 0,0"
             style="fill:#ffffff;fill-opacity:1;fill-rule:nonzero;stroke:none"
             id="path616" />
        </g>
        <g
           id="g618"
           transform="translate(287.7341,74.6115)">
          <path
             d="m 0,0 c -1.987,0.023 -3.367,1.4 -3.703,3.443 -0.341,2.074 0.695,3.478 2.492,4.399 2.399,1.23 4.946,0.449 7.633,-2.36 C 4.932,2.932 3.678,-0.043 0,0 M 25.448,0.409 C 20.657,-1.1 18.77,-0.569 16.235,3.644 c -1.826,3.034 -3.23,6.31 -4.873,9.452 -1.601,3.061 -3.074,6.21 -4.955,9.102 -2.198,3.379 -4.699,4.195 -8.34,2.62 -3.108,-1.344 -5.969,-3.241 -8.915,-4.934 -0.195,-0.112 -0.186,-0.566 -0.298,-0.951 9.329,1.599 10.63,0.999 13.731,-6.38 C 0.016,11.014 -2.669,9.838 -4.78,8.023 -7.01,6.105 -9.276,3.839 -10.482,1.258 c -1.862,-3.986 0.785,-7.397 5.194,-6.675 2.955,0.483 5.756,2.204 8.468,3.652 1.639,0.875 2.977,2.289 4.49,3.493 2.371,-3.504 4.033,-7.693 9.098,-7.218 4.156,0.39 7.153,3.091 10.125,5.699 -0.597,0.299 -1.046,0.325 -1.445,0.2"
             style="fill:#ffffff;fill-opacity:1;fill-rule:nonzero;stroke:none"
             id="path620" />
        </g>
        <g
           id="g622"
           transform="translate(334.2718,88.1079)">
          <path
             d="m 0,0 c -3.376,0.545 -6.827,0.747 -10.136,1.537 -1.241,0.296 -2.174,1.828 -3.247,2.796 1.084,1.1 2.037,2.932 3.281,3.146 2.457,0.423 5.074,-0.076 7.627,-0.137 0.944,-0.022 2.143,-0.22 2.79,0.244 1.692,1.212 3.143,2.747 4.979,4.416 -6.97,1.525 -18.682,-1.378 -23.664,-5.516 -2.32,-1.927 -3.567,-4.274 -2.729,-7.203 0.763,-2.662 3.218,-3.312 5.659,-3.664 3.751,-0.541 7.538,-0.866 11.26,-1.54 0.983,-0.178 2.497,-1.295 2.506,-1.996 0.013,-1.02 -0.91,-2.687 -1.797,-2.966 -2.936,-0.92 -6.214,-2.274 -9.035,-1.757 -5.625,1.03 -7.635,-3.443 -11.292,-5.344 7.376,-1.242 19.356,2.527 26.724,8.213 C 4.987,-8.18 7.812,-6.518 6.948,-3.5 6.055,-0.381 2.697,-0.435 0,0"
             style="fill:#ffffff;fill-opacity:1;fill-rule:nonzero;stroke:none"
             id="path624" />
        </g>
        <g
           id="g626"
           transform="translate(187.894,114.8164)">
          <path
             d="m 0,0 c -13.158,0.013 -26.317,0.025 -39.475,-0.002 -0.683,-0.001 -1.569,-0.14 -2.011,-0.564 -1.626,-1.561 -3.104,-3.27 -5.074,-5.393 14.085,0 27.426,-0.009 40.767,0.027 0.672,0.002 1.538,0.201 1.982,0.635 1.595,1.558 3.047,3.257 4.635,4.991 C 0.319,-0.114 0.16,0 0,0"
             style="fill:#ffffff;fill-opacity:1;fill-rule:nonzero;stroke:none"
             id="path628" />
        </g>
        <g
           id="g630"
           transform="translate(372.8346,72.791)">
          <path
             d="m 0,0 c -1.004,-0.423 -2.491,-0.437 -3.497,-0.023 -2.031,0.834 -3.723,2.23 -4.834,4.211 -1.366,2.436 -2.775,4.852 -4.263,7.218 -0.579,0.921 -0.426,1.465 0.355,2.137 2.415,2.08 4.773,4.223 7.161,6.333 3.138,2.771 3.376,7.488 0.539,10.645 -0.686,0.763 -1.438,1.12 -2.362,0.405 -1.756,-1.358 -3.497,-2.735 -5.313,-4.159 0.436,-0.608 0.739,-1.027 1.038,-1.449 1.179,-1.668 1.547,-4.389 0.313,-5.607 -2.456,-2.425 -5.167,-4.604 -7.773,-6.884 -0.008,0.006 -0.017,0.011 -0.025,0.017 l 0.506,12.004 v 14.426 c -7.639,0.713 -10.744,-0.631 -12.534,-5.506 h 6.064 V -4.599 c 5.211,4.973 5.202,5.137 5.697,11.107 l 0.029,0.682 c 1.195,-1.999 2.193,-3.795 3.397,-5.443 4.632,-6.34 10.1,-7.173 16.589,-2.649 0.349,0.244 0.679,0.514 1.022,0.766 1.013,0.745 2.028,1.487 3.043,2.23 C 5.178,2.408 5.204,2.722 5.23,3.037 3.497,2 1.847,0.777 0,0"
             style="fill:#ffffff;fill-opacity:1;fill-rule:nonzero;stroke:none"
             id="path632" />
        </g>
        <g
           id="g634"
           transform="translate(169.1044,56.5273)">
          <path
             d="M 0,0 H 1.156 1.169 V -8.712 H 1.156 0 -0.012 V 0 Z"
             style="fill:#ffffff;fill-opacity:1;fill-rule:nonzero;stroke:none"
             id="path636" />
        </g>
        <g
           id="g638"
           transform="translate(180.7305,56.5273)">
          <path
             d="m 0,0 h 1.266 c 0.706,-1.04 2.13,-3.114 4.273,-6.225 0.064,-0.095 0.194,-0.289 0.389,-0.583 v 6.796 L 5.94,0 H 7.097 L 7.109,-0.012 V -8.7 L 7.097,-8.712 H 5.831 C 5.612,-8.41 4.8,-7.229 3.396,-5.165 2.893,-4.444 2.142,-3.356 1.144,-1.904 V -8.7 L 1.132,-8.712 H 0 c -0.008,0 -0.016,0.004 -0.024,0.012 v 8.688 z"
             style="fill:#ffffff;fill-opacity:1;fill-rule:nonzero;stroke:none"
             id="path640" />
        </g>
        <g
           id="g642"
           transform="translate(199.4651,55.3609)">
          <path
             d="m 0,0 v -6.403 h 1.071 c 1.039,0 1.899,0.376 2.581,1.13 0.527,0.619 0.791,1.31 0.791,2.071 0,0.786 -0.272,1.488 -0.816,2.107 -0.316,0.333 -0.564,0.54 -0.742,0.619 C 2.722,-0.365 2.471,-0.25 2.13,-0.131 1.822,-0.036 1.424,0.012 0.937,0.012 H 0.012 C 0.004,0.012 0,0.008 0,0 m -1.156,1.166 h 2.312 c 1.072,0 2.041,-0.352 2.91,-1.059 0.341,-0.309 0.56,-0.535 0.657,-0.678 0.592,-0.802 0.889,-1.667 0.889,-2.595 V -3.225 C 5.612,-4.384 5.161,-5.415 4.26,-6.32 3.765,-6.756 3.282,-7.062 2.812,-7.236 2.268,-7.443 1.736,-7.546 1.217,-7.546 h -2.373 c -0.009,0 -0.017,0.004 -0.025,0.012 v 8.677 z"
             style="fill:#ffffff;fill-opacity:1;fill-rule:nonzero;stroke:none"
             id="path644" />
        </g>
        <g
           id="g646"
           transform="translate(215.0596,56.5273)">
          <path
             d="M 0,0 H 1.156 1.169 V -8.712 H 1.156 0 -0.012 V 0 Z"
             style="fill:#ffffff;fill-opacity:1;fill-rule:nonzero;stroke:none"
             id="path648" />
        </g>
        <g
           id="g650"
           transform="translate(228.3412,50.8501)">
          <path
             d="M 0,0 H 3.262 C 2.995,0.65 2.455,1.956 1.643,3.916 1.627,3.916 1.404,3.38 0.974,2.309 0.755,1.793 0.43,1.024 0,0 m 2.203,5.677 c 0.016,0 0.191,-0.428 0.524,-1.285 0.689,-1.65 1.724,-4.126 3.104,-7.427 H 5.806 4.54 c -0.016,0 -0.073,0.131 -0.17,0.393 -0.138,0.333 -0.345,0.825 -0.621,1.476 h -4.236 c -0.122,-0.31 -0.377,-0.933 -0.767,-1.869 H -2.52 c 0.519,1.246 1.55,3.725 3.092,7.439 0.089,0.214 0.268,0.638 0.536,1.273 z"
             style="fill:#ffffff;fill-opacity:1;fill-rule:nonzero;stroke:none"
             id="path652" />
        </g>
        <g
           id="g654"
           transform="translate(243.753,56.5273)">
          <path
             d="m 0,0 h 1.266 c 0.706,-1.04 2.13,-3.114 4.273,-6.225 0.064,-0.095 0.194,-0.289 0.389,-0.583 v 6.796 L 5.94,0 H 7.097 L 7.109,-0.012 V -8.7 L 7.097,-8.712 H 5.831 C 5.612,-8.41 4.8,-7.229 3.396,-5.165 2.893,-4.444 2.142,-3.356 1.144,-1.904 V -8.7 L 1.132,-8.712 H 0 c -0.008,0 -0.016,0.004 -0.024,0.012 v 8.688 z"
             style="fill:#ffffff;fill-opacity:1;fill-rule:nonzero;stroke:none"
             id="path656" />
        </g>
        <g
           id="g658"
           transform="translate(273.919,55.3728)">
          <path
             d="m 0,0 v -3.428 h 1.838 c 0.584,0 1.087,0.238 1.51,0.714 0.235,0.318 0.353,0.639 0.353,0.964 v 0.084 c 0,0.516 -0.256,0.96 -0.767,1.333 -0.317,0.23 -0.755,0.345 -1.315,0.345 H 0.024 C 0.016,0.012 0.008,0.008 0,0 m -1.144,1.154 h 2.921 c 0.941,0 1.741,-0.345 2.398,-1.035 0.471,-0.555 0.706,-1.166 0.706,-1.833 0,-0.817 -0.337,-1.523 -1.01,-2.118 -0.357,-0.286 -0.67,-0.469 -0.937,-0.548 0,-0.024 0.393,-0.698 1.18,-2.023 0.154,-0.254 0.382,-0.635 0.682,-1.143 V -7.558 H 3.408 c -0.016,0 -0.126,0.191 -0.328,0.572 -0.869,1.483 -1.331,2.285 -1.388,2.404 H 0 v -2.964 l -0.012,-0.012 h -1.132 c -0.008,0 -0.017,0.005 -0.025,0.012 v 8.689 z"
             style="fill:#ffffff;fill-opacity:1;fill-rule:nonzero;stroke:none"
             id="path660" />
        </g>
        <g
           id="g662"
           transform="translate(288.5031,56.5273)">
          <path
             d="M 0,0 H 4.784 V -1.143 H 1.169 v -2.642 h 2.86 L 4.041,-3.797 V -4.915 L 4.029,-4.927 H 1.169 V -7.57 H 4.784 V -8.712 H 0 -0.012 V 0 Z"
             style="fill:#ffffff;fill-opacity:1;fill-rule:nonzero;stroke:none"
             id="path664" />
        </g>
        <g
           id="g666"
           transform="translate(305.7527,56.6225)">
          <path
             d="M 0,0 H 0.11 C 0.572,0 1.026,-0.107 1.473,-0.321 1.619,-0.393 1.761,-0.48 1.899,-0.583 1.963,-0.631 2.073,-0.722 2.228,-0.857 2.382,-1.024 2.495,-1.159 2.568,-1.262 2.625,-1.349 2.678,-1.436 2.727,-1.523 2.491,-1.635 2.138,-1.805 1.668,-2.035 1.635,-1.964 1.558,-1.861 1.436,-1.726 1.063,-1.337 0.6,-1.143 0.049,-1.143 c -0.544,0 -0.983,-0.158 -1.315,-0.476 -0.13,-0.126 -0.211,-0.233 -0.243,-0.321 -0.098,-0.174 -0.146,-0.361 -0.146,-0.559 v -0.036 c 0,-0.278 0.1,-0.492 0.304,-0.643 0.097,-0.071 0.19,-0.127 0.28,-0.166 0.202,-0.119 0.511,-0.234 0.925,-0.346 0.316,-0.087 0.689,-0.174 1.12,-0.261 0.243,-0.072 0.446,-0.147 0.608,-0.227 0.154,-0.071 0.321,-0.17 0.5,-0.297 0.146,-0.127 0.275,-0.258 0.389,-0.393 0.324,-0.428 0.487,-0.9 0.487,-1.416 V -6.308 C 2.958,-6.816 2.8,-7.3 2.483,-7.76 2.426,-7.839 2.329,-7.95 2.191,-8.093 2.004,-8.26 1.854,-8.379 1.741,-8.45 1.61,-8.529 1.469,-8.601 1.315,-8.665 0.884,-8.839 0.442,-8.926 -0.012,-8.926 c -0.706,0 -1.351,0.202 -1.936,0.607 -0.097,0.079 -0.207,0.17 -0.328,0.273 -0.163,0.159 -0.277,0.282 -0.341,0.369 -0.122,0.167 -0.219,0.314 -0.292,0.441 -0.073,0.135 -0.11,0.214 -0.11,0.238 0.235,0.111 0.588,0.273 1.059,0.488 0.065,-0.143 0.154,-0.29 0.268,-0.441 0.057,-0.071 0.137,-0.162 0.243,-0.273 0.154,-0.136 0.28,-0.231 0.378,-0.286 0.332,-0.174 0.677,-0.262 1.035,-0.262 h 0.048 c 0.357,0 0.702,0.088 1.035,0.262 0.089,0.055 0.182,0.123 0.28,0.202 0.113,0.112 0.195,0.21 0.243,0.298 0.138,0.23 0.207,0.472 0.207,0.726 0,0.404 -0.174,0.726 -0.523,0.964 -0.098,0.064 -0.191,0.111 -0.28,0.143 -0.138,0.063 -0.357,0.123 -0.658,0.178 -0.852,0.191 -1.472,0.385 -1.862,0.583 -0.861,0.421 -1.29,1.052 -1.29,1.893 0,0.571 0.186,1.083 0.56,1.535 0.121,0.151 0.251,0.278 0.389,0.381 0.171,0.119 0.317,0.21 0.438,0.274 0.147,0.071 0.317,0.138 0.512,0.202 C -0.629,-0.043 -0.316,0 0,0"
             style="fill:#ffffff;fill-opacity:1;fill-rule:nonzero;stroke:none"
             id="path668" />
        </g>
        <g
           id="g670"
           transform="translate(323.5135,56.5273)">
          <path
             d="M 0,0 V -1.143 H -2.362 V -8.712 H -3.53 -3.542 v 7.569 H -5.904 V 0 Z"
             style="fill:#ffffff;fill-opacity:1;fill-rule:nonzero;stroke:none"
             id="path672" />
        </g>
        <g
           id="g674"
           transform="translate(334.6896,50.8501)">
          <path
             d="M 0,0 H 3.262 C 2.995,0.65 2.455,1.956 1.643,3.916 1.627,3.916 1.403,3.38 0.974,2.309 0.755,1.793 0.43,1.024 0,0 m 2.203,5.677 c 0.016,0 0.191,-0.428 0.524,-1.285 0.689,-1.65 1.724,-4.126 3.104,-7.427 H 5.806 4.54 c -0.016,0 -0.073,0.131 -0.17,0.393 -0.138,0.333 -0.345,0.825 -0.621,1.476 h -4.236 c -0.122,-0.31 -0.377,-0.933 -0.767,-1.869 H -2.52 c 0.519,1.246 1.55,3.725 3.092,7.439 0.089,0.214 0.268,0.638 0.536,1.273 z"
             style="fill:#ffffff;fill-opacity:1;fill-rule:nonzero;stroke:none"
             id="path676" />
        </g>
        <g
           id="g678"
           transform="translate(350.0889,56.5273)">
          <path
             d="M 0,0 H 1.132 L 1.144,-0.012 V -5.32 c 0,-0.643 0.11,-1.115 0.329,-1.416 0.203,-0.341 0.543,-0.591 1.022,-0.75 0.187,-0.048 0.366,-0.072 0.536,-0.072 h 0.864 c 0.69,0 1.23,0.31 1.619,0.929 0.171,0.325 0.256,0.71 0.256,1.154 v 5.463 L 5.794,0 H 6.926 C 6.934,0 6.943,-0.004 6.951,-0.012 V -5.189 C 6.951,-5.88 6.89,-6.375 6.768,-6.677 6.517,-7.367 6.111,-7.891 5.551,-8.248 5.056,-8.557 4.46,-8.712 3.761,-8.712 H 3.177 c -0.933,0 -1.68,0.269 -2.24,0.809 -0.251,0.246 -0.442,0.488 -0.572,0.726 -0.26,0.508 -0.389,1.052 -0.389,1.631 v 5.534 z"
             style="fill:#ffffff;fill-opacity:1;fill-rule:nonzero;stroke:none"
             id="path680" />
        </g>
        <g
           id="g682"
           transform="translate(368.641,55.3728)">
          <path
             d="m 0,0 v -3.428 h 1.838 c 0.584,0 1.088,0.238 1.51,0.714 0.235,0.318 0.353,0.639 0.353,0.964 v 0.084 c 0,0.516 -0.256,0.96 -0.767,1.333 -0.317,0.23 -0.755,0.345 -1.315,0.345 H 0.024 C 0.016,0.012 0.008,0.008 0,0 m -1.144,1.154 h 2.921 c 0.942,0 1.741,-0.345 2.398,-1.035 0.471,-0.555 0.706,-1.166 0.706,-1.833 0,-0.817 -0.336,-1.523 -1.01,-2.118 -0.357,-0.286 -0.67,-0.469 -0.937,-0.548 0,-0.024 0.393,-0.698 1.18,-2.023 0.154,-0.254 0.382,-0.635 0.682,-1.143 V -7.558 H 3.408 c -0.016,0 -0.126,0.191 -0.328,0.572 -0.869,1.483 -1.331,2.285 -1.388,2.404 H 0 v -2.964 l -0.012,-0.012 h -1.132 c -0.008,0 -0.017,0.005 -0.025,0.012 v 8.689 z"
             style="fill:#ffffff;fill-opacity:1;fill-rule:nonzero;stroke:none"
             id="path684" />
        </g>
        <g
           id="g686"
           transform="translate(384.8931,50.8501)">
          <path
             d="M 0,0 H 3.262 C 2.995,0.65 2.455,1.956 1.643,3.916 1.627,3.916 1.403,3.38 0.974,2.309 0.755,1.793 0.43,1.024 0,0 m 2.203,5.677 c 0.016,0 0.191,-0.428 0.524,-1.285 0.689,-1.65 1.724,-4.126 3.104,-7.427 H 5.806 4.54 c -0.016,0 -0.073,0.131 -0.17,0.393 -0.138,0.333 -0.345,0.825 -0.621,1.476 h -4.236 c -0.122,-0.31 -0.377,-0.933 -0.767,-1.869 H -2.52 c 0.519,1.246 1.55,3.725 3.092,7.439 0.089,0.214 0.268,0.638 0.536,1.273 z"
             style="fill:#ffffff;fill-opacity:1;fill-rule:nonzero;stroke:none"
             id="path688" />
        </g>
        <g
           id="g690"
           transform="translate(400.3046,56.5273)">
          <path
             d="m 0,0 h 1.266 c 0.706,-1.04 2.13,-3.114 4.273,-6.225 0.065,-0.095 0.194,-0.289 0.389,-0.583 v 6.796 L 5.94,0 H 7.097 L 7.109,-0.012 V -8.7 L 7.097,-8.712 H 5.831 C 5.612,-8.41 4.8,-7.229 3.396,-5.165 2.893,-4.444 2.142,-3.356 1.144,-1.904 V -8.7 L 1.132,-8.712 H 0 c -0.008,0 -0.016,0.004 -0.024,0.012 v 8.688 z"
             style="fill:#ffffff;fill-opacity:1;fill-rule:nonzero;stroke:none"
             id="path692" />
        </g>
        <g
           id="g694"
           transform="translate(422.8128,56.5273)">
          <path
             d="M 0,0 V -1.143 H -2.362 V -8.712 H -3.53 -3.542 v 7.569 H -5.904 V 0 Z"
             style="fill:#ffffff;fill-opacity:1;fill-rule:nonzero;stroke:none"
             id="path696" />
        </g>
      </g>
    </g>
  </g>
</svg>
