<?xml version="1.0" encoding="UTF-8" standalone="no"?>
<!-- Created with Inkscape (http://www.inkscape.org/) -->

<svg
   version="1.1"
   id="svg2"
   width="393.62793"
   height="341.04321"
   viewBox="0 0 393.62793 341.04321"
   sodipodi:docname="Websites PUBLIX.ai"
   xmlns:inkscape="http://www.inkscape.org/namespaces/inkscape"
   xmlns:sodipodi="http://sodipodi.sourceforge.net/DTD/sodipodi-0.dtd"
   xmlns="http://www.w3.org/2000/svg"
   xmlns:svg="http://www.w3.org/2000/svg">
  <defs
     id="defs6">
    <clipPath
       clipPathUnits="userSpaceOnUse"
       id="clipPath11692">
      <path
         d="M 0,5137.634 H 1736.693 V 0 H 0 Z"
         id="path11690" />
    </clipPath>
  </defs>
  <sodipodi:namedview
     id="namedview4"
     pagecolor="#ffffff"
     bordercolor="#000000"
     borderopacity="0.25"
     inkscape:showpageshadow="2"
     inkscape:pageopacity="0.0"
     inkscape:pagecheckerboard="0"
     inkscape:deskcolor="#d1d1d1"
     showgrid="false" />
  <g
     id="g11284"
     inkscape:groupmode="layer"
     inkscape:label="Page 4"
     transform="matrix(1.3333333,0,0,-1.3333333,-1261.65,3769.1582)">
    <g
       id="g11686">
      <g
         id="g11688"
         clip-path="url(#clipPath11692)">
        <path
           d="m 1032.215,2586.057 h 20.697 v 28.336 h -20.697 z m 82.852,0.033 h 86.878 v 225.952 h -86.878 z m -97.896,-0.122 c 0,11.153 -0.054,21.998 0.018,32.842 0.053,8.102 2.3,10.399 10.209,10.458 9.795,0.073 19.593,0.044 29.389,0.011 9.878,-0.034 11.207,-1.36 11.236,-11.189 0.03,-10.617 0.01,-21.234 0.01,-32.11 h 31.454 v 182.211 H 985.606 v -182.223 h 31.568 z m -46.608,0.588 v 8.114 c 0,57.88 0,115.761 10e-4,173.643 0,14.141 0.811,14.936 15.256,14.936 35.173,0 70.347,0 105.521,0 h 8.673 c 0,11.262 -0.031,21.881 0.01,32.5 0.036,9.25 1.948,11.1 11.497,11.105 31.389,0.019 62.778,0.02 94.167,0 9.682,-0.01 11.428,-1.814 11.43,-11.85 0.012,-73.241 0.01,-146.483 0.01,-219.725 v -9.691 c 4.99,0 9.556,0.045 14.121,-0.01 7.231,-0.088 10.544,-2.476 10.183,-7.563 -0.449,-6.33 -4.893,-6.93 -10.026,-6.926 -77.471,0.056 -154.943,0.038 -232.414,0.038 -14.247,0 -28.496,0.077 -42.742,-0.039 -5.149,-0.042 -9.576,0.667 -9.989,6.983 -0.335,5.116 2.924,7.399 10.242,7.515 4.003,0.064 8.007,0.1 12.011,0.188 0.402,0.01 0.797,0.291 2.053,0.781"
           style="fill:#ffffff;fill-opacity:1;fill-rule:evenodd;stroke:none"
           id="path11694" />
        <path
           d="m 1014.983,2729.783 h 9.158 v 9.147 h -9.158 z m 24.071,4.647 c 0,-3.335 0.065,-6.672 -0.012,-10.005 -0.167,-7.123 -2.142,-9.323 -9.048,-9.512 -6.887,-0.188 -13.785,-0.016 -20.677,-0.05 -5.963,-0.029 -9.193,2.84 -9.275,8.846 -0.096,7.114 -0.103,14.231 10e-4,21.344 0.088,5.962 3.284,8.936 9.232,8.946 6.892,0.01 13.789,0.152 20.676,-0.04 6.805,-0.189 8.911,-2.523 9.089,-9.524 0.084,-3.333 0.014,-6.669 0.014,-10.005"
           style="fill:#ffffff;fill-opacity:1;fill-rule:evenodd;stroke:none"
           id="path11696" />
        <path
           d="m 1070.157,2738.974 h -8.598 v -9.104 h 8.598 z m 15.123,-5.078 c 0,-17.867 2.348,-19.458 -18.789,-19.046 -3.99,0.078 -7.986,-0.063 -11.972,0.101 -5.243,0.216 -8.199,2.782 -8.147,8.339 0.067,7.317 0.069,14.636 -0.01,21.953 -0.06,5.812 2.947,8.613 8.517,8.716 7.094,0.133 14.196,0.194 21.286,0 6.836,-0.191 8.963,-2.536 9.096,-9.415 0.068,-3.547 0.012,-7.097 0.014,-10.645"
           style="fill:#ffffff;fill-opacity:1;fill-rule:evenodd;stroke:none"
           id="path11698" />
        <path
           d="m 1024.365,2691.387 h -9.219 v -8.702 h 9.219 z m 14.69,-4.256 c 0.227,-20.2 0.752,-19.777 -19.583,-19.622 -19.471,0.148 -19.308,0.033 -19.514,19.254 -0.234,21.902 0.726,19.757 19.492,19.706 3.547,-0.01 7.1,-0.13 10.64,0.031 6.179,0.28 9.037,-2.653 8.968,-8.728 -0.04,-3.546 -0.01,-7.094 0,-10.641"
           style="fill:#ffffff;fill-opacity:1;fill-rule:evenodd;stroke:none"
           id="path11700" />
        <path
           d="m 1070.084,2691.402 h -8.571 v -8.84 h 8.571 z m -23.706,-3.798 c -0.329,19.731 -0.394,18.939 18.975,18.916 21.01,-0.024 19.95,1.073 19.986,-19.94 0.034,-18.784 0.818,-19.163 -19.017,-19.123 -21.028,0.042 -20.203,-0.293 -19.944,20.147"
           style="fill:#ffffff;fill-opacity:1;fill-rule:evenodd;stroke:none"
           id="path11702" />
        <path
           d="m 1172.79,2781.369 h -28.545 v -117.561 h 28.545 z m -43.604,-58.316 c 0,20.924 -0.019,41.847 0.01,62.771 0.011,8.522 1.72,10.296 10.028,10.328 13.133,0.051 26.266,0.069 39.398,-0.01 7.3,-0.045 9.448,-2.215 9.456,-9.662 0.043,-42.515 0.04,-85.029 0,-127.544 -0.01,-7.907 -2.337,-10.101 -10.484,-10.124 -12.687,-0.039 -25.375,-0.036 -38.063,0 -8.224,0.023 -10.321,2.053 -10.335,10.137 -0.037,21.368 -0.013,42.737 -0.013,64.106"
           style="fill:#ffffff;fill-opacity:1;fill-rule:evenodd;stroke:none"
           id="path11704" />
      </g>
    </g>
  </g>
</svg>
