<?xml version="1.0" encoding="UTF-8" standalone="no"?>
<!-- Created with Inkscape (http://www.inkscape.org/) -->

<svg
   version="1.1"
   id="svg2"
   width="373.26074"
   height="337.78735"
   viewBox="0 0 373.26075 337.78735"
   sodipodi:docname="Websites PUBLIX.ai"
   xmlns:inkscape="http://www.inkscape.org/namespaces/inkscape"
   xmlns:sodipodi="http://sodipodi.sourceforge.net/DTD/sodipodi-0.dtd"
   xmlns="http://www.w3.org/2000/svg"
   xmlns:svg="http://www.w3.org/2000/svg">
  <defs
     id="defs6">
    <clipPath
       clipPathUnits="userSpaceOnUse"
       id="clipPath11666">
      <path
         d="M 0,5137.634 H 1736.693 V 0 H 0 Z"
         id="path11664" />
    </clipPath>
  </defs>
  <sodipodi:namedview
     id="namedview4"
     pagecolor="#ffffff"
     bordercolor="#000000"
     borderopacity="0.25"
     inkscape:showpageshadow="2"
     inkscape:pageopacity="0.0"
     inkscape:pagecheckerboard="0"
     inkscape:deskcolor="#d1d1d1"
     showgrid="false" />
  <g
     id="g11284"
     inkscape:groupmode="layer"
     inkscape:label="Page 4"
     transform="matrix(1.3333333,0,0,-1.3333333,-660.01871,3765.9472)">
    <g
       id="g11660">
      <g
         id="g11662"
         clip-path="url(#clipPath11666)">
        <g
           id="g11668"
           transform="translate(707.5034,2771.0493)">
          <path
             d="m 0,0 c 5.154,0 10.309,0.018 15.463,-0.008 2.333,-0.011 4.543,0.167 5.545,2.762 0.932,2.418 -0.359,4.046 -1.966,5.626 -4.161,4.091 -8.216,8.289 -12.429,12.324 -1.53,1.467 -2.164,3.009 -2.114,5.125 0.124,5.249 0.069,10.502 0.032,15.754 -0.023,3.228 -1.673,5.179 -4.242,5.168 -2.611,-0.01 -4.203,-1.913 -4.226,-5.185 -0.037,-5.445 0.089,-10.896 -0.105,-16.335 -0.049,-1.379 -0.719,-3.03 -1.66,-4.032 -3.994,-4.248 -8.179,-8.317 -12.334,-12.411 -1.709,-1.684 -3.437,-3.336 -2.394,-6.04 1.118,-2.897 3.66,-2.759 6.134,-2.749 C -9.531,0.016 -4.765,0.003 0,0 m -145.148,0.003 c 5.05,0 10.1,0.032 15.149,-0.013 2.36,-0.022 4.489,0.253 5.53,2.79 1.007,2.453 -0.385,4.051 -1.952,5.607 -4.272,4.241 -8.609,8.422 -12.746,12.792 -0.943,0.997 -1.615,2.648 -1.665,4.025 -0.19,5.335 -0.067,10.68 -0.085,16.021 -0.011,3.435 -1.578,5.48 -4.182,5.529 -2.745,0.053 -4.443,-2.007 -4.475,-5.601 -0.046,-5.341 0.096,-10.687 -0.094,-16.021 -0.05,-1.372 -0.722,-3.015 -1.662,-4.009 -4.197,-4.442 -8.563,-8.728 -12.939,-12.997 -1.613,-1.572 -2.49,-3.312 -1.634,-5.464 0.878,-2.204 2.808,-2.696 5.022,-2.672 5.244,0.055 10.488,0.017 15.733,0.013 m 72.493,-88.469 c -44.438,10e-4 -88.877,10e-4 -133.314,0.002 -5.346,0 -6.519,1.157 -6.519,6.514 -0.003,42.979 -0.001,85.959 0.007,128.938 0.001,5.167 1.24,6.421 6.311,6.421 89.168,0.003 178.336,0.003 267.504,0 4.978,0 6.121,-1.16 6.121,-6.2 0.002,-43.077 0.002,-86.153 -0.001,-129.23 -10e-4,-5.383 -1.074,-6.444 -6.503,-6.444 -44.535,-0.002 -89.071,-0.002 -133.606,-10e-4"
             style="fill:#ffffff;fill-opacity:1;fill-rule:evenodd;stroke:none"
             id="path11670" />
        </g>
        <g
           id="g11672"
           transform="translate(653.5425,2678.1108)">
          <path
             d="m 0,0 v -93.622 c 1.276,-0.069 2.393,-0.182 3.51,-0.183 15.562,-0.012 31.123,0.015 46.684,-0.022 5.374,-0.012 8.613,-4.187 6.946,-8.814 -0.912,-2.53 -2.778,-3.912 -5.397,-4.302 -0.572,-0.084 -1.165,-0.032 -1.749,-0.032 -45.711,-0.001 -91.422,-0.004 -137.133,10e-4 -4.126,0 -6.843,2.082 -7.366,5.57 -0.632,4.215 2.433,7.562 7.111,7.575 14.297,0.039 28.594,0.015 42.891,0.015 2.408,10e-4 4.817,0 7.533,0 V 0 Z"
             style="fill:#ffffff;fill-opacity:1;fill-rule:evenodd;stroke:none"
             id="path11674" />
        </g>
      </g>
    </g>
  </g>
</svg>
