<?xml version="1.0" encoding="UTF-8" standalone="no"?>
<!-- Created with Inkscape (http://www.inkscape.org/) -->

<svg
   version="1.1"
   id="svg2"
   width="628.09424"
   height="177.21735"
   viewBox="0 0 628.09425 177.21735"
   sodipodi:docname="Websites PUBLIX.ai"
   xmlns:inkscape="http://www.inkscape.org/namespaces/inkscape"
   xmlns:sodipodi="http://sodipodi.sourceforge.net/DTD/sodipodi-0.dtd"
   xmlns="http://www.w3.org/2000/svg"
   xmlns:svg="http://www.w3.org/2000/svg">
  <defs
     id="defs6">
    <clipPath
       clipPathUnits="userSpaceOnUse"
       id="clipPath11556">
      <path
         d="m 98.731,4411.552 h 471.072 v 132.913 H 98.731 Z"
         id="path11554" />
    </clipPath>
  </defs>
  <sodipodi:namedview
     id="namedview4"
     pagecolor="#ffffff"
     bordercolor="#000000"
     borderopacity="0.25"
     inkscape:showpageshadow="2"
     inkscape:pageopacity="0.0"
     inkscape:pagecheckerboard="0"
     inkscape:deskcolor="#d1d1d1"
     showgrid="false" />
  <g
     id="g11284"
     inkscape:groupmode="layer"
     inkscape:label="Page 4"
     transform="matrix(1.3333333,0,0,-1.3333333,-131.64225,6059.2865)">
    <g
       id="g11550">
      <g
         id="g11552"
         clip-path="url(#clipPath11556)">
        <g
           id="g11558"
           transform="translate(451.2583,4425.6865)">
          <path
             d="m 0,0 -0.083,-13.717 h -7.112 v 10.848 c 0,5.196 -0.874,7.897 -5.944,7.897 -3.742,0 -7.399,-1.783 -9.558,-3.739 C -22.66,0.871 -22.66,0.459 -22.66,0 l -0.081,-13.717 h -7.11 v 10.848 c 0,5.196 -0.869,7.897 -5.941,7.897 -4.112,0 -8.101,-2.117 -10.146,-4.324 v -14.421 h -7.104 v 24.481 h 7.104 V 6.772 c 2.659,2.125 6.653,4.409 12.719,4.409 3.704,0 7.19,-1.078 9.066,-4.485 3.164,2.367 7.521,4.485 13.597,4.485 C -5.074,11.181 -0.083,8.854 0,0"
             style="fill:#000000;fill-opacity:1;fill-rule:nonzero;stroke:none"
             id="path11560" />
        </g>
        <g
           id="g11562"
           transform="translate(461.3032,4427.0566)">
          <path
             d="M 0,0 H 18.583 C 17.373,3.452 13.889,4.408 9.397,4.408 4.531,4.408 1.128,3.452 0,0 m 18.708,-6.317 h 7.065 c -1.623,-6.233 -7.689,-9.188 -16.752,-9.188 -9.311,0 -16.542,3.663 -16.542,12.635 0,9.019 7.027,12.681 16.957,12.681 9.316,0 16.761,-3.199 16.761,-14.341 H -0.249 c 0.791,-3.907 4.53,-5.196 9.27,-5.196 4.908,0 7.896,0.915 9.687,3.409"
             style="fill:#000000;fill-opacity:1;fill-rule:nonzero;stroke:none"
             id="path11564" />
        </g>
        <g
           id="g11566"
           transform="translate(516.3628,4424.1865)">
          <path
             d="m 0,0 c 0,4.867 -3.493,6.734 -9.849,6.734 -6.365,0 -9.819,-1.867 -9.819,-6.734 0,-4.82 3.454,-6.69 9.819,-6.69 C -3.493,-6.69 0,-4.82 0,0 M 7.108,21.037 V -12.217 H 0 v 3.823 c -2.659,-2.785 -6.938,-4.241 -12.219,-4.241 -7.862,0 -14.591,3.283 -14.591,12.635 0,9.355 6.729,12.681 14.591,12.681 5.281,0 9.56,-1.454 12.219,-4.236 v 12.592 z"
             style="fill:#000000;fill-opacity:1;fill-rule:nonzero;stroke:none"
             id="path11568" />
        </g>
        <path
           d="m 533.925,4411.968 h -7.109 v 24.479 h 7.109 z m 0,27.06 h -7.109 v 6.193 h 7.109 z"
           style="fill:#000000;fill-opacity:1;fill-rule:nonzero;stroke:none"
           id="path11570" />
        <g
           id="g11572"
           transform="translate(562.6558,4421.4883)">
          <path
             d="m 0,0 c -2.501,0.789 -5.865,1.492 -10.396,1.492 -5.318,0 -8.519,-0.914 -8.519,-3.406 0,-2.575 2.371,-2.786 6.066,-2.786 3.868,0 9.19,1.211 12.849,2.786 z M 7.146,2.824 V -9.521 H 0 v 3.032 c -4.325,-2.117 -9.104,-3.445 -14.884,-3.445 -6.854,0 -11.145,2.202 -11.145,7.73 0,6.359 6.989,8.357 14.764,8.357 4.196,0 8.064,-0.672 11.265,-1.745 0,4.653 -5.985,5.029 -9.316,5.029 -3.198,0 -7.103,-0.293 -12.134,-1.791 l -2.533,5.199 c 4.986,1.617 9.891,2.532 15.002,2.532 10.228,0 16.05,-3.283 16.127,-12.553"
             style="fill:#000000;fill-opacity:1;fill-rule:nonzero;stroke:none"
             id="path11574" />
        </g>
        <g
           id="g11576"
           transform="translate(170.3188,4504.4102)">
          <path
             d="m 0,0 c 0,11.893 -9.428,11.893 -15.49,11.893 h -35.901 v -23.674 h 35.901 c 6.062,0 15.49,0 15.49,11.781 m 20.197,0 c 0,-17.507 -12.23,-28.729 -30.072,-28.729 H -51.391 V -49.71 H -71.587 V 28.833 H -9.875 C 7.967,28.833 20.197,17.5 20.197,0"
             style="fill:#afafaf;fill-opacity:1;fill-rule:nonzero;stroke:none"
             id="path11578" />
        </g>
        <g
           id="g11580"
           transform="translate(290.9175,4520.7939)">
          <path
             d="m 0,0 v -66.097 h -19.188 v 11.561 c -9.428,-7.406 -22.444,-12.681 -38.49,-12.681 -17.614,0 -34.109,6.289 -34.331,30.636 L -91.787,0 h 19.303 v -29.288 c 0,-14.022 4.713,-21.319 20.532,-21.319 12.902,0 26.816,6.618 32.764,13.577 V 0 Z"
             style="fill:#afafaf;fill-opacity:1;fill-rule:nonzero;stroke:none"
             id="path11582" />
        </g>
        <g
           id="g11584"
           transform="translate(371.5728,4487.6904)">
          <path
             d="m 0,0 c 0,13.125 -9.314,18.176 -26.479,18.176 -17.167,0 -26.592,-5.051 -26.592,-18.176 0,-13.019 9.425,-18.064 26.592,-18.064 C -9.314,-18.064 0,-13.019 0,0 m 19.295,0 c 0,-25.245 -18.175,-34.113 -39.38,-34.113 -14.247,0 -25.807,3.928 -32.986,11.447 v -10.327 h -19.19 v 89.769 h 19.19 V 22.777 c 7.179,7.514 18.739,11.443 32.986,11.443 21.205,0 39.38,-8.971 39.38,-34.22"
             style="fill:#afafaf;fill-opacity:1;fill-rule:nonzero;stroke:none"
             id="path11586" />
        </g>
        <path
           d="m 417.329,4454.7 h -19.185 v 89.77 h 19.185 z"
           style="fill:#3773b9;fill-opacity:1;fill-rule:nonzero;stroke:none"
           id="path11588" />
        <path
           d="M 445.488,4454.7 H 426.3 v 66.096 h 19.188 z m 0,73.051 H 426.3 v 16.719 h 19.188 z"
           style="fill:#3773b9;fill-opacity:1;fill-rule:nonzero;stroke:none"
           id="path11590" />
        <g
           id="g11592"
           transform="translate(498.2163,4493.9727)">
          <path
             d="m 0,0 -44.208,39.271 h 27.822 L 13.688,12.343 43.643,39.271 H 71.586 L 27.372,0 71.586,-39.272 H 43.643 l -29.955,26.927 -30.074,-26.927 h -27.822 z"
             style="fill:#3773b9;fill-opacity:1;fill-rule:nonzero;stroke:none"
             id="path11594" />
        </g>
      </g>
    </g>
  </g>
</svg>
