<?xml version="1.0" encoding="UTF-8" standalone="no"?>
<!-- Created with Inkscape (http://www.inkscape.org/) -->

<svg
   version="1.1"
   id="svg2"
   width="327.60718"
   height="92.993332"
   viewBox="0 0 327.60718 92.993332"
   sodipodi:docname="CompanyLogo_2.svg"
   inkscape:version="1.2.1 (9c6d41e410, 2022-07-14)"
   xmlns:inkscape="http://www.inkscape.org/namespaces/inkscape"
   xmlns:sodipodi="http://sodipodi.sourceforge.net/DTD/sodipodi-0.dtd"
   xmlns="http://www.w3.org/2000/svg"
   xmlns:svg="http://www.w3.org/2000/svg">
  <defs
     id="defs6">
    <clipPath
       clipPathUnits="userSpaceOnUse"
       id="clipPath7498">
      <path
         d="M 0,6824.825 H 1736.693 V 0 H 0 Z"
         id="path7496" />
    </clipPath>
  </defs>
  <sodipodi:namedview
     id="namedview4"
     pagecolor="#ffffff"
     bordercolor="#000000"
     borderopacity="0.25"
     inkscape:showpageshadow="2"
     inkscape:pageopacity="0.0"
     inkscape:pagecheckerboard="0"
     inkscape:deskcolor="#d1d1d1"
     showgrid="false"
     inkscape:zoom="1.021803"
     inkscape:cx="588.66532"
     inkscape:cy="260.32415"
     inkscape:window-width="1920"
     inkscape:window-height="1017"
     inkscape:window-x="3832"
     inkscape:window-y="-8"
     inkscape:window-maximized="1"
     inkscape:current-layer="g10" />
  <g
     id="g10"
     inkscape:groupmode="layer"
     inkscape:label="Page 1"
     transform="matrix(1.3333333,0,0,-1.3333333,-131.2948,9002.6358)">
    <g
       id="g7492"
       inkscape:export-filename="TEMP\g7492.png"
       inkscape:export-xdpi="96"
       inkscape:export-ydpi="96">
      <g
         id="g7494"
         clip-path="url(#clipPath7498)">
        <text
           xml:space="preserve"
           transform="matrix(1,0,0,-1,749.3818,6685.0146)"
           style="font-variant:normal;font-weight:bold;font-stretch:normal;font-size:26px;font-family:'Gill Sans Std';-inkscape-font-specification:GillSansStd-Bold;writing-mode:lr-tb;display:none;fill:#e8501d;fill-opacity:1;fill-rule:nonzero;stroke:none"
           id="text7502"><tspan
             x="0 22.75 44.147999 60.658001 83.667999 90.896004 106.6 129.35001 152.36 175.11 190.814 252.01019 267.7142 284.22421 300.2662 318.96021 327.61819 347.66422 370.41422 386.11819 468.03381 485.08981 507.83981 523.88177 542.57581 558.27979 581.02979 597.01978 605.6778 628.4278 684.047 704.09302 726.84302 748.78699 764.36102 783.62701 803.67297 820.677 843.427 859.13098"
             y="0"
             sodipodi:role="line"
             id="tspan7500">QUEM SOMOS SERVIÇOS PORTFOLIO CONTACTOS </tspan></text>
        <g
           id="g7504"
           transform="translate(145.9131,6731.2695)">
          <path
             d="m 0,0 c 0,-9.047 -6.316,-14.848 -15.541,-14.848 h -21.46 v -10.847 h -10.441 v 40.599 h 31.901 C -6.316,14.904 0,9.049 0,0 m -10.436,0 c 0,6.146 -4.872,6.146 -8.007,6.146 H -37.001 V -6.09 h 18.558 c 3.135,0 8.007,0 8.007,6.09"
             style="fill:#afb0b0;fill-opacity:1;fill-rule:nonzero;stroke:none"
             id="path7506" />
        </g>
        <g
           id="g7508"
           transform="translate(197.8164,6739.7383)">
          <path
             d="m 0,0 v -34.164 h -9.919 v 5.975 c -4.873,-3.829 -11.602,-6.555 -19.893,-6.555 -9.111,0 -17.63,3.25 -17.748,15.836 L -47.442,0 h 9.974 v -15.141 c 0,-7.248 2.437,-11.019 10.614,-11.019 6.669,0 13.864,3.424 16.935,7.021 V 0 Z"
             style="fill:#afb0b0;fill-opacity:1;fill-rule:nonzero;stroke:none"
             id="path7510" />
        </g>
        <g
           id="g7512"
           transform="translate(249.4854,6722.6289)">
          <path
             d="m 0,0 c 0,-13.051 -9.398,-17.635 -20.359,-17.635 -7.368,0 -13.338,2.03 -17.055,5.92 v -5.34 h -9.913 v 46.403 h 9.913 V 11.775 c 3.717,3.883 9.687,5.914 17.055,5.914 C -9.398,17.689 0,13.051 0,0 m -9.973,0 c 0,6.783 -4.818,9.393 -13.69,9.393 -8.878,0 -13.751,-2.61 -13.751,-9.393 0,-6.73 4.873,-9.338 13.751,-9.338 8.872,0 13.69,2.608 13.69,9.338"
             style="fill:#afb0b0;fill-opacity:1;fill-rule:nonzero;stroke:none"
             id="path7514" />
        </g>
        <path
           d="m 263.161,6705.574 h -9.918 v 46.402 h 9.918 z"
           style="fill:#e8501d;fill-opacity:1;fill-rule:nonzero;stroke:none"
           id="path7516" />
        <path
           d="m 277.714,6743.336 h -9.912 v 8.641 h 9.912 z m 0,-37.762 h -9.912 v 34.164 h 9.912 z"
           style="fill:#e8501d;fill-opacity:1;fill-rule:nonzero;stroke:none"
           id="path7518" />
        <g
           id="g7520"
           transform="translate(304.9717,6725.877)">
          <path
             d="M 0,0 -22.85,20.297 H -8.465 L 7.081,6.379 22.562,20.297 H 37.006 L 14.157,0 37.006,-20.303 H 22.562 L 7.081,-6.385 -8.465,-20.303 H -22.85 Z"
             style="fill:#e8501d;fill-opacity:1;fill-rule:nonzero;stroke:none"
             id="path7522" />
        </g>
        <g
           id="g7524"
           transform="translate(202.0039,6698.3789)">
          <path
             d="M 0,0 C 5.726,0 9.884,-1.891 10.708,-6.396 H 6.526 C 5.86,-4.209 3.544,-3.438 0,-3.438 c -4.183,0 -6.769,-1.146 -6.769,-4.634 0,-3.489 2.586,-4.635 6.769,-4.635 3.544,0 5.86,0.773 6.526,2.957 h 4.182 C 9.884,-14.256 5.726,-16.146 0,-16.146 c -6.421,0 -10.87,2.347 -10.87,8.074 C -10.87,-2.348 -6.421,0 0,0"
             style="fill:#1d1d1b;fill-opacity:1;fill-rule:nonzero;stroke:none"
             id="path7526" />
        </g>
        <g
           id="g7528"
           transform="translate(231.5342,6697.8457)">
          <path
             d="m 0,0 v -3.436 c -1.494,0.372 -2.689,0.532 -4.075,0.532 -2.639,0 -5.676,-0.639 -8.658,-2.852 v -9.588 h -4.104 v 15.61 h 4.104 v -2.664 c 2.555,2.103 5.489,2.931 8.495,2.931 C -2.367,0.533 -1.068,0.266 0,0"
             style="fill:#1d1d1b;fill-opacity:1;fill-rule:nonzero;stroke:none"
             id="path7530" />
        </g>
        <g
           id="g7532"
           transform="translate(249.208,6688.0137)">
          <path
             d="m 0,0 h 4.104 c -1.098,-3.916 -5.091,-5.781 -10.713,-5.781 -5.885,0 -10.599,2.347 -10.599,8.074 0,5.725 4.526,8.072 10.866,8.072 5.807,0 10.709,-1.972 10.709,-9.138 H -13.03 c 0.507,-2.747 3.036,-3.649 6.421,-3.649 3.354,0 5.518,0.69 6.609,2.422 M -12.867,4.049 H -0.03 c -0.769,2.373 -3.165,3.119 -6.34,3.119 -3.46,0 -5.806,-0.746 -6.497,-3.119"
             style="fill:#1d1d1b;fill-opacity:1;fill-rule:nonzero;stroke:none"
             id="path7534" />
        </g>
        <g
           id="g7536"
           transform="translate(276.2061,6690.416)">
          <path
             d="m 0,0 v -7.914 h -4.129 v 1.943 c -2.851,-1.254 -5.994,-2.213 -9.908,-2.213 -4.609,0 -7.225,1.44 -7.225,5.01 0,4.051 4.397,5.381 9.463,5.381 2.793,0 5.459,-0.478 7.67,-1.201 0,3.256 -4.285,3.519 -6.42,3.519 -2.055,0 -4.609,-0.187 -7.908,-1.197 l -1.495,3.008 c 3.196,1.039 6.264,1.627 9.617,1.627 C -3.785,7.963 -0.054,5.912 0,0 m -4.129,-1.762 c -1.756,0.561 -4.101,1.09 -7.273,1.09 -3.518,0 -5.756,-0.664 -5.756,-2.394 0,-1.866 1.707,-2 4.263,-2 2.56,0 6.237,0.853 8.766,1.947 z"
             style="fill:#1d1d1b;fill-opacity:1;fill-rule:nonzero;stroke:none"
             id="path7538" />
        </g>
        <g
           id="g7540"
           transform="translate(285.4111,6694.6777)">
          <path
             d="m 0,0 v -4.824 c 0,-3.408 0.586,-4.182 3.598,-4.182 1.439,0 2.238,0 4.074,0.262 v -3.301 c -1.52,-0.266 -3.227,-0.4 -5.33,-0.4 -3.807,0 -6.469,1.519 -6.469,4.982 V 0 h -4.342 v 3.434 h 4.342 V 6.842 L 0,8.068 V 3.434 H 7.672 V 0 Z"
             style="fill:#1d1d1b;fill-opacity:1;fill-rule:nonzero;stroke:none"
             id="path7542" />
        </g>
        <path
           d="m 299.329,6699.922 h -4.104 v 3.891 h 4.104 z m 0,-17.42 h -4.104 v 15.609 h 4.104 z"
           style="fill:#1d1d1b;fill-opacity:1;fill-rule:nonzero;stroke:none"
           id="path7544" />
        <g
           id="g7546"
           transform="translate(323.2275,6698.1113)">
          <path
             d="m 0,0 -8.287,-15.609 h -5.859 L -22.404,0 h 4.58 L -11.221,-12.68 -4.609,0 Z"
             style="fill:#1d1d1b;fill-opacity:1;fill-rule:nonzero;stroke:none"
             id="path7548" />
        </g>
        <g
           id="g7550"
           transform="translate(339.8105,6688.0137)">
          <path
             d="m 0,0 h 4.103 c -1.096,-3.916 -5.09,-5.781 -10.707,-5.781 -5.891,0 -10.604,2.347 -10.604,8.074 0,5.725 4.525,8.072 10.865,8.072 5.807,0 10.709,-1.972 10.709,-9.138 h -17.398 c 0.507,-2.747 3.043,-3.649 6.428,-3.649 3.353,0 5.511,0.69 6.604,2.422 M -12.872,4.049 H -0.03 c -0.775,2.373 -3.166,3.119 -6.336,3.119 -3.463,0 -5.811,-0.746 -6.506,-3.119"
             style="fill:#1d1d1b;fill-opacity:1;fill-rule:nonzero;stroke:none"
             id="path7552" />
        </g>
      </g>
    </g>
    <path
       style="fill:#e8501d;fill-opacity:1;stroke-width:0.230615"
       d="m 135.98167,92.814677 c -6.69619,-0.452856 -10.93357,-3.20291 -12.01694,-7.798981 -0.34524,-1.46463 -0.34087,-4.230865 0.009,-5.581579 0.71201,-2.750307 2.4707,-4.870787 5.08795,-6.134608 2.62368,-1.266929 6.34115,-1.887543 10.20727,-1.704055 7.02242,0.333287 11.37221,2.848517 12.69008,7.337928 l 0.26662,0.908275 h -2.73999 c -2.72619,0 -2.74051,-0.002 -2.84131,-0.403678 -0.17017,-0.678013 -1.40578,-1.919419 -2.39025,-2.401468 -1.64569,-0.805815 -3.42539,-1.05385 -6.87055,-0.957546 -3.36335,0.09402 -4.58202,0.357261 -6.09338,1.316225 -1.63585,1.037952 -2.27341,2.392631 -2.29131,4.868532 -0.0102,1.415216 0.0496,1.775734 0.43088,2.59507 1.10007,2.364099 3.22719,3.365317 7.59015,3.572619 4.98688,0.236947 8.10972,-0.756541 9.36402,-2.979026 l 0.53028,-0.939602 h 2.66835 2.66835 l -0.10627,0.475763 c -0.18314,0.819876 -1.2127,2.865859 -1.82817,3.633023 -1.78732,2.227821 -5.49192,3.840441 -9.42751,4.103808 -0.84342,0.05644 -1.88382,0.127264 -2.31201,0.157384 -0.42818,0.03012 -1.59597,-5.19e-4 -2.59507,-0.06808 z"
       id="path1043"
       transform="matrix(0.75000002,0,0,-0.75000002,98.471102,6751.977)" />
    <path
       style="fill:#e8501d;fill-opacity:1;stroke-width:0.230615"
       d="M 155.01219,82.17722 V 71.883442 h 2.68157 2.68157 v 1.82529 1.82529 l 1.08128,-0.769582 c 4.15012,-2.953781 9.6713,-3.941029 15.05141,-2.691356 l 0.82177,0.190878 v 2.166929 2.166928 l -0.56227,-0.112865 c -2.94297,-0.590748 -7.1492,-0.571153 -9.5819,0.04464 -1.82289,0.461431 -4.17956,1.482843 -5.64637,2.44721 l -1.16392,0.765235 v 6.36448 6.364481 h -2.68157 -2.68157 z"
       id="path1045"
       transform="matrix(0.75000002,0,0,-0.75000002,98.471102,6751.977)" />
    <path
       style="fill:#e8501d;fill-opacity:1;stroke-width:0.230615"
       d="m 190.13214,92.797125 c -6.30011,-0.419207 -10.50276,-3.243218 -11.67472,-7.844928 -0.34621,-1.359411 -0.33972,-4.157425 0.0128,-5.51808 0.70417,-2.717922 2.50187,-4.88566 5.08774,-6.134976 3.82771,-1.849296 9.99275,-2.285009 14.8784,-1.051529 4.88984,1.234538 7.76731,4.732903 8.22695,10.002129 l 0.12195,1.398018 h -11.6324 -11.63241 l 0.11541,0.475763 c 0.51097,2.106464 2.12416,3.467762 4.90272,4.13718 1.54299,0.371744 5.84514,0.365745 7.63245,-0.01064 1.76708,-0.372129 3.30629,-1.131642 4.21472,-2.079725 l 0.75937,-0.79253 h 2.53823 c 2.00642,0 2.53822,0.04858 2.53822,0.231874 0,0.127531 -0.24714,0.726449 -0.5492,1.330929 -0.64826,1.297285 -2.23455,2.937258 -3.65339,3.777031 -2.73103,1.616428 -7.17151,2.393243 -11.88684,2.079485 z m 10.80472,-13.171724 c -0.35208,-1.162551 -1.67033,-2.528157 -2.99016,-3.09758 -2.62664,-1.133223 -8.61489,-1.129355 -11.18432,0.0072 -1.49266,0.660276 -2.54326,1.765129 -2.93861,3.090355 l -0.11612,0.38926 h 8.67355 8.67355 z"
       id="path1047"
       transform="matrix(0.75000002,0,0,-0.75000002,98.471102,6751.977)" />
    <path
       style="fill:#e8501d;fill-opacity:1;stroke-width:0.230615"
       d="m 216.39728,92.805319 c -4.60538,-0.331339 -7.09957,-2.128169 -7.57055,-5.453879 -0.66382,-4.687422 2.84108,-7.468302 10.10254,-8.01561 3.63841,-0.274232 8.25564,0.201694 11.4697,1.182254 l 1.08128,0.329881 v -0.595213 c 0,-1.317147 -0.97413,-2.58544 -2.53445,-3.299778 -1.43172,-0.655462 -3.25273,-0.917758 -6.34726,-0.914251 -3.09627,0.0035 -5.48588,0.284829 -8.29086,0.976052 -1.02392,0.25232 -1.89081,0.427162 -1.92644,0.388539 -0.16061,-0.174139 -1.84962,-3.659427 -1.79827,-3.710774 0.15566,-0.155659 3.40142,-1.006089 5.24036,-1.373041 3.76942,-0.75217 7.32197,-0.953825 10.60335,-0.601882 5.96605,0.639882 9.20601,3.042947 10.15736,7.533672 0.19426,0.916975 0.25405,2.598006 0.25635,7.207796 l 0.003,6.011913 h -2.68158 -2.68157 v -1.211033 c 0,-0.666068 -0.054,-1.211033 -0.12005,-1.211033 -0.066,0 -0.92099,0.313147 -1.8999,0.695884 -4.14323,1.619922 -8.85551,2.363216 -13.06302,2.060503 z m 7.12476,-4.232506 c 1.9481,-0.31256 5.02211,-1.108758 6.74184,-1.746201 l 1.2317,-0.456546 -0.0509,-1.054159 -0.0509,-1.05416 -1.5217,-0.388599 c -2.8174,-0.719483 -5.26623,-0.961244 -8.77208,-0.866025 -3.42888,0.09313 -4.45933,0.280862 -5.77556,1.052227 -1.20116,0.703927 -1.61919,1.991874 -1.07175,3.302076 0.25123,0.601273 0.94725,1.078697 1.91668,1.314702 0.96694,0.235401 5.65187,0.169571 7.3527,-0.103315 z"
       id="path1049"
       transform="matrix(0.75000002,0,0,-0.75000002,98.471102,6751.977)" />
    <path
       style="fill:#e8501d;fill-opacity:1;stroke-width:0.230615"
       d="m 250.85678,92.800902 c -4.08448,-0.359592 -6.44786,-2.228928 -6.91661,-5.470738 -0.0933,-0.64561 -0.17127,-3.373159 -0.17316,-6.061219 l -0.003,-4.887382 h -2.85457 -2.85458 v -2.249061 -2.24906 h 2.84956 2.84955 l 0.0483,-2.267668 0.0483,-2.267667 2.50856,-0.753954 c 1.37972,-0.414675 2.56696,-0.756636 2.63833,-0.759915 0.0714,-0.0033 0.12975,1.356452 0.12975,3.021622 v 3.027582 h 5.10364 5.10363 v 2.24906 2.249061 h -5.10363 -5.10364 l 0.003,3.849354 c 0.005,5.878192 0.25794,6.951593 1.82213,7.741959 0.81588,0.412262 0.99772,0.432512 3.88354,0.432512 1.66517,0 3.35846,-0.05931 3.76285,-0.131799 l 0.73527,-0.131798 v 2.14395 2.14395 l -1.9463,0.188646 c -2.62956,0.254869 -4.96736,0.32022 -6.53092,0.182565 z"
       id="path1051"
       transform="matrix(0.75000002,0,0,-0.75000002,98.471102,6751.977)" />
    <path
       style="fill:#e8501d;fill-opacity:1;stroke-width:0.230615"
       d="M 262.44809,82.17722 V 71.883442 h 2.68157 2.68157 V 82.17722 92.470998 h -2.68157 -2.68157 z"
       id="path1053"
       transform="matrix(0.75000002,0,0,-0.75000002,98.471102,6751.977)" />
    <path
       style="fill:#e8501d;fill-opacity:1;stroke-width:0.230615"
       d="m 262.44809,66.779804 v -2.508568 h 2.68157 2.68157 v 2.508568 2.508567 h -2.68157 -2.68157 z"
       id="path1055"
       transform="matrix(0.75000002,0,0,-0.75000002,98.471102,6751.977)" />
    <path
       style="fill:#e8501d;fill-opacity:1;stroke-width:0.326139"
       d="m 276.47454,84.109748 c -2.4748,-4.67945 -4.92862,-9.306313 -5.45295,-10.281917 l -0.95332,-1.773825 h 2.8965 2.89651 l 4.39511,8.42901 c 2.41731,4.635955 4.45256,8.371563 4.52277,8.30135 0.0702,-0.07021 2.06576,-3.835742 4.43455,-8.367843 l 4.30689,-8.240184 2.85269,-0.06893 c 1.56897,-0.03791 2.84922,0.01714 2.845,0.122332 -0.004,0.105196 -2.40902,4.705344 -5.34398,10.222552 l -5.3363,10.031288 -3.78192,0.06713 -3.78193,0.06713 z"
       id="path1057"
       transform="matrix(0.75000002,0,0,-0.75000002,98.471102,6751.977)" />
    <path
       style="fill:#e8501d;fill-opacity:1;stroke-width:0.326139"
       d="m 309.21588,92.616211 c -4.81803,-0.880369 -7.79123,-2.81832 -9.34039,-6.088127 -0.72051,-1.520769 -0.77185,-1.80816 -0.77185,-4.320458 0,-2.409802 0.0688,-2.838106 0.65767,-4.094591 1.31638,-2.808791 2.95424,-4.225773 6.25521,-5.411651 4.82206,-1.732332 12.54397,-1.345729 16.32455,0.8173 3.02144,1.728689 5.02144,5.258634 5.02144,8.862679 v 1.171924 h -11.49928 c -12.78442,0 -11.95011,-0.125613 -11.03376,1.661239 0.25604,0.499262 0.72533,1.150095 1.04288,1.446296 1.49234,1.392028 5.03561,2.195424 8.52289,1.932466 3.47113,-0.261741 5.37792,-0.922672 6.71291,-2.326837 0.71245,-0.749362 0.74023,-0.75584 3.24182,-0.75584 1.85668,0 2.5226,0.08079 2.52092,0.305832 -0.005,0.644389 -1.48848,2.856239 -2.49391,3.717989 -1.30697,1.1202 -3.54225,2.203564 -5.59934,2.71381 -1.81115,0.449241 -7.84599,0.681482 -9.56176,0.367969 z m 12.51932,-13.04311 c 0,-0.553135 -1.18585,-2.073525 -2.01032,-2.577452 -1.52119,-0.929774 -3.28334,-1.271828 -6.53621,-1.268756 -3.43343,0.0032 -5.1693,0.351878 -6.65833,1.337275 -0.94026,0.622236 -1.91898,1.902855 -1.92081,2.513304 -7.1e-4,0.238857 1.87437,0.305832 8.56238,0.305832 6.75188,0 8.56329,-0.06562 8.56329,-0.310203 z"
       id="path1059"
       transform="matrix(0.75000002,0,0,-0.75000002,98.471102,6751.977)" />
  </g>
</svg>
