<?xml version="1.0" encoding="UTF-8" standalone="no"?>
<!-- Created with Inkscape (http://www.inkscape.org/) -->

<svg
   version="1.1"
   id="svg2"
   width="327.60718"
   height="92.993332"
   viewBox="0 0 327.60718 92.993332"
   sodipodi:docname="Websites PUBLIX.ai"
   xmlns:inkscape="http://www.inkscape.org/namespaces/inkscape"
   xmlns:sodipodi="http://sodipodi.sourceforge.net/DTD/sodipodi-0.dtd"
   xmlns="http://www.w3.org/2000/svg"
   xmlns:svg="http://www.w3.org/2000/svg">
  <defs
     id="defs6">
    <clipPath
       clipPathUnits="userSpaceOnUse"
       id="clipPath7498">
      <path
         d="M 0,6824.825 H 1736.693 V 0 H 0 Z"
         id="path7496" />
    </clipPath>
  </defs>
  <sodipodi:namedview
     id="namedview4"
     pagecolor="#ffffff"
     bordercolor="#000000"
     borderopacity="0.25"
     inkscape:showpageshadow="2"
     inkscape:pageopacity="0.0"
     inkscape:pagecheckerboard="0"
     inkscape:deskcolor="#d1d1d1"
     showgrid="false" />
  <g
     id="g10"
     inkscape:groupmode="layer"
     inkscape:label="Page 1"
     transform="matrix(1.3333333,0,0,-1.3333333,-131.2948,9002.6358)">
    <g
       id="g7492"
       inkscape:export-filename="TEMP\g7492.png"
       inkscape:export-xdpi="96"
       inkscape:export-ydpi="96">
      <g
         id="g7494"
         clip-path="url(#clipPath7498)">
        <text
           xml:space="preserve"
           transform="matrix(1,0,0,-1,749.3818,6685.0146)"
           style="font-variant:normal;font-weight:bold;font-stretch:normal;font-size:26px;font-family:'Gill Sans Std';-inkscape-font-specification:GillSansStd-Bold;writing-mode:lr-tb;display:none;fill:#e8501d;fill-opacity:1;fill-rule:nonzero;stroke:none"
           id="text7502"><tspan
             x="0 22.75 44.147999 60.658001 83.667999 90.896004 106.6 129.35001 152.36 175.11 190.814 252.01019 267.7142 284.22421 300.2662 318.96021 327.61819 347.66422 370.41422 386.11819 468.03381 485.08981 507.83981 523.88177 542.57581 558.27979 581.02979 597.01978 605.6778 628.4278 684.047 704.09302 726.84302 748.78699 764.36102 783.62701 803.67297 820.677 843.427 859.13098"
             y="0"
             sodipodi:role="line"
             id="tspan7500">QUEM SOMOS SERVIÇOS PORTFOLIO CONTACTOS </tspan></text>
        <g
           id="g7504"
           transform="translate(145.9131,6731.2695)">
          <path
             d="m 0,0 c 0,-9.047 -6.316,-14.848 -15.541,-14.848 h -21.46 v -10.847 h -10.441 v 40.599 h 31.901 C -6.316,14.904 0,9.049 0,0 m -10.436,0 c 0,6.146 -4.872,6.146 -8.007,6.146 H -37.001 V -6.09 h 18.558 c 3.135,0 8.007,0 8.007,6.09"
             style="fill:#afb0b0;fill-opacity:1;fill-rule:nonzero;stroke:none"
             id="path7506" />
        </g>
        <g
           id="g7508"
           transform="translate(197.8164,6739.7383)">
          <path
             d="m 0,0 v -34.164 h -9.919 v 5.975 c -4.873,-3.829 -11.602,-6.555 -19.893,-6.555 -9.111,0 -17.63,3.25 -17.748,15.836 L -47.442,0 h 9.974 v -15.141 c 0,-7.248 2.437,-11.019 10.614,-11.019 6.669,0 13.864,3.424 16.935,7.021 V 0 Z"
             style="fill:#afb0b0;fill-opacity:1;fill-rule:nonzero;stroke:none"
             id="path7510" />
        </g>
        <g
           id="g7512"
           transform="translate(249.4854,6722.6289)">
          <path
             d="m 0,0 c 0,-13.051 -9.398,-17.635 -20.359,-17.635 -7.368,0 -13.338,2.03 -17.055,5.92 v -5.34 h -9.913 v 46.403 h 9.913 V 11.775 c 3.717,3.883 9.687,5.914 17.055,5.914 C -9.398,17.689 0,13.051 0,0 m -9.973,0 c 0,6.783 -4.818,9.393 -13.69,9.393 -8.878,0 -13.751,-2.61 -13.751,-9.393 0,-6.73 4.873,-9.338 13.751,-9.338 8.872,0 13.69,2.608 13.69,9.338"
             style="fill:#afb0b0;fill-opacity:1;fill-rule:nonzero;stroke:none"
             id="path7514" />
        </g>
        <path
           d="m 263.161,6705.574 h -9.918 v 46.402 h 9.918 z"
           style="fill:#e8501d;fill-opacity:1;fill-rule:nonzero;stroke:none"
           id="path7516" />
        <path
           d="m 277.714,6743.336 h -9.912 v 8.641 h 9.912 z m 0,-37.762 h -9.912 v 34.164 h 9.912 z"
           style="fill:#e8501d;fill-opacity:1;fill-rule:nonzero;stroke:none"
           id="path7518" />
        <g
           id="g7520"
           transform="translate(304.9717,6725.877)">
          <path
             d="M 0,0 -22.85,20.297 H -8.465 L 7.081,6.379 22.562,20.297 H 37.006 L 14.157,0 37.006,-20.303 H 22.562 L 7.081,-6.385 -8.465,-20.303 H -22.85 Z"
             style="fill:#e8501d;fill-opacity:1;fill-rule:nonzero;stroke:none"
             id="path7522" />
        </g>
        <g
           id="g7524"
           transform="translate(202.0039,6698.3789)">
          <path
             d="M 0,0 C 5.726,0 9.884,-1.891 10.708,-6.396 H 6.526 C 5.86,-4.209 3.544,-3.438 0,-3.438 c -4.183,0 -6.769,-1.146 -6.769,-4.634 0,-3.489 2.586,-4.635 6.769,-4.635 3.544,0 5.86,0.773 6.526,2.957 h 4.182 C 9.884,-14.256 5.726,-16.146 0,-16.146 c -6.421,0 -10.87,2.347 -10.87,8.074 C -10.87,-2.348 -6.421,0 0,0"
             style="fill:#1d1d1b;fill-opacity:1;fill-rule:nonzero;stroke:none"
             id="path7526" />
        </g>
        <g
           id="g7528"
           transform="translate(231.5342,6697.8457)">
          <path
             d="m 0,0 v -3.436 c -1.494,0.372 -2.689,0.532 -4.075,0.532 -2.639,0 -5.676,-0.639 -8.658,-2.852 v -9.588 h -4.104 v 15.61 h 4.104 v -2.664 c 2.555,2.103 5.489,2.931 8.495,2.931 C -2.367,0.533 -1.068,0.266 0,0"
             style="fill:#1d1d1b;fill-opacity:1;fill-rule:nonzero;stroke:none"
             id="path7530" />
        </g>
        <g
           id="g7532"
           transform="translate(249.208,6688.0137)">
          <path
             d="m 0,0 h 4.104 c -1.098,-3.916 -5.091,-5.781 -10.713,-5.781 -5.885,0 -10.599,2.347 -10.599,8.074 0,5.725 4.526,8.072 10.866,8.072 5.807,0 10.709,-1.972 10.709,-9.138 H -13.03 c 0.507,-2.747 3.036,-3.649 6.421,-3.649 3.354,0 5.518,0.69 6.609,2.422 M -12.867,4.049 H -0.03 c -0.769,2.373 -3.165,3.119 -6.34,3.119 -3.46,0 -5.806,-0.746 -6.497,-3.119"
             style="fill:#1d1d1b;fill-opacity:1;fill-rule:nonzero;stroke:none"
             id="path7534" />
        </g>
        <g
           id="g7536"
           transform="translate(276.2061,6690.416)">
          <path
             d="m 0,0 v -7.914 h -4.129 v 1.943 c -2.851,-1.254 -5.994,-2.213 -9.908,-2.213 -4.609,0 -7.225,1.44 -7.225,5.01 0,4.051 4.397,5.381 9.463,5.381 2.793,0 5.459,-0.478 7.67,-1.201 0,3.256 -4.285,3.519 -6.42,3.519 -2.055,0 -4.609,-0.187 -7.908,-1.197 l -1.495,3.008 c 3.196,1.039 6.264,1.627 9.617,1.627 C -3.785,7.963 -0.054,5.912 0,0 m -4.129,-1.762 c -1.756,0.561 -4.101,1.09 -7.273,1.09 -3.518,0 -5.756,-0.664 -5.756,-2.394 0,-1.866 1.707,-2 4.263,-2 2.56,0 6.237,0.853 8.766,1.947 z"
             style="fill:#1d1d1b;fill-opacity:1;fill-rule:nonzero;stroke:none"
             id="path7538" />
        </g>
        <g
           id="g7540"
           transform="translate(285.4111,6694.6777)">
          <path
             d="m 0,0 v -4.824 c 0,-3.408 0.586,-4.182 3.598,-4.182 1.439,0 2.238,0 4.074,0.262 v -3.301 c -1.52,-0.266 -3.227,-0.4 -5.33,-0.4 -3.807,0 -6.469,1.519 -6.469,4.982 V 0 h -4.342 v 3.434 h 4.342 V 6.842 L 0,8.068 V 3.434 H 7.672 V 0 Z"
             style="fill:#1d1d1b;fill-opacity:1;fill-rule:nonzero;stroke:none"
             id="path7542" />
        </g>
        <path
           d="m 299.329,6699.922 h -4.104 v 3.891 h 4.104 z m 0,-17.42 h -4.104 v 15.609 h 4.104 z"
           style="fill:#1d1d1b;fill-opacity:1;fill-rule:nonzero;stroke:none"
           id="path7544" />
        <g
           id="g7546"
           transform="translate(323.2275,6698.1113)">
          <path
             d="m 0,0 -8.287,-15.609 h -5.859 L -22.404,0 h 4.58 L -11.221,-12.68 -4.609,0 Z"
             style="fill:#1d1d1b;fill-opacity:1;fill-rule:nonzero;stroke:none"
             id="path7548" />
        </g>
        <g
           id="g7550"
           transform="translate(339.8105,6688.0137)">
          <path
             d="m 0,0 h 4.103 c -1.096,-3.916 -5.09,-5.781 -10.707,-5.781 -5.891,0 -10.604,2.347 -10.604,8.074 0,5.725 4.525,8.072 10.865,8.072 5.807,0 10.709,-1.972 10.709,-9.138 h -17.398 c 0.507,-2.747 3.043,-3.649 6.428,-3.649 3.353,0 5.511,0.69 6.604,2.422 M -12.872,4.049 H -0.03 c -0.775,2.373 -3.166,3.119 -6.336,3.119 -3.463,0 -5.811,-0.746 -6.506,-3.119"
             style="fill:#1d1d1b;fill-opacity:1;fill-rule:nonzero;stroke:none"
             id="path7552" />
        </g>
      </g>
    </g>
  </g>
</svg>
