<?xml version="1.0" encoding="UTF-8" standalone="no"?>
<!-- Created with Inkscape (http://www.inkscape.org/) -->

<svg
   version="1.1"
   id="svg2"
   width="328.53955"
   height="240.79102"
   viewBox="0 0 328.53956 240.79101"
   sodipodi:docname="Websites PUBLIX.ai"
   xmlns:inkscape="http://www.inkscape.org/namespaces/inkscape"
   xmlns:sodipodi="http://sodipodi.sourceforge.net/DTD/sodipodi-0.dtd"
   xmlns="http://www.w3.org/2000/svg"
   xmlns:svg="http://www.w3.org/2000/svg">
  <defs
     id="defs6">
    <clipPath
       clipPathUnits="userSpaceOnUse"
       id="clipPath8690">
      <path
         d="M 0,6824.825 H 1736.693 V 0 H 0 Z"
         id="path8688" />
    </clipPath>
  </defs>
  <sodipodi:namedview
     id="namedview4"
     pagecolor="#ffffff"
     bordercolor="#000000"
     borderopacity="0.25"
     inkscape:showpageshadow="2"
     inkscape:pageopacity="0.0"
     inkscape:pagecheckerboard="0"
     inkscape:deskcolor="#d1d1d1"
     showgrid="false" />
  <g
     id="g10"
     inkscape:groupmode="layer"
     inkscape:label="Page 1"
     transform="matrix(1.3333333,0,0,-1.3333333,-1523.3319,6248.2364)">
    <g
       id="g8684">
      <g
         id="g8686"
         clip-path="url(#clipPath8690)">
        <g
           id="g8716"
           transform="translate(1150.4004,4653.6211)">
          <path
             d="m 0,0 h 230.655 c 0,3.822 0.014,7.324 -0.004,10.828 -0.041,9.076 -4.99,13.996 -14.076,13.994 -65.816,-0.01 -131.632,-0.023 -197.447,-0.033 -2.481,0 -4.969,0.121 -7.442,-0.027 C 5.636,24.404 0.531,19.859 0.071,13.99 -0.287,9.469 0,4.893 0,0 m 115.448,-8.104 c -37.09,0 -74.174,-0.027 -111.261,0.055 -3.012,0.006 -4.368,-0.488 -4.357,-3.992 0.124,-38.26 0.058,-76.518 0.097,-114.775 0.008,-8.18 5.033,-13.305 13.137,-13.309 68.169,-0.035 136.335,-0.035 204.501,0.002 7.948,0.006 12.868,5.037 13.065,12.975 0.025,1.043 0.047,2.087 0.047,3.13 -0.002,37.086 -0.065,74.176 0.073,111.262 0.017,3.826 -1.12,4.746 -4.826,4.733 -36.825,-0.131 -73.652,-0.081 -110.476,-0.081 m 0.018,40.655 c 33.695,0 67.391,0.017 101.086,-0.01 13.72,-0.01 21.871,-8.127 21.89,-21.949 0.062,-45.969 0.074,-91.934 0.049,-137.903 -0.005,-11.376 -7.972,-19.771 -19.351,-20.57 -2.21,-0.154 -4.437,-0.129 -6.655,-0.131 -65.824,-0.013 -131.652,-0.013 -197.474,-0.025 -14.716,-0.004 -22.903,8.049 -22.907,22.633 -0.004,45.451 -0.019,90.902 0.028,136.351 0.014,10.881 5.642,18.59 15.252,20.998 2.119,0.53 4.395,0.578 6.599,0.582 33.827,0.036 67.655,0.024 101.483,0.024"
             style="fill:#bfbfbf;fill-opacity:1;fill-rule:evenodd;stroke:none"
             id="path8718" />
        </g>
        <g
           id="g8720"
           transform="translate(1306.1279,4616.9941)">
          <path
             d="m 0,0 c -2.553,-4.457 -4.908,-8.357 -6.996,-12.4 -0.436,-0.84 -0.259,-2.801 0.332,-3.192 1.043,-0.681 2.723,-0.963 3.94,-0.652 1.3,0.336 2.271,1.943 3.572,2.281 1.46,0.383 3.756,0.578 4.543,-0.248 0.963,-1.002 1.171,-3.223 0.902,-4.779 -0.272,-1.578 -2.201,-3 -2.175,-4.465 0.032,-1.787 1.196,-3.645 2.2,-5.268 0.305,-0.494 1.918,-0.714 2.56,-0.369 4.218,2.26 8.334,4.707 12.857,7.311 C 15.986,-12.873 8.988,-5.914 0,0 m -80.891,-0.039 c -8.908,-5.77 -15.941,-12.799 -21.739,-21.766 5.066,-2.9 9.737,-5.576 13.737,-7.867 5.254,4.965 10.004,9.373 14.623,13.92 0.613,0.606 1.05,2.18 0.699,2.844 -2.236,4.238 -4.71,8.347 -7.32,12.869 m 36.553,11.896 c -10.787,-0.552 -20.359,-3.066 -29.658,-8.035 2.558,-4.488 4.752,-8.617 7.279,-12.523 0.465,-0.721 2.395,-0.985 3.478,-0.731 5.421,1.27 10.801,2.717 16.149,4.264 1.024,0.297 2.596,1.283 2.629,2.012 0.236,4.89 0.123,9.793 0.123,15.013 m 7.794,-0.386 c 0,-4.83 -0.094,-9.731 0.105,-14.619 0.029,-0.704 1.359,-1.704 2.26,-1.965 5.593,-1.612 11.227,-3.108 16.882,-4.492 0.908,-0.221 2.55,-0.022 2.921,0.566 2.593,4.137 4.939,8.424 7.338,12.615 -6.808,4.621 -21.577,8.582 -29.506,7.895 M 8.852,-62.275 c 0.812,10.115 -4.997,26.316 -10.42,29.162 -5.541,-9.492 -11.082,-18.991 -17.016,-29.162 z m 8.485,-0.163 c 4.6,0 9.028,0.081 13.452,-0.033 2.415,-0.06 3.391,0.885 3.018,3.258 -0.836,5.404 -1.303,10.902 -2.608,16.192 -1.196,4.845 -3.295,9.466 -5.162,14.65 -5.363,-3.1 -9.951,-5.752 -14.574,-8.424 1.406,-4.344 3.004,-8.338 3.957,-12.478 0.953,-4.143 1.258,-8.434 1.917,-13.165 m -123.835,33.836 c -5.42,-10.146 -7.784,-20.552 -8.1,-31.455 -0.025,-0.765 1.611,-2.168 2.578,-2.269 2.961,-0.307 5.994,0.076 8.965,-0.18 3.825,-0.33 5.956,0.686 5.498,5.022 -0.164,1.509 0.152,3.13 0.541,4.627 1.397,5.345 2.916,10.662 4.448,16.185 -4.436,2.572 -8.914,5.164 -13.93,8.07 m 95.389,-5.105 c -0.307,0.228 -0.612,0.461 -0.92,0.693 -10.932,-8.656 -21.856,-17.326 -32.809,-25.965 -3.154,-2.486 -4.795,-5.689 -3.731,-9.58 0.803,-2.931 2.623,-5.363 6.053,-5.984 4.44,-0.799 7.61,0.939 9.86,4.664 5.536,9.154 11.076,18.313 16.576,27.49 1.715,2.86 3.318,5.785 4.971,8.682 m 37.384,-37.342 c -0.884,0.637 -1.086,0.912 -1.291,0.912 -14.332,-0.025 -28.671,-0.258 -42.998,-0.006 -4.009,0.069 -6.759,-0.962 -8.564,-4.42 -5.608,-10.757 -22.954,-10.984 -28.406,1.401 -0.957,2.174 -2.289,2.99 -4.752,2.973 -13.559,-0.094 -27.118,0.009 -40.676,0.046 -2.506,0.006 -5.012,0 -7.514,0 2.434,-3.73 5.387,-6.123 7.619,-9.062 4.83,-6.348 10.791,-8.209 18.816,-8.057 28.656,0.537 57.329,0.203 85.995,0.241 1.262,0 2.877,-0.042 3.735,0.66 6.015,4.925 11.877,10.043 18.036,15.312 m -37.052,48.651 c -2.825,1.714 -5.03,3.271 -7.413,4.474 -8.975,4.528 -18.482,5.992 -28.486,4.977 -22.587,-2.295 -42.31,-23.088 -43.273,-45.643 -0.121,-2.814 0.455,-3.971 3.553,-3.902 8.345,0.183 16.701,0.189 25.048,-0.031 3.365,-0.09 5.518,0.562 6.855,4.046 0.782,2.047 2.712,3.834 4.492,5.284 7.681,6.263 15.479,12.39 23.274,18.513 5.092,3.996 10.262,7.907 15.95,12.282 M -42.734,-94.91 c -16.2,0 -32.399,0.056 -48.596,-0.051 -3.135,-0.021 -5.399,1.023 -7.545,3.27 -7.176,7.529 -14.598,14.828 -21.726,22.402 -1.176,1.254 -1.882,3.445 -1.9,5.219 -0.509,43.412 30.761,78.754 73.835,83.597 43.996,4.94 85.427,-28.59 89.771,-72.654 1.411,-14.311 1.411,-14.307 -9.367,-23.518 -6.142,-5.25 -12.166,-10.644 -18.48,-15.679 -1.77,-1.408 -4.38,-2.463 -6.617,-2.49 -16.455,-0.207 -32.918,-0.114 -49.375,-0.114 z"
             style="fill:#e8501d;fill-opacity:1;fill-rule:evenodd;stroke:none"
             id="path8722" />
        </g>
        <g
           id="g8724"
           transform="translate(1266.0537,4662.2422)">
          <path
             d="M 0,0 V 7.123 H 97.976 C 98.062,5.947 98.199,4.816 98.209,3.684 98.221,2.537 98.102,1.391 98.027,0 Z"
             style="fill:#bfbfbf;fill-opacity:1;fill-rule:evenodd;stroke:none"
             id="path8726" />
        </g>
        <path
           d="m 1174.667,4662.305 h -7.248 v 7.064 h 7.248 z"
           style="fill:#bfbfbf;fill-opacity:1;fill-rule:evenodd;stroke:none"
           id="path8728" />
        <g
           id="g8730"
           transform="translate(1200.1484,4662.4941)">
          <path
             d="M 0,0 V 6.816 H 7.12 C 8.8,-0.34 7.763,-1.391 0,0"
             style="fill:#bfbfbf;fill-opacity:1;fill-rule:evenodd;stroke:none"
             id="path8732" />
        </g>
        <path
           d="m 1191.079,4662.232 h -7.301 v 7.111 h 7.301 z"
           style="fill:#bfbfbf;fill-opacity:1;fill-rule:evenodd;stroke:none"
           id="path8734" />
        <g
           id="g8736"
           transform="translate(1233.1152,4571.4512)">
          <path
             d="M 0,0 V 7.516 H 15.646 C 15.763,6.449 15.841,5.437 15.988,4.437 16.468,1.16 15.411,-0.369 11.772,-0.068 8.028,0.238 4.241,0 0,0"
             style="fill:#e8501d;fill-opacity:1;fill-rule:evenodd;stroke:none"
             id="path8738" />
        </g>
      </g>
    </g>
  </g>
</svg>
