<?xml version="1.0" encoding="UTF-8" standalone="no"?>
<!-- Created with Inkscape (http://www.inkscape.org/) -->

<svg
   version="1.1"
   id="svg2"
   width="371.41486"
   height="293.27673"
   viewBox="0 0 371.41486 293.27673"
   sodipodi:docname="Websites PUBLIX.ai"
   xmlns:inkscape="http://www.inkscape.org/namespaces/inkscape"
   xmlns:sodipodi="http://sodipodi.sourceforge.net/DTD/sodipodi-0.dtd"
   xmlns="http://www.w3.org/2000/svg"
   xmlns:svg="http://www.w3.org/2000/svg">
  <defs
     id="defs6">
    <clipPath
       clipPathUnits="userSpaceOnUse"
       id="clipPath8570">
      <path
         d="M 0,6824.825 H 1736.693 V 0 H 0 Z"
         id="path8568" />
    </clipPath>
  </defs>
  <sodipodi:namedview
     id="namedview4"
     pagecolor="#ffffff"
     bordercolor="#000000"
     borderopacity="0.25"
     inkscape:showpageshadow="2"
     inkscape:pageopacity="0.0"
     inkscape:pagecheckerboard="0"
     inkscape:deskcolor="#d1d1d1"
     showgrid="false" />
  <g
     id="g10"
     inkscape:groupmode="layer"
     inkscape:label="Page 1"
     transform="matrix(1.3333333,0,0,-1.3333333,-500.66668,7333.6172)">
    <g
       id="g8564">
      <g
         id="g8566"
         clip-path="url(#clipPath8570)">
        <g
           id="g8608"
           transform="translate(503.1309,5286.0879)">
          <path
             d="m 0,0 c 35.255,0 70.505,-0.027 105.757,0.035 4.761,0.01 10.967,-1.459 10.773,6.457 -0.171,6.865 -5.3,7.369 -10.682,7.354 C 85.563,13.777 65.276,13.713 44.987,13.871 36.636,13.932 28.274,14.857 22.722,6.434 20.864,3.613 17.474,4.02 14.468,4.021 7.82,4.035 1.163,4.162 -5.485,3.988 c -8.989,-0.234 -18.008,-1.144 -24.164,7.76 -1.894,2.734 -5.412,2.063 -8.386,2.065 -22.947,0.009 -45.892,-0.043 -68.841,0.041 -5.496,0.019 -9.977,-0.418 -9.824,-7.764 0.156,-7.676 5.627,-6.029 9.945,-6.039 C -71.17,-0.035 -35.585,0.002 0,0 m 101.388,111.793 c 7.189,0.371 5.69,-4.982 5.706,-9 0.087,-25.281 0.113,-50.564 -0.011,-75.846 -0.021,-5.033 0.033,-8.441 6.851,-9.23 7.897,-0.914 7.504,-8.069 7.196,-14.178 -0.307,-5.982 -3.732,-8.955 -9.577,-9.316 -1.327,-0.082 -2.658,-0.047 -3.99,-0.047 -71.855,-0.002 -143.709,-0.028 -215.562,0.023 -11.885,0.008 -17.644,8.002 -13.305,18.051 0.95,2.197 2.129,5.021 4.405,5.025 10.748,0.032 8.529,7.688 8.545,13.942 0.064,25.283 0.021,50.564 0.031,75.847 0.002,2.657 -0.091,5.338 0.207,7.971 0.22,1.912 0.811,4.197 3.463,3.803 2.12,-0.315 1.97,-2.399 2.007,-4.004 0.084,-3.656 0.041,-7.318 0.041,-10.977 0.004,-25.613 0.236,-51.23 -0.148,-76.839 -0.103,-7.047 2.081,-9.102 9.034,-8.946 19.282,0.426 38.584,0.168 57.876,0.121 2.943,-0.007 6.364,0.928 8.645,-1.375 13.172,-13.281 29.651,-4.66 44.468,-6.914 0.608,-0.091 1.532,0.061 1.889,0.467 11.394,13.01 26.594,6.682 40.225,7.69 10.587,0.787 21.303,0.599 31.913,0.011 7.676,-0.427 10.374,1.723 10.23,9.875 -0.494,27.934 -0.179,55.883 -0.172,83.819 -0.002,-0.004 0.033,0.027 0.033,0.027"
             style="fill:#bfbfbf;fill-opacity:1;fill-rule:evenodd;stroke:none"
             id="path8610" />
        </g>
        <g
           id="g8612"
           transform="translate(601.6533,5491.207)">
          <path
             d="m 0,0 c -18.233,-18.291 -35.84,-35.957 -54.331,-54.508 14.819,2.498 29.26,4.93 43.699,7.367 3.714,0.625 3.142,3.784 3.577,6.241 C -4.709,-27.533 -2.433,-14.15 0,0 m -58.821,-60.258 c 13.948,-14.055 26.401,-26.769 39.069,-39.262 3.667,-3.617 7.193,-1.75 10.353,1.418 17.575,17.629 35.133,35.272 52.824,52.784 4.666,4.621 3.952,8.341 -0.507,12.584 -7.21,6.861 -13.938,14.238 -21.229,21.005 C 16.574,-6.977 12.803,-0.5 5.324,2.502 2.904,-12.637 0.32,-26.951 -1.557,-41.355 c -0.965,-7.413 -4.316,-10.791 -11.77,-11.749 -14.404,-1.843 -28.708,-4.464 -45.494,-7.154 M 2.865,-93.326 c 0,0 -0.035,-0.031 -0.032,-0.028 -18.384,-17.744 -18.391,-17.751 -36.54,0.278 -7.766,7.715 -15.516,15.453 -23.227,23.226 -8.925,9.004 -8.955,11.661 -0.499,21.522 1.237,1.443 3.111,2.67 2.162,5.07 l 0.006,0.002 c 4.238,-0.902 5.627,2.897 7.8,5.031 13.733,13.485 27.274,27.168 40.93,40.733 8.545,8.49 12.477,8.666 20.832,0.496 10.915,-10.67 21.717,-21.465 32.386,-32.385 7.713,-7.892 7.647,-12.113 -0.287,-20.18 C 31.969,-64.232 17.385,-78.748 2.865,-93.326"
             style="fill:#e8501d;fill-opacity:1;fill-rule:evenodd;stroke:none"
             id="path8614" />
        </g>
        <g
           id="g8616"
           transform="translate(456.3242,5396.5078)">
          <path
             d="m 0,0 c 1.391,16.061 1.379,16.277 16.759,17.148 6.952,0.391 9.242,3.893 9.203,10.217 -0.082,13.295 -0.125,26.59 0.018,39.883 0.077,6.934 -2.617,10.459 -9.975,10.422 -27.255,-0.149 -54.512,-0.125 -81.762,-0.012 -6.582,0.028 -9.932,-2.65 -9.893,-9.414 0.072,-13.961 0.047,-27.92 0.005,-41.879 -0.021,-6.195 2.982,-9.179 9.156,-9.119 4.319,0.045 8.658,-0.267 12.959,0.037 C -33.806,18.676 -14.484,18.947 0,0 m -24.122,83.154 c 12.962,0 25.926,0.076 38.887,-0.021 C 26.298,83.045 30.78,78.949 30.975,67.822 31.214,54.201 31.225,40.568 30.967,26.945 30.762,16.072 26.437,11.25 15.74,11.941 6.358,12.547 5.46,8.205 5.92,0.822 6.125,-2.461 8.235,-7.387 3.958,-8.984 c -3.29,-1.231 -5.7,2.92 -7.724,5.304 -10.657,12.539 -23.696,17.877 -40.256,15.551 -7.495,-1.051 -15.262,-0.195 -22.905,-0.162 -8.442,0.037 -13.399,4.619 -13.635,12.709 -0.439,15.27 -0.284,30.57 0.15,45.842 0.249,8.851 5.661,12.941 14.415,12.908 13.961,-0.053 27.919,-0.014 41.875,-0.014"
             style="fill:#e8501d;fill-opacity:1;fill-rule:evenodd;stroke:none"
             id="path8618" />
        </g>
        <g
           id="g8620"
           transform="translate(502.6553,5314.377)">
          <path
             d="m 0,0 c -26.928,0 -53.859,0.324 -80.78,-0.184 -8.921,-0.166 -11.444,2.899 -11.259,11.502 0.488,22.928 0.166,45.875 0.168,68.811 0,1.662 -0.01,3.326 0.027,4.986 0.05,2.406 0.417,5.446 3.024,5.533 3.214,0.108 2.64,-3.189 2.65,-5.392 0.049,-12.965 0.024,-25.93 0.024,-38.897 0,-10.968 0.189,-21.945 -0.081,-32.91 -0.128,-5.269 1.113,-7.791 7.115,-7.771 52.524,0.181 105.05,0.168 157.575,0.013 5.68,-0.017 7.501,1.989 7.407,7.541 -0.265,15.623 -0.15,31.25 -0.03,46.873 0.019,2.721 -1.196,7.235 2.976,7.149 4.155,-0.086 2.705,-4.611 2.728,-7.297 C 91.68,43.338 91.256,26.707 91.77,10.098 92.01,2.377 89.92,-0.332 81.775,-0.187 54.526,0.305 27.259,0 0,0"
             style="fill:#bfbfbf;fill-opacity:1;fill-rule:evenodd;stroke:none"
             id="path8622" />
        </g>
        <g
           id="g8624"
           transform="translate(504.3174,5340.4746)">
          <path
             d="m 0,0 c -0.732,2.969 -2.343,5.629 -6.351,5.451 -3.387,-0.148 -5.374,-2.17 -5.479,-5.619 -0.11,-3.43 1.684,-5.668 5.085,-5.973 C -2.896,-6.488 -0.719,-4.363 0,0 m -40.145,12.512 c 2.691,0.504 5.218,2.052 5.68,5.31 0.545,3.854 -1.806,6.403 -5.426,6.78 -3.176,0.332 -5.61,-1.493 -6.061,-5.024 -0.513,-4.023 1.696,-6.025 5.807,-7.066 m 33.68,31.049 c -3.518,-0.461 -5.433,-2.393 -5.381,-5.854 0.069,-3.98 2.398,-6.066 6.255,-5.809 3.341,0.219 5.415,2.418 5.381,5.809 -0.044,3.959 -2.53,5.734 -6.255,5.854 M 4.911,38.004 C 5.127,30.736 -2.329,24.637 -9.436,27.75 c -8.019,3.512 -12.38,-2.369 -17.963,-4.928 -3.347,-1.533 -3.129,-5.898 -0.485,-7.506 5.483,-3.328 9.97,-9.5 18.466,-5.48 6.402,3.027 11.754,-0.891 13.727,-7.525 1.923,-6.491 -1.434,-11.18 -7.446,-13.213 -6.422,-2.176 -10.873,1.027 -13.392,6.984 -4.877,11.541 -9.559,14.24 -21.286,11.912 -5.214,-1.035 -9.155,0.867 -12.017,5.067 -2.49,3.648 -2.444,7.539 0.002,11.22 2.842,4.281 6.849,6.08 12,5.207 12.312,-2.086 16.519,0.225 21.26,11.742 2.317,5.637 6.509,8.649 12.462,7.416 5.344,-1.105 8.354,-5.103 9.019,-10.642"
             style="fill:#e8501d;fill-opacity:1;fill-rule:evenodd;stroke:none"
             id="path8626" />
        </g>
        <g
           id="g8628"
           transform="translate(546.3828,5447.9492)">
          <path
             d="m 0,0 c -16.23,0.01 -32.462,-0.02 -48.692,0.074 -2.465,0.014 -6.42,-0.959 -6.557,2.526 -0.176,4.502 4.202,3.136 6.832,3.166 13.25,0.146 26.503,-0.024 39.756,0.115 4.445,0.049 7.929,-0.74 8.667,-5.879 z"
             style="fill:#bfbfbf;fill-opacity:1;fill-rule:evenodd;stroke:none"
             id="path8630" />
        </g>
        <g
           id="g8632"
           transform="translate(511.3984,5432.2578)">
          <path
             d="m 0,0 c -5.3,0 -10.601,-0.02 -15.901,0.01 -2.04,0.011 -4.414,0.244 -4.577,2.695 -0.175,2.568 2.192,2.967 4.219,2.977 C -5.327,5.727 5.604,5.732 16.534,5.67 18.533,5.66 20.888,5.32 20.561,2.598 20.261,0.09 17.9,0.031 15.901,0.014 10.6,-0.025 5.302,0 0,0"
             style="fill:#bfbfbf;fill-opacity:1;fill-rule:evenodd;stroke:none"
             id="path8634" />
        </g>
        <g
           id="g8636"
           transform="translate(554.5361,5398.2598)">
          <path
             d="m 0,0 c -0.792,-1.117 -1.412,-2.299 -2.311,-3.205 -6.287,-6.358 -12.621,-12.676 -18.968,-18.975 -1.447,-1.431 -3.299,-2.894 -5.168,-1.285 -2.245,1.932 -0.09,3.578 1.191,4.881 6.502,6.615 13.086,13.148 19.664,19.686 1.165,1.16 2.481,2.459 4.246,1.58 C -0.687,2.352 -0.502,1.068 0,0"
             style="fill:#bfbfbf;fill-opacity:1;fill-rule:evenodd;stroke:none"
             id="path8638" />
        </g>
        <g
           id="g8640"
           transform="translate(546.6357,5372.8359)">
          <path
             d="m 0,0 c -0.457,0.291 -1.786,0.703 -1.85,1.26 -0.139,1.183 -0.031,2.83 0.702,3.607 4.277,4.539 8.699,8.957 13.243,13.229 0.785,0.738 2.426,0.857 3.617,0.732 0.531,-0.057 1.222,-1.396 1.31,-2.213 C 17.172,15.24 1.893,0.176 0,0"
             style="fill:#bfbfbf;fill-opacity:1;fill-rule:evenodd;stroke:none"
             id="path8642" />
        </g>
        <g
           id="g8644"
           transform="translate(527.5078,5391.1934)">
          <path
             d="M 0,0 C 3.89,7.936 9.783,13.922 17.533,18.113 14.539,9.426 7.231,4.717 0,0"
             style="fill:#bfbfbf;fill-opacity:1;fill-rule:evenodd;stroke:none"
             id="path8646" />
        </g>
        <g
           id="g8648"
           transform="translate(563.5322,5370.7891)">
          <path
             d="m 0,0 c -2.848,-0.02 -3.52,1.51 -3.129,2.594 1.626,4.517 5.192,7.568 9.18,9.804 C 7.679,13.313 9.195,11.26 8.443,9.48 6.605,5.105 2.592,2.699 0,0"
             style="fill:#bfbfbf;fill-opacity:1;fill-rule:evenodd;stroke:none"
             id="path8650" />
        </g>
        <g
           id="g8652"
           transform="translate(537.3779,5419.5645)">
          <path
             d="M 0,0 C -3.004,-7.928 -6.584,-11.15 -12.676,-13.936 -11.486,-6.691 -7.256,-3.961 0,0"
             style="fill:#bfbfbf;fill-opacity:1;fill-rule:evenodd;stroke:none"
             id="path8654" />
        </g>
        <g
           id="g8656"
           transform="translate(503.1309,5286.0898)">
          <path
             d="m 0,0 c -35.585,0 -71.17,-0.037 -106.755,0.049 -4.318,0.01 -9.789,-1.637 -9.945,6.039 -0.153,7.346 4.328,7.783 9.824,7.764 22.949,-0.084 45.894,-0.032 68.841,-0.041 2.974,-0.002 6.492,0.669 8.386,-2.065 6.156,-8.904 15.175,-7.994 24.164,-7.76 6.648,0.174 13.305,0.047 19.953,0.034 3.006,-0.002 6.396,-0.409 8.254,2.412 5.552,8.423 13.914,7.498 22.265,7.437 20.289,-0.158 40.576,-0.094 60.861,-0.025 5.382,0.015 10.511,-0.489 10.682,-7.354 0.194,-7.916 -6.012,-6.447 -10.773,-6.457 C 70.505,-0.029 35.255,-0.002 0,0"
             style="fill:#feffff;fill-opacity:1;fill-rule:evenodd;stroke:none"
             id="path8658" />
        </g>
        <g
           id="g8660"
           transform="translate(601.6533,5491.207)">
          <path
             d="m 0,0 c -2.433,-14.15 -4.709,-27.533 -7.055,-40.9 -0.435,-2.457 0.137,-5.616 -3.577,-6.241 -14.439,-2.437 -28.88,-4.869 -43.699,-7.367 C -35.84,-35.957 -18.233,-18.291 0,0"
             style="fill:#feffff;fill-opacity:1;fill-rule:evenodd;stroke:none"
             id="path8662" />
        </g>
        <g
           id="g8664"
           transform="translate(456.3242,5396.5078)">
          <path
             d="m 0,0 c -14.484,18.947 -33.806,18.676 -53.53,17.283 -4.301,-0.304 -8.64,0.008 -12.959,-0.037 -6.174,-0.06 -9.177,2.924 -9.156,9.119 0.042,13.959 0.067,27.918 -0.005,41.879 -0.039,6.764 3.311,9.442 9.893,9.414 27.25,-0.113 54.507,-0.137 81.762,0.012 7.358,0.037 10.052,-3.488 9.975,-10.422 C 25.837,53.955 25.88,40.66 25.962,27.365 26.001,21.041 23.711,17.539 16.759,17.148 1.379,16.277 1.391,16.061 0,0"
             style="fill:#feffff;fill-opacity:1;fill-rule:evenodd;stroke:none"
             id="path8666" />
        </g>
        <g
           id="g8668"
           transform="translate(497.8525,5384.0352)">
          <path
             d="m 0,0 c 3.725,-0.119 6.211,-1.895 6.255,-5.854 0.034,-3.39 -2.04,-5.589 -5.381,-5.808 -3.857,-0.258 -6.186,1.828 -6.255,5.808 C -5.434,-2.393 -3.519,-0.461 0,0"
             style="fill:#feffff;fill-opacity:1;fill-rule:evenodd;stroke:none"
             id="path8670" />
        </g>
        <g
           id="g8672"
           transform="translate(464.1729,5352.9863)">
          <path
             d="m 0,0 c -4.111,1.041 -6.32,3.043 -5.808,7.066 0.452,3.532 2.885,5.356 6.062,5.024 C 3.873,11.713 6.225,9.164 5.68,5.311 5.218,2.053 2.69,0.504 0,0"
             style="fill:#feffff;fill-opacity:1;fill-rule:evenodd;stroke:none"
             id="path8674" />
        </g>
        <g
           id="g8676"
           transform="translate(504.3174,5340.4746)">
          <path
             d="m 0,0 c -0.719,-4.363 -2.896,-6.488 -6.745,-6.141 -3.401,0.305 -5.195,2.543 -5.085,5.973 0.105,3.449 2.092,5.471 5.479,5.619 C -2.343,5.629 -0.732,2.969 0,0"
             style="fill:#feffff;fill-opacity:1;fill-rule:evenodd;stroke:none"
             id="path8678" />
        </g>
      </g>
    </g>
  </g>
</svg>
