<?xml version="1.0" encoding="UTF-8" standalone="no"?>
<!-- Created with Inkscape (http://www.inkscape.org/) -->

<svg
   version="1.1"
   id="svg2"
   width="299.83746"
   height="283.24902"
   viewBox="0 0 299.83747 283.24902"
   sodipodi:docname="Websites PUBLIX.ai"
   xmlns:inkscape="http://www.inkscape.org/namespaces/inkscape"
   xmlns:sodipodi="http://sodipodi.sourceforge.net/DTD/sodipodi-0.dtd"
   xmlns="http://www.w3.org/2000/svg"
   xmlns:svg="http://www.w3.org/2000/svg">
  <defs
     id="defs6">
    <clipPath
       clipPathUnits="userSpaceOnUse"
       id="clipPath8690">
      <path
         d="M 0,6824.825 H 1736.693 V 0 H 0 Z"
         id="path8688" />
    </clipPath>
  </defs>
  <sodipodi:namedview
     id="namedview4"
     pagecolor="#ffffff"
     bordercolor="#000000"
     borderopacity="0.25"
     inkscape:showpageshadow="2"
     inkscape:pageopacity="0.0"
     inkscape:pagecheckerboard="0"
     inkscape:deskcolor="#d1d1d1"
     showgrid="false" />
  <g
     id="g10"
     inkscape:groupmode="layer"
     inkscape:label="Page 1"
     transform="matrix(1.3333333,0,0,-1.3333333,-518.77331,4106.7723)">
    <g
       id="g8684">
      <g
         id="g8686"
         clip-path="url(#clipPath8690)">
        <path
           d="M 554.721,3020.713 H 403.073 v -100.871 h 151.648 z m -165.641,8.334 c 3.049,4.349 7.147,5.715 12.492,5.697 51.487,-0.168 102.972,-0.096 154.457,-0.099 9.66,0 12.45,-2.753 12.452,-12.282 0.007,-34.762 0.007,-69.526 0,-104.289 -0.002,-9.344 -2.696,-12.07 -11.988,-12.07 -51.673,-0.012 -103.348,0.057 -155.022,-0.104 -5.334,-0.014 -9.487,1.215 -12.391,5.78 z"
           style="fill:#bfbfbf;fill-opacity:1;fill-rule:evenodd;stroke:none"
           id="path8812" />
        <g
           id="g8814"
           transform="translate(389.0801,2886.8555)">
          <path
             d="m 0,0 c 4.242,4.73 9.896,3.44 15.177,3.408 3.473,-0.017 6.069,0.357 8.608,3.576 6.033,7.649 17.401,7.503 23.513,-0.125 2.181,-2.723 4.306,-3.462 7.547,-3.455 38.156,0.094 76.314,0.069 114.473,0.039 2.049,-0.003 4.752,0.444 5.994,-0.644 1.883,-1.641 3.938,-4.575 3.706,-6.726 -0.23,-2.143 -2.907,-4.411 -5.039,-5.823 -1.334,-0.884 -3.649,-0.342 -5.525,-0.342 -37.78,-0.014 -75.563,-0.039 -113.344,0.043 -3.389,0.007 -5.745,-0.707 -8.118,-3.549 -6.07,-7.263 -16.803,-7.584 -22.697,-0.355 -3.045,3.732 -6.258,3.9 -10.206,3.887 C 8.961,-10.088 3.355,-11.372 0,-5.646 Z"
             style="fill:#e8501d;fill-opacity:1;fill-rule:evenodd;stroke:none"
             id="path8816" />
        </g>
        <g
           id="g8818"
           transform="translate(613.8242,3039.1191)">
          <path
             d="m 0,0 c 0.043,-0.562 0.095,-1.123 0.119,-1.686 0.192,-4.536 -1.445,-7.988 -6.359,-8.244 -4.864,-0.25 -7.303,2.97 -7.256,7.477 0.164,15.426 -13.725,29.892 -29.934,29.814 -4.551,-0.021 -7.679,2.546 -7.347,7.364 0.336,4.888 3.828,6.311 8.371,6.232 C -20.201,40.568 -1.404,22.462 0,0"
             style="fill:#e8501d;fill-opacity:1;fill-rule:evenodd;stroke:none"
             id="path8820" />
        </g>
        <g
           id="g8822"
           transform="translate(569.2949,3058.2363)">
          <path
             d="m 0,0 c 12.023,0.113 22.762,-10.509 22.793,-21.328 0.01,-4.339 -1.94,-7.392 -6.436,-7.723 -4.187,-0.31 -6.655,2.069 -7.128,6.293 -0.639,5.724 -3.903,8.584 -9.533,9.261 -4.225,0.514 -6.415,3.267 -5.94,7.41 C -5.77,-1.915 -2.771,-0.146 0,0"
             style="fill:#e8501d;fill-opacity:1;fill-rule:evenodd;stroke:none"
             id="path8824" />
        </g>
        <g
           id="g8826"
           transform="translate(493.4385,2970.249)">
          <path
             d="M 0,0 C -11.571,6.672 -22.269,12.837 -33.352,19.228 V -19.255 C -22.173,-12.802 -11.659,-6.729 0,0 m -47.747,-0.043 c 0,9.774 -0.082,19.548 0.025,29.318 0.089,8.263 5.061,11.119 12.226,7.007 16.929,-9.699 33.823,-19.462 50.686,-29.275 7.256,-4.219 7.295,-9.746 0.088,-13.943 -16.859,-9.82 -33.757,-19.573 -50.681,-29.282 -7.469,-4.287 -12.269,-1.381 -12.329,7.424 -0.068,9.585 -0.019,19.17 -0.015,28.751"
             style="fill:#e8501d;fill-opacity:1;fill-rule:evenodd;stroke:none"
             id="path8828" />
        </g>
      </g>
    </g>
  </g>
</svg>
