<?xml version="1.0" encoding="UTF-8" standalone="no"?>
<!-- Created with Inkscape (http://www.inkscape.org/) -->

<svg
   version="1.1"
   id="svg2"
   width="262.22485"
   height="289.55737"
   viewBox="0 0 262.22486 289.55737"
   sodipodi:docname="Websites PUBLIX.ai"
   xmlns:inkscape="http://www.inkscape.org/namespaces/inkscape"
   xmlns:sodipodi="http://sodipodi.sourceforge.net/DTD/sodipodi-0.dtd"
   xmlns="http://www.w3.org/2000/svg"
   xmlns:svg="http://www.w3.org/2000/svg">
  <defs
     id="defs6">
    <clipPath
       clipPathUnits="userSpaceOnUse"
       id="clipPath8690">
      <path
         d="M 0,6824.825 H 1736.693 V 0 H 0 Z"
         id="path8688" />
    </clipPath>
  </defs>
  <sodipodi:namedview
     id="namedview4"
     pagecolor="#ffffff"
     bordercolor="#000000"
     borderopacity="0.25"
     inkscape:showpageshadow="2"
     inkscape:pageopacity="0.0"
     inkscape:pagecheckerboard="0"
     inkscape:deskcolor="#d1d1d1"
     showgrid="false" />
  <g
     id="g10"
     inkscape:groupmode="layer"
     inkscape:label="Page 1"
     transform="matrix(1.3333333,0,0,-1.3333333,-1547.0379,5206.3126)">
    <g
       id="g8684">
      <g
         id="g8686"
         clip-path="url(#clipPath8690)">
        <g
           id="g8800"
           transform="translate(1275.1826,3835.3086)"
           inkscape:export-filename="TEMP\serv7.svg"
           inkscape:export-xdpi="96"
           inkscape:export-ydpi="96">
          <path
             d="m 0,0 c 3.6,-2.668 7.144,-5.293 10.793,-7.994 3.103,3.783 6.08,7.412 9.158,11.162 C 15.955,6.135 12.076,9.014 8.041,12.006 5.303,7.91 2.687,4.01 0,0 m -27.296,-123.518 h 21.454 c -1.667,6.993 -3.293,13.811 -4.926,20.69 h -11.6 c -1.641,-6.885 -3.265,-13.703 -4.928,-20.69 m 45.405,-15.646 c 0.299,5.412 -1.021,6.805 -6.22,6.805 -19.214,0.005 -38.43,0.005 -57.643,0 -4.535,0 -6.307,-2.284 -5.277,-6.805 z m -45.295,101.639 c 3.045,0.777 5.793,1.837 8.618,2.111 4.052,0.389 8.16,0.242 12.244,0.256 3.461,0.01 6.957,-0.197 10.021,1.844 4.352,2.89 6.224,8.175 5.07,13.837 -0.39,1.881 -1.163,3.299 -2.835,4.434 -3.383,2.299 -6.75,4.658 -9.842,7.322 -2.533,2.184 -5.072,2.778 -8.319,2.145 -7.599,-1.481 -12.898,-5.416 -14.966,-13.094 -1.711,-6.35 -1.114,-12.701 0.009,-18.855 M 25.398,9.822 c 1.34,1.623 2.545,3.082 3.745,4.545 8.14,9.932 16.267,19.875 24.431,29.785 2.28,2.766 3.071,5.873 2.16,9.289 -1.132,4.243 -4.07,6.741 -8.363,7.34 -4.146,0.578 -7.435,-1.138 -9.762,-4.599 C 30.928,46.23 24.264,36.26 17.599,26.299 16.036,23.963 14.48,21.623 12.84,19.16 17.027,16.047 21.096,13.021 25.398,9.822 m 47.666,-66.857 v 2.488 77.195 c 0,0.635 -0.003,1.272 -0.038,1.905 -0.256,4.533 -3.721,7.926 -8.237,8.019 -2.474,0.051 -4.957,-0.082 -7.42,0.051 -1.58,0.086 -2.584,-0.449 -3.577,-1.664 C 42.227,16.773 30.645,2.604 18.961,-11.488 c -1.729,-2.084 -2.98,-3.957 -1.719,-6.725 0.362,-0.799 0.291,-1.805 0.362,-2.719 0.845,-10.951 -5.913,-20.115 -14.974,-21.974 -4.079,-0.842 -8.413,-0.789 -12.616,-0.641 -6.315,0.215 -12.21,-0.316 -17.168,-4.906 -2.42,-2.235 -5.948,-0.994 -6.828,2.26 -2.161,8.004 -3.49,16.091 -2.573,24.466 1.6,14.649 12.043,24.538 26.731,24.95 1.287,0.039 2.015,0.49 2.709,1.541 5.765,8.711 11.601,17.381 17.405,26.07 0.325,0.484 0.583,1.014 1.004,1.756 h -2.45 c -35.061,0 -70.122,-0.088 -105.184,0.084 -5.723,0.027 -9.982,-3.705 -9.941,-9.926 0.185,-25.799 0.078,-51.603 0.078,-77.404 v -2.379 h 2.418 c 2.896,0 5.796,0.021 8.695,-0.008 3.203,-0.031 5.145,-1.701 5.137,-4.361 -0.008,-2.659 -1.916,-4.266 -5.178,-4.313 -1.91,-0.027 -3.818,-0.006 -5.727,-0.006 h -5.249 c 0,-7.265 -0.127,-14.183 0.056,-21.099 0.092,-3.479 3.363,-6.606 6.846,-7.069 1.324,-0.177 2.678,-0.195 4.017,-0.195 47.928,-0.008 95.86,-0.008 143.784,-0.008 5.09,0 10.178,-0.058 15.269,0.024 5.895,0.097 9.156,3.425 9.192,9.275 0.035,5.727 0.011,11.453 0,17.178 0,0.603 -0.098,1.203 -0.162,1.894 h -3.178 c -42.625,0 -85.254,-0.002 -127.879,0.008 -0.983,0 -1.99,0.008 -2.948,0.205 -2.033,0.412 -3.195,1.719 -3.367,3.797 -0.171,2.049 0.955,3.768 2.954,4.334 0.996,0.283 2.085,0.33 3.132,0.33 42.84,0.018 85.678,0.014 128.513,0.014 z M 42.813,69.426 h 6.363 c 0.244,-0.129 0.469,-0.315 0.726,-0.375 10.057,-2.434 15.934,-10.895 14.491,-21.125 -0.307,-2.188 -1.219,-4.289 -1.877,-6.514 0.403,-0.039 0.877,-0.113 1.357,-0.131 11.033,-0.439 17.885,-7.541 17.885,-18.595 0.01,-35.608 0.013,-71.217 -0.024,-106.827 0,-1.884 -0.183,-3.826 -0.654,-5.646 -2.052,-7.912 -8.726,-12.92 -17.217,-12.934 -21.05,-0.037 -42.109,-0.013 -63.164,-0.013 h -2.65 c 1.716,-7.204 3.34,-14.018 4.985,-20.918 3.65,0 7.107,0.043 10.562,-0.012 6.525,-0.096 11.737,-4.365 12.92,-10.66 0.29,-1.563 0.199,-3.19 0.293,-4.94 4.502,0 8.87,0.049 13.236,-0.015 3.184,-0.047 5.258,-3.151 3.885,-5.905 -0.501,-1.002 -1.576,-1.712 -2.388,-2.558 h -116.22 c -0.212,0.17 -0.414,0.347 -0.629,0.506 -1.693,1.224 -2.588,2.773 -1.955,4.916 0.598,2.025 2.082,3.029 4.5,3.056 1.061,0.012 2.121,0.002 3.182,0.002 h 9.662 c 0.045,0.582 0.077,0.862 0.084,1.137 0.195,9.615 5.161,14.473 14.801,14.473 h 8.877 c 1.665,7.037 3.283,13.857 4.955,20.918 h -2.64 c -20.917,0 -41.833,-0.016 -62.75,0.004 -10.833,0.011 -18.298,7.414 -18.302,18.187 -0.017,35.895 -0.017,71.795 0.018,107.691 0.004,1.745 0.217,3.541 0.654,5.227 2.112,8.092 8.811,12.895 17.887,12.896 37.101,0.01 74.199,0.012 111.298,-0.029 1.645,0 2.675,0.424 3.608,1.873 3.791,5.873 7.586,11.75 11.687,17.405 1.74,2.398 4.048,4.501 6.444,6.267 1.74,1.285 4.055,1.787 6.11,2.639"
             style="fill:#bfbfbf;fill-opacity:1;fill-rule:evenodd;stroke:none"
             id="path8802" />
        </g>
        <g
           id="g8804"
           transform="translate(1202.1943,3773.8555)">
          <path
             d="m 0,0 c -0.024,-2.383 -1.982,-4.285 -4.344,-4.217 -2.273,0.069 -4.104,1.953 -4.125,4.248 -0.023,2.346 1.944,4.358 4.254,4.352 C -1.918,4.379 0.027,2.357 0,0"
             style="fill:#bfbfbf;fill-opacity:1;fill-rule:evenodd;stroke:none"
             id="path8806" />
        </g>
        <g
           id="g8808"
           transform="translate(1280.5508,3820.2656)">
          <path
             d="m 0,0 c 1.669,-1.135 2.444,-2.553 2.829,-4.434 1.156,-5.662 -0.714,-10.947 -5.065,-13.837 -3.068,-2.041 -6.562,-1.834 -10.019,-1.844 -4.086,-0.014 -8.195,0.133 -12.247,-0.256 -2.824,-0.274 -5.573,-1.334 -8.62,-2.111 -1.12,6.154 -1.718,12.505 -0.007,18.855 2.067,7.678 7.367,11.613 14.968,13.094 3.248,0.633 5.785,0.039 8.316,-2.145 C -6.753,4.658 -3.382,2.299 0,0 M 2.108,27.049 C 6.144,24.057 10.02,21.178 14.017,18.211 10.938,14.461 7.962,10.832 4.856,7.049 1.21,9.75 -2.334,12.375 -5.935,15.043 c 2.688,4.01 5.303,7.91 8.043,12.006 m 9.555,14.293 c 6.667,9.961 13.327,19.931 20.012,29.883 2.324,3.461 5.615,5.177 9.763,4.599 4.289,-0.599 7.229,-3.097 8.363,-7.34 0.91,-3.416 0.114,-6.523 -2.158,-9.289 -8.165,-9.91 -16.294,-19.853 -24.435,-29.785 -1.201,-1.463 -2.406,-2.922 -3.742,-4.545 -4.303,3.199 -8.373,6.225 -12.559,9.338 1.64,2.463 3.196,4.803 4.756,7.139 M -15.758,18.266 c -14.688,-0.412 -25.13,-10.301 -26.73,-24.95 -0.913,-8.375 0.412,-16.462 2.572,-24.466 0.88,-3.254 4.407,-4.495 6.827,-2.26 4.961,4.59 10.853,5.121 17.168,4.906 4.203,-0.148 8.534,-0.201 12.617,0.641 9.063,1.859 15.819,11.023 14.974,21.974 -0.07,0.914 0,1.92 -0.364,2.719 -1.256,2.768 -0.007,4.641 1.722,6.725 11.679,14.091 23.264,28.261 34.834,42.447 0.28,0.344 0.562,0.629 0.859,0.865 2.393,3.252 4.266,6.832 7.678,9.219 0.202,0.139 0.395,0.244 0.592,0.326 -0.14,0.014 -0.281,0.031 -0.406,0.043 0.655,2.225 1.566,4.326 1.877,6.514 1.439,10.23 -4.439,18.691 -14.494,21.125 -0.26,0.06 -0.486,0.246 -0.727,0.375 H 36.88 C 34.825,83.617 32.509,83.115 30.771,81.83 28.37,80.064 26.064,77.961 24.325,75.563 20.226,69.908 16.429,64.031 12.643,58.158 12.25,57.553 11.84,57.133 11.378,56.846 10.386,55.041 8.772,53.711 7.791,51.914 6.644,49.811 6.269,47.633 4.54,45.846 4.389,45.688 4.229,45.559 4.069,45.445 -1.643,36.904 -7.374,28.375 -13.05,19.807 c -0.697,-1.051 -1.422,-1.502 -2.708,-1.541"
             style="fill:#e8501d;fill-opacity:1;fill-rule:evenodd;stroke:none"
             id="path8810" />
        </g>
      </g>
    </g>
  </g>
</svg>
