<?xml version="1.0" encoding="UTF-8" standalone="no"?>
<!-- Created with Inkscape (http://www.inkscape.org/) -->

<svg
   version="1.1"
   id="svg2"
   width="304.44238"
   height="289.47168"
   viewBox="0 0 304.44239 289.47168"
   sodipodi:docname="Websites PUBLIX.ai"
   xmlns:inkscape="http://www.inkscape.org/namespaces/inkscape"
   xmlns:sodipodi="http://sodipodi.sourceforge.net/DTD/sodipodi-0.dtd"
   xmlns="http://www.w3.org/2000/svg"
   xmlns:svg="http://www.w3.org/2000/svg">
  <defs
     id="defs6">
    <clipPath
       clipPathUnits="userSpaceOnUse"
       id="clipPath8690">
      <path
         d="M 0,6824.825 H 1736.693 V 0 H 0 Z"
         id="path8688" />
    </clipPath>
  </defs>
  <sodipodi:namedview
     id="namedview4"
     pagecolor="#ffffff"
     bordercolor="#000000"
     borderopacity="0.25"
     inkscape:showpageshadow="2"
     inkscape:pageopacity="0.0"
     inkscape:pagecheckerboard="0"
     inkscape:deskcolor="#d1d1d1"
     showgrid="false" />
  <g
     id="g10"
     inkscape:groupmode="layer"
     inkscape:label="Page 1"
     transform="matrix(1.3333333,0,0,-1.3333333,-535.15649,6254.1095)">
    <g
       id="g8684">
      <g
         id="g8686"
         clip-path="url(#clipPath8690)">
        <g
           id="g8692"
           transform="translate(474.332,4480.3828)">
          <path
             d="M 0,0 H 82.364 C 81.238,4.41 80.477,5.035 76.214,5.035 52.867,5.043 29.517,5.043 6.169,5.039 1.855,5.035 1.149,4.467 0,0 m 94.095,104.783 c -5.6,5.694 -11.013,11.192 -16.459,16.723 -5.598,-9.889 -13.397,-17.735 -23.159,-23.137 5.497,-5.707 10.842,-11.26 16.284,-16.91 7.964,7.963 15.759,15.75 23.334,23.324 M 19.511,11.766 h 43.375 c -5.507,6.988 -7.233,14.601 -5.885,23.005 H 25.336 C 26.737,26.354 24.939,18.836 19.511,11.766 m -46.555,168.015 c -11.142,0 -22.174,0.018 -33.207,-0.006 -4.522,-0.011 -6.133,-1.695 -6.133,-6.318 -0.01,-30.887 -0.01,-61.775 0,-92.666 0,-0.963 0.076,-1.928 0.118,-2.9 h 5.814 v 3.386 c 0.004,29.168 0.004,58.336 0.014,87.502 0,4.215 0.921,5.145 5.035,5.147 6.793,0 13.61,0.342 20.373,-0.121 4.461,-0.305 6.942,1.17 8.049,5.332 0.019,0.082 -0.017,0.179 -0.063,0.644 M 148.572,77.846 c 0.058,0.914 0.15,1.709 0.15,2.496 0.004,31.146 0.007,62.299 0,93.445 0,4.33 -1.692,5.994 -6.167,5.998 -20.735,0.014 -41.471,0.004 -62.206,-0.01 -0.832,-0.004 -1.668,-0.115 -2.736,-0.193 0.46,-0.906 0.852,-1.436 1.008,-2.027 0.834,-3.217 2.949,-3.737 6.049,-3.707 17.655,0.164 35.312,0.08 52.966,0.082 4.233,0 5.138,-0.883 5.138,-5.035 0,-29.155 0,-58.313 0.004,-87.467 V 77.846 Z M 99.527,99.881 c -7.95,-7.799 -15.903,-15.604 -23.441,-23 2.527,-2.774 5.064,-5.557 7.82,-8.574 1.892,1.996 3.615,3.845 5.375,5.662 1.573,1.623 3.334,2.263 5.222,0.551 1.516,-1.374 1.321,-3.374 -0.565,-5.196 -1.871,-1.81 -3.886,-3.469 -5.932,-5.275 3.699,-3.688 6.696,-6.957 9.99,-9.893 4.661,-4.17 11.498,-4.045 16.067,0.162 2.662,2.446 5.23,5.008 7.669,7.676 3.724,4.08 4.284,10.473 0.862,14.766 -3.077,3.855 -6.771,7.219 -10.311,10.924 -2.911,-2.938 -5.56,-5.635 -8.244,-8.301 -2.244,-2.233 -4.027,-2.473 -5.603,-0.82 -1.386,1.449 -1.12,3.486 0.904,5.429 2.769,2.662 5.635,5.225 8.614,7.975 -3.281,3.082 -5.973,5.609 -8.427,7.914 m -16.466,67.248 c -0.029,-0.555 -0.086,-0.744 -0.044,-0.906 3.237,-12.258 2.713,-24.34 -1.482,-36.309 -0.286,-0.814 0.13,-2.307 0.764,-2.947 10.604,-10.756 21.368,-21.362 31.95,-32.147 5.168,-5.267 10.03,-10.849 15.062,-16.257 0.379,-0.409 1.001,-0.788 1.538,-0.821 1.685,-0.103 3.383,-0.039 5.233,-0.039 v 89.426 z M -32.217,167.125 H -53.722 V 77.891 H 64.779 c -5.487,5.482 -10.614,10.537 -15.641,15.693 -1.119,1.145 -2.012,1.332 -3.532,0.787 -9.714,-3.48 -19.714,-4.385 -29.891,-2.746 -30.645,4.92 -52.503,33.063 -49.634,63.898 0.349,3.764 1.09,7.495 1.702,11.602 m 4.573,-16.533 c -0.474,-28.959 23.218,-52.977 53.182,-53.139 28.527,-0.156 52.358,22.485 53.005,52.244 0.63,28.762 -23.01,53.387 -51.432,53.828 -30.501,0.465 -54.258,-22.5 -54.755,-52.933 M 148.61,70.947 H 131.375 C 131.849,60.252 124.26,54.479 117.389,48.58 110.204,42.414 99.55,43.314 92.645,50.061 86.166,56.389 79.871,62.91 73.362,69.205 c -1.03,0.998 -2.767,1.797 -4.179,1.797 -44.205,0.096 -88.418,0.074 -132.627,0.074 h -2.95 v -9.959 c 0,-4.711 -0.044,-9.424 0.021,-14.133 0.05,-3.675 1.875,-5.476 5.559,-5.515 4.619,-0.051 9.24,0.01 13.861,-0.012 2.811,-0.016 4.458,-1.252 4.28,-3.346 -0.208,-2.498 -1.894,-3.224 -4.178,-3.203 -4.893,0.045 -9.786,-0.033 -14.677,0.028 -6.467,0.078 -11.271,4.857 -11.391,11.378 -0.09,4.983 -0.019,9.965 -0.019,14.948 0,37.324 -0.004,74.648 0,111.968 0,8.741 4.431,13.172 13.211,13.186 11.685,0.016 23.374,0.037 35.057,-0.029 1.693,-0.012 2.764,0.5 3.873,1.82 22.885,27.277 62.432,29.475 87.964,4.945 0.652,-0.629 1.45,-1.191 1.878,-1.955 2.455,-4.388 6.287,-4.924 10.942,-4.873 20.742,0.221 41.493,-0.051 62.238,0.166 7.779,0.082 13.177,-5.191 13.142,-13.115 -0.202,-41.945 -0.095,-83.889 -0.098,-125.834 0,-8.068 -4.547,-12.623 -12.602,-12.623 -25.187,-0.004 -50.37,-0.047 -75.554,0.078 -2.855,0.012 -3.672,-0.891 -3.865,-3.598 -0.548,-7.791 2.449,-13.933 8.265,-18.851 0.677,-0.576 1.761,-0.82 2.691,-0.916 1.524,-0.164 3.091,0.037 4.613,-0.123 4.318,-0.459 7.475,-2.561 9.038,-6.742 0.632,-1.694 1.281,-3.385 1.827,-5.112 1.013,-3.226 -0.867,-6.072 -4.23,-6.427 -0.898,-0.094 -1.813,-0.038 -2.718,-0.038 -27.813,0 -55.627,0.112 -83.438,-0.093 -5.365,-0.039 -8.652,3.277 -5.989,8.42 0.41,0.795 0.635,1.691 0.948,2.539 1.897,5.111 5.203,7.783 10.69,7.398 4.427,-0.312 7.137,1.658 9.588,4.789 3.642,4.654 5.075,9.858 4.516,15.752 -0.218,2.311 -0.985,3.008 -3.312,2.992 -15.759,-0.103 -31.525,-0.06 -47.292,-0.062 -0.72,0 -1.466,-0.082 -2.168,0.043 -1.832,0.324 -3.229,1.484 -2.759,3.318 0.312,1.194 1.649,2.281 2.777,3.057 0.624,0.426 1.762,0.117 2.666,0.117 57.707,-0.002 115.415,-0.006 173.124,-0.01 5.089,0 6.637,1.535 6.641,6.635 0.007,6.795 0.01,13.588 0.007,20.383 -0.004,0.793 -0.077,1.586 -0.123,2.48"
             style="fill:#bfbfbf;fill-opacity:1;fill-rule:evenodd;stroke:none"
             id="path8694" />
        </g>
        <g
           id="g8696"
           transform="translate(515.2617,4533.377)">
          <path
             d="m 0,0 c -1.356,0 -2.729,-0.113 -4.069,0.027 -1.996,0.207 -3.199,1.452 -3.107,3.442 0.087,1.849 1.298,2.992 3.202,3.043 2.806,0.076 5.616,0.095 8.421,0.004 C 6.459,6.449 7.719,5.26 7.674,3.244 7.632,1.246 6.334,0.121 4.345,-0.01 2.903,-0.1 1.447,-0.021 0,-0.021 Z"
             style="fill:#bfbfbf;fill-opacity:1;fill-rule:evenodd;stroke:none"
             id="path8698" />
        </g>
        <g
           id="g8700"
           transform="translate(543.9307,4630.6699)">
          <path
             d="m 0,0 c 0.016,-24.285 -19.735,-44.018 -44.101,-44.063 -24.218,-0.041 -44.053,19.51 -44.281,43.651 -0.192,20.59 13.412,38.453 33.117,43.414 1.108,0.279 2.555,0.619 3.4,0.141 0.987,-0.559 1.941,-1.922 2.097,-3.049 0.264,-1.914 -1.252,-2.821 -2.992,-3.227 -6.207,-1.449 -11.674,-4.338 -16.441,-8.556 -12.998,-11.512 -16.358,-30.313 -8.208,-45.844 7.952,-15.156 25.554,-22.94 42.411,-18.758 16.689,4.141 28.365,19.059 28.417,36.301 0.054,18.297 -12.752,33.847 -30.665,37.24 -3.6,0.68 -5.015,1.934 -4.596,4.064 0.462,2.36 2.311,3.084 5.98,2.348 C -14.609,39.385 -0.018,21.623 0,0"
             style="fill:#e8501d;fill-opacity:1;fill-rule:evenodd;stroke:none"
             id="path8702" />
        </g>
        <g
           id="g8704"
           transform="translate(513.6455,4630.7812)">
          <path
             d="m 0,0 c 0.04,-3.162 2.624,-5.709 5.737,-5.658 3.03,0.045 5.649,2.75 5.649,5.838 C 11.39,3.213 8.69,5.811 5.563,5.781 2.392,5.754 -0.04,3.223 0,0 M 5.555,-12.201 C -1.17,-12.168 -6.721,-6.58 -6.675,0.113 -6.631,6.916 -1.196,12.32 5.625,12.35 12.378,12.383 17.989,6.873 18.017,0.186 18.043,-6.652 12.428,-12.236 5.555,-12.201"
             style="fill:#e8501d;fill-opacity:1;fill-rule:evenodd;stroke:none"
             id="path8706" />
        </g>
        <g
           id="g8708"
           transform="translate(480.0088,4626.5918)">
          <path
             d="m 0,0 c -2.058,0.893 -3.726,1.65 -5.421,2.34 -4.359,1.769 -6.275,4.558 -5.531,8.131 0.824,3.965 4.153,6.414 8.734,5.949 C -0.226,16.221 1.773,15.375 3.6,14.479 5.585,13.498 6.257,11.676 5.02,9.697 3.852,7.828 2.136,7.91 0.26,8.807 -1.034,9.43 -2.464,9.762 -3.833,10.219 -3.967,9.926 -4.093,9.631 -4.221,9.338 -3.697,9.002 -3.207,8.604 -2.649,8.348 -1.01,7.594 0.746,7.051 2.296,6.15 5.003,4.566 6.517,2.17 6.089,-1.08 5.673,-4.254 3.775,-6.396 0.82,-7.404 c -4.336,-1.479 -8.222,-0.371 -11.562,2.638 -1.546,1.397 -1.924,3.174 -0.502,4.821 1.418,1.644 3.151,1.509 4.809,0.179 C -4.602,-1.229 -2.741,-2.391 0,0"
             style="fill:#e8501d;fill-opacity:1;fill-rule:evenodd;stroke:none"
             id="path8710" />
        </g>
        <g
           id="g8712"
           transform="translate(491.0947,4630.8457)">
          <path
             d="m 0,0 c 0,2.713 -0.027,5.428 0.007,8.143 0.035,2.898 1.18,4.023 4.127,4.072 2.079,0.035 4.163,0 6.241,0.004 2.249,0.004 3.741,-0.996 3.684,-3.346 C 14.002,6.719 12.624,5.672 10.465,5.684 9.563,5.689 8.631,5.795 7.765,5.611 7.319,5.512 6.989,4.873 6.611,4.48 7.003,4.105 7.345,3.516 7.803,3.402 8.573,3.215 9.417,3.369 10.23,3.305 12.221,3.152 13.475,2.117 13.51,0.07 13.546,-2.006 12.265,-2.914 10.303,-3.25 9.039,-3.461 6.729,-4.182 6.76,-4.359 c 0.386,-2.356 2.351,-1.157 3.665,-1.264 2.105,-0.172 3.552,-0.926 3.623,-3.16 0.072,-2.375 -1.424,-3.375 -3.633,-3.426 -2.082,-0.045 -4.162,-0.041 -6.243,-0.01 -2.958,0.049 -4.106,1.16 -4.153,4.08 C -0.02,-5.43 0.011,-2.715 0.011,0 Z"
             style="fill:#e8501d;fill-opacity:1;fill-rule:evenodd;stroke:none"
             id="path8714" />
        </g>
      </g>
    </g>
  </g>
</svg>
