<?xml version="1.0" encoding="UTF-8" standalone="no"?>
<!-- Created with Inkscape (http://www.inkscape.org/) -->

<svg
   version="1.1"
   id="svg2"
   width="294.53467"
   height="289.4679"
   viewBox="0 0 294.53467 289.46789"
   sodipodi:docname="Websites PUBLIX.ai"
   xmlns:inkscape="http://www.inkscape.org/namespaces/inkscape"
   xmlns:sodipodi="http://sodipodi.sourceforge.net/DTD/sodipodi-0.dtd"
   xmlns="http://www.w3.org/2000/svg"
   xmlns:svg="http://www.w3.org/2000/svg">
  <defs
     id="defs6">
    <clipPath
       clipPathUnits="userSpaceOnUse"
       id="clipPath8882">
      <path
         d="M 0,6824.825 H 1736.693 V 0 H 0 Z"
         id="path8880" />
    </clipPath>
  </defs>
  <sodipodi:namedview
     id="namedview4"
     pagecolor="#ffffff"
     bordercolor="#000000"
     borderopacity="0.25"
     inkscape:showpageshadow="2"
     inkscape:pageopacity="0.0"
     inkscape:pagecheckerboard="0"
     inkscape:deskcolor="#d1d1d1"
     showgrid="false" />
  <g
     id="g10"
     inkscape:groupmode="layer"
     inkscape:label="Page 1"
     transform="matrix(1.3333333,0,0,-1.3333333,-1658.5633,7358.6899)">
    <g
       id="g8876"
       transform="translate(86.485372,5.7656915)">
      <g
         id="g8878"
         clip-path="url(#clipPath8882)">
        <g
           id="g8884"
           transform="translate(1247.0791,5318.4004)">
          <path
             d="M 0,0 H 41.621 C 39.277,7.27 36.969,14.424 34.628,21.684 H 7.029 C 4.604,14.199 2.328,7.18 0,0 m 20.836,-15.139 c 15.199,0 30.397,0.004 45.598,-0.006 2.767,-0.003 5.673,0.237 5.757,3.733 0.082,3.502 -2.752,3.941 -5.569,3.904 -0.819,-0.01 -1.635,0.002 -2.449,0 -26.97,-0.025 -53.931,-0.054 -80.9,-0.08 -3.43,-0.002 -6.921,0.373 -10.263,-0.174 -1.395,-0.226 -3.149,-2.285 -3.435,-3.759 -0.174,-0.934 1.888,-2.639 3.274,-3.417 1.009,-0.564 2.555,-0.197 3.858,-0.197 14.714,-0.01 29.422,-0.004 44.129,-0.004 M 124.1,58.867 v 5.547 c 0,35.986 0.005,71.971 -0.006,107.957 0,9.367 -2.203,11.568 -11.539,11.568 H -70.981 c -9.304,0 -11.496,-2.203 -11.501,-11.607 -0.004,-35.986 0,-71.977 0,-107.963 v -5.486 h 7.571 v 5.601 c 0,34.842 -0.005,69.684 0.002,104.526 0.005,6.957 0.326,7.299 7.157,7.299 59.056,0.003 118.107,0.003 177.158,0 6.811,0 7.118,-0.334 7.118,-7.338 0.004,-34.842 0.004,-69.686 0.004,-104.532 v -5.572 z m -0.124,-7.812 H -82.482 c 0,-3.731 -0.004,-7.125 0,-10.52 0.019,-9.31 2.252,-11.539 11.601,-11.539 61.131,-0.004 122.263,0 183.394,0 1.145,0 2.291,-0.037 3.432,0.025 4.553,0.249 7.537,2.651 7.935,7.131 0.423,4.827 0.096,9.715 0.096,14.903 M 109.039,168.83 H -67.246 V 58.943 h 176.285 z m 22.22,10.315 V 33.838 c -2.927,-8.875 -9.11,-12.123 -18.336,-11.971 -21.417,0.362 -42.844,0.115 -64.272,0.115 h -5.256 c -0.557,-14.423 6.701,-22.294 20.15,-22.39 1.145,-0.014 2.291,0 3.436,-0.01 7.689,-0.062 12.388,-4.076 12.498,-10.68 0.116,-6.871 -4.58,-11.095 -12.556,-11.123 -14.716,-0.045 -29.436,-0.015 -44.152,-0.015 -16.519,0.006 -33.04,-0.061 -49.552,0.058 -6.756,0.053 -11.193,4.69 -11.081,11.082 0.102,6.151 4.542,10.457 11.031,10.666 1.634,0.053 3.267,0.008 4.903,0.022 13.445,0.096 20.707,7.961 20.153,22.39 h -5.266 c -21.421,0 -42.848,0.25 -64.265,-0.115 -9.223,-0.152 -15.409,3.096 -18.336,11.971 v 145.307 c 2.918,8.855 9.106,12.031 18.299,11.998 61.435,-0.207 122.868,-0.207 184.299,0 9.197,0.033 15.38,-3.143 18.303,-11.998"
             style="fill:#bfbfbf;fill-opacity:1;fill-rule:evenodd;stroke:none"
             id="path8886" />
        </g>
        <g
           id="g8888"
           transform="translate(1378.3379,5497.5449)">
          <path
             d="m 0,0 c -2.923,8.855 -9.105,12.031 -18.303,11.998 -61.43,-0.207 -122.864,-0.207 -184.299,0 C -211.795,12.031 -217.982,8.855 -220.9,0 V 15.707 H 0 Z"
             style="fill:#ffffff;fill-opacity:1;fill-rule:evenodd;stroke:none"
             id="path8890" />
        </g>
        <g
           id="g8892"
           transform="translate(1267.915,5303.2617)">
          <path
             d="m 0,0 c -14.707,0 -29.415,-0.006 -44.129,0.004 -1.303,0 -2.849,-0.367 -3.858,0.197 -1.386,0.778 -3.448,2.483 -3.274,3.416 0.286,1.475 2.04,3.533 3.435,3.76 3.342,0.547 6.833,0.172 10.263,0.174 26.969,0.025 53.93,0.054 80.9,0.08 0.814,0.002 1.63,-0.01 2.449,0 2.818,0.037 5.652,-0.402 5.569,-3.904 C 51.271,0.23 48.365,-0.01 45.598,-0.006 30.397,0.004 15.199,0 0,0"
             style="fill:#ffffff;fill-opacity:1;fill-rule:evenodd;stroke:none"
             id="path8894" />
        </g>
        <g
           id="g8896"
           transform="translate(1247.0791,5318.4004)">
          <path
             d="M 0,0 C 2.328,7.18 4.604,14.199 7.029,21.684 H 34.628 C 36.969,14.424 39.277,7.27 41.621,0 Z"
             style="fill:#ffffff;fill-opacity:1;fill-rule:evenodd;stroke:none"
             id="path8898" />
        </g>
        <g
           id="g8900"
           transform="translate(1295.5322,5423.0234)">
          <path
             d="m 0,0 c 2.577,-8.6 4.842,-16.146 7.216,-24.078 9.778,9.281 11.96,-3.379 17.753,-5.119 1.662,1.431 3.346,2.883 5.808,5.008 -2.307,1.896 -4.188,3.216 -5.81,4.804 -5.836,5.725 -5.807,5.76 -1.217,12.313 C 16.074,-4.785 8.497,-2.529 0,0 M -82.86,39.045 H 12.59 V 49.531 H -82.86 Z M 12.885,30.9 h -95.632 v -43.418 h 78.771 c -1.546,5.092 -3.139,9.709 -4.295,14.434 -0.462,1.875 -0.708,5.016 0.294,5.748 1.456,1.068 4.235,0.965 6.259,0.506 C 3.118,7.066 7.843,5.471 12.885,3.994 Z m 15.079,-43.806 c 3.592,-3.309 6.242,-5.744 8.885,-8.184 2.344,-2.172 2.566,-4.394 0.196,-6.732 -3.031,-2.987 -6.029,-6.004 -9.02,-9.026 -2.118,-2.138 -4.242,-2.273 -6.332,-0.019 -2.558,2.75 -5.08,5.545 -7.802,8.531 -2.192,-2.066 -3.713,-3.771 -5.5,-5.129 -2.781,-2.115 -5.139,-1.81 -6.496,1.754 -0.179,0.455 -0.336,0.916 -0.484,1.387 -3.337,10.32 -3.337,10.32 -14.333,10.322 -23.56,0 -47.123,-0.014 -70.682,0.008 -6.102,0.004 -6.447,0.351 -6.453,6.344 -0.023,21.269 -0.027,42.539 -0.027,63.81 0.004,6.481 0.31,6.826 6.543,6.826 32.395,0.018 64.791,0.018 97.191,0 6.059,0 6.392,-0.365 6.4,-6.433 0.011,-14.727 0.122,-29.453 -0.079,-44.178 -0.051,-3.51 0.791,-5.516 4.441,-6.09 2.076,-0.33 4.102,-1.07 6.11,-1.74 5.084,-1.699 5.682,-4.225 1.869,-8.117 -1.02,-1.039 -2.336,-1.782 -4.427,-3.334"
             style="fill:#e8501d;fill-opacity:1;fill-rule:evenodd;stroke:none"
             id="path8902" />
        </g>
        <g
           id="g8904"
           transform="translate(1267.7598,5355.1152)">
          <path
             d="m 0,0 c -3.424,-0.004 -6.89,-0.324 -10.255,0.145 -1.456,0.203 -2.689,2.029 -4.025,3.115 1.34,1.254 2.623,3.508 4.021,3.582 6.996,0.369 14.026,0.34 21.025,0.002 C 12.08,6.781 13.297,4.668 14.558,3.502 13.291,2.336 12.142,0.359 10.745,0.166 7.22,-0.314 3.592,0.01 0,0"
             style="fill:#bfbfbf;fill-opacity:1;fill-rule:evenodd;stroke:none"
             id="path8906" />
        </g>
        <path
           d="m 1227.466,5425.242 h 21.896 v 6.725 h -21.896 z m 10.746,-7.533 c -4.411,0 -8.826,0.047 -13.242,-0.014 -3.197,-0.043 -4.885,1.227 -4.802,4.635 0.108,4.246 0.062,8.5 0.015,12.752 -0.028,3.078 1.532,4.518 4.496,4.522 9.151,0.023 18.311,0.023 27.463,10e-4 2.945,0 4.567,-1.412 4.552,-4.486 -0.019,-4.252 -0.069,-8.504 0.03,-12.752 0.074,-3.361 -1.543,-4.719 -4.778,-4.672 -4.574,0.065 -9.155,0.016 -13.734,0.014"
           style="fill:#e8501d;fill-opacity:1;fill-rule:evenodd;stroke:none"
           id="path8908" />
      </g>
    </g>
  </g>
</svg>
