<?xml version="1.0" encoding="UTF-8" standalone="no"?>
<!-- Created with Inkscape (http://www.inkscape.org/) -->

<svg
   version="1.1"
   id="svg2"
   width="292.4502"
   height="292.81836"
   viewBox="0 0 292.4502 292.81836"
   sodipodi:docname="Websites PUBLIX.ai"
   xmlns:inkscape="http://www.inkscape.org/namespaces/inkscape"
   xmlns:sodipodi="http://sodipodi.sourceforge.net/DTD/sodipodi-0.dtd"
   xmlns="http://www.w3.org/2000/svg"
   xmlns:svg="http://www.w3.org/2000/svg">
  <defs
     id="defs6">
    <clipPath
       clipPathUnits="userSpaceOnUse"
       id="clipPath8690">
      <path
         d="M 0,6824.825 H 1736.693 V 0 H 0 Z"
         id="path8688" />
    </clipPath>
  </defs>
  <sodipodi:namedview
     id="namedview4"
     pagecolor="#ffffff"
     bordercolor="#000000"
     borderopacity="0.25"
     inkscape:showpageshadow="2"
     inkscape:pageopacity="0.0"
     inkscape:pagecheckerboard="0"
     inkscape:deskcolor="#d1d1d1"
     showgrid="false" />
  <g
     id="g10"
     inkscape:groupmode="layer"
     inkscape:label="Page 1"
     transform="matrix(1.3333333,0,0,-1.3333333,-525.15649,5190.5692)">
    <g
       id="g8684">
      <g
         id="g8686"
         clip-path="url(#clipPath8690)">
        <g
           id="g8740"
           transform="translate(457.2695,3850.0762)">
          <path
             d="m 0,0 h -24.542 -24.239 c 8.154,-6.574 14.607,-11.605 20.841,-16.893 2.369,-2.011 4.056,-2.617 6.713,-0.341 C -14.86,-11.773 -8.217,-6.631 0,0 m 46.528,35.359 c -11.48,0 -22.958,-0.06 -34.438,0.022 -6.685,0.055 -11.925,-2.438 -15.656,-8.049 -2.368,-3.557 -2.726,-5.828 2.792,-5.816 31.491,0.082 62.987,0.068 94.479,0.013 4.857,-0.006 4.76,2.116 2.693,5.383 -3.583,5.66 -8.714,8.469 -15.434,8.451 C 69.487,35.336 58.006,35.355 46.528,35.359 M 7.404,-3.982 c -8.317,-6.561 -15.758,-11.37 -21.842,-17.516 -7.002,-7.072 -12.417,-7.441 -19.609,-0.272 -6.314,6.295 -13.904,11.309 -22.174,17.875 0,-12.265 0.152,-23.005 -0.075,-33.732 -0.093,-4.416 2.321,-4.484 5.552,-4.471 17.612,0.073 35.228,0.166 52.84,-0.056 4.369,-0.059 5.484,1.466 5.387,5.578 -0.241,10.219 -0.079,20.449 -0.079,32.594 m 84.818,-48.155 c 0,-5.289 0.011,-10.58 -0.002,-15.873 -0.021,-8.224 4.105,-12.707 12.279,-12.867 10.872,-0.211 21.758,-0.258 32.63,0.045 7.247,0.201 11.462,4.322 11.593,11.697 0.196,10.875 0.237,21.76 -0.019,32.633 -0.178,7.666 -4.215,11.885 -12.21,11.793 -5.586,-0.066 -11.173,-0.072 -16.757,0 -26.892,0.342 -28.16,1.715 -27.514,-27.428 m -67.703,-60.636 c -8.64,2.46 -11.239,6.759 -10.099,13.486 0.988,5.816 -1.924,7.598 -7.601,7.514 -18.536,-0.27 -37.083,-0.291 -55.618,0.011 -5.939,0.092 -7.665,-2.16 -7.514,-7.771 0.302,-11.17 0.39,-22.371 -0.026,-33.535 -0.238,-6.405 2.424,-8.125 8.326,-8.041 16.771,0.24 33.549,0.08 50.321,0.084 12.161,0.002 12.324,0.007 12.104,11.953 -0.127,6.861 -1.024,13.781 10.107,16.299 m 22.013,-56.526 c 10.873,0 21.741,-0.041 32.614,0.016 7.127,0.035 13.411,2.113 17.279,8.578 4.525,7.566 2.624,16.01 2.751,24.133 0.054,3.293 -2.89,2.238 -4.681,2.242 -22.623,0.064 -45.246,-0.012 -67.869,0.105 -3.464,0.018 -5.028,-0.482 -5.302,-4.601 -0.447,-6.643 -5.108,-9.461 -11.484,-9.578 -3.817,-0.075 -7.671,-0.336 -11.451,0.052 -5.519,0.573 -5.632,-2.294 -4.711,-6.33 2.047,-9.017 8.745,-14.32 19.363,-14.558 11.159,-0.252 22.33,-0.059 33.491,-0.059 M 46.369,14.137 c -15.603,0 -31.211,0.088 -46.816,-0.092 -2.322,-0.027 -6.481,2.101 -6.257,-3.293 0.212,-5.041 4.096,-2.941 6.588,-3.244 2.319,-0.285 4.72,-0.25 7.054,-0.026 5.59,0.532 7.84,-1.455 7.671,-7.453 -0.397,-14.125 -0.308,-28.267 -0.035,-42.396 0.105,-5.362 -1.725,-7.147 -7.116,-7.235 -14.186,-0.234 -14.182,-0.474 -14.182,-14.877 v -6.183 c 0,-13.568 0,-13.568 13.809,-13.787 11.284,-0.18 14.016,-2.703 14.407,-13.821 0.11,-3.076 0.416,-5.164 3.66,-6.984 12.99,-7.287 12.877,-7.469 -0.006,-15.31 -1.649,-1.006 -4.078,-1.461 -3.487,-4.309 0.663,-3.178 3.252,-1.922 5.005,-1.93 22.375,-0.092 44.755,0.032 67.13,-0.142 4.151,-0.032 5.714,1.078 5.575,5.416 -0.285,9.119 -0.223,18.258 -0.021,27.379 0.085,3.871 -0.622,6.203 -4.718,8.105 -6.592,3.066 -9.682,8.91 -9.539,16.486 0.214,11.481 0.159,22.967 0.013,34.448 -0.071,5.394 1.374,11.054 5.899,12.98 9.637,4.106 8.495,11.66 8.295,19.36 -0.085,3.238 -0.332,6.517 0.054,9.708 0.679,5.586 -1.062,7.538 -7.053,7.358 C 77.002,13.83 61.682,14.137 46.369,14.137 m -0.746,-190.854 c -11.193,0.002 -22.384,-0.125 -33.572,0.035 -14.49,0.203 -24.473,9.022 -25.648,23.493 -0.4,4.896 -2.515,4.826 -6.003,4.787 -10.305,-0.116 -20.615,-0.147 -30.921,-0.008 -9.079,0.123 -12.693,3.812 -12.756,12.914 -0.089,12.959 0.075,25.918 -0.058,38.875 -0.081,8.058 3.876,12.014 11.724,12.107 10.6,0.129 21.207,0.256 31.803,-0.033 4.488,-0.119 6.319,0.975 6.088,5.815 -0.451,9.375 3.094,21.326 -1.445,27.431 -4.307,5.803 -16.998,1.631 -25.982,1.737 -22.152,0.257 -22.152,0.084 -22.152,22.105 0,9.424 0.236,18.857 -0.092,28.27 -0.179,5.084 1.793,6.759 6.646,6.693 12.367,-0.178 24.744,0.146 37.105,-0.162 4.702,-0.119 5.806,1.418 5.943,5.971 0.651,21.757 8.68,29.419 30.305,29.466 20.617,0.045 41.231,0.151 61.844,-0.031 18.749,-0.166 27.89,-9.625 27.923,-28.387 0.014,-7.656 0.41,-15.343 -0.121,-22.963 -0.463,-6.601 1.09,-9.515 8.456,-8.861 7.887,0.701 15.896,0.371 23.833,-0.021 10.886,-0.537 17.148,-7.217 17.279,-18.147 0.143,-11.482 0.16,-22.973 -0.004,-34.455 -0.154,-10.85 -7.304,-17.935 -18.369,-18.227 -7.948,-0.208 -15.924,-0.378 -23.848,0.069 -5.552,0.314 -7.529,-1.045 -7.382,-7.078 0.437,-18.248 0.208,-36.514 0.142,-54.774 -0.057,-16.113 -10.208,-26.406 -26.283,-26.595 -11.481,-0.133 -22.97,-0.026 -34.455,-0.026"
             style="fill:#bfbfbf;fill-opacity:1;fill-rule:evenodd;stroke:none"
             id="path8742" />
        </g>
        <g
           id="g8744"
           transform="translate(514.2393,3699.0371)">
          <path
             d="m 0,0 c -0.249,-6.982 -3.791,-10.723 -10.156,-11.412 -6.099,-0.668 -11.279,4.506 -11.09,10.808 0.198,6.637 3.854,10.284 10.439,10.393 C -4.14,9.9 -0.782,6.051 0,0"
             style="fill:#bfbfbf;fill-opacity:1;fill-rule:evenodd;stroke:none"
             id="path8746" />
        </g>
        <g
           id="g8748"
           transform="translate(437.1924,3744.0586)">
          <path
             d="m 0,0 c -8.21,0 -16.422,0.035 -24.634,-0.02 -2.539,-0.013 -4.49,0.051 -4.519,3.569 -0.026,3.295 1.433,3.877 4.24,3.863 C -8.784,7.338 7.348,7.316 23.477,7.426 26.503,7.443 27.562,6.469 27.543,3.387 27.519,-0.244 25.278,-0.012 22.88,-0.006 15.253,0.012 7.629,0 0,0"
             style="fill:#bfbfbf;fill-opacity:1;fill-rule:evenodd;stroke:none"
             id="path8750" />
        </g>
        <g
           id="g8752"
           transform="translate(437.1924,3723.1641)">
          <path
             d="m 0,0 c 7.629,0 15.253,-0.008 22.882,0.002 2.383,0.004 4.561,0.25 4.677,-3.395 0.127,-4.002 -2.073,-4.027 -4.966,-4.017 -15.546,0.06 -31.092,0.043 -46.638,0.015 -2.727,-0.005 -5.189,-0.349 -5.116,3.848 0.081,4.393 2.947,3.508 5.401,3.527 C -15.838,0.037 -7.917,0 0,0"
             style="fill:#bfbfbf;fill-opacity:1;fill-rule:evenodd;stroke:none"
             id="path8754" />
        </g>
        <g
           id="g8756"
           transform="translate(437.0713,3737.293)">
          <path
             d="m 0,0 c 5.565,0.002 11.129,-0.039 16.695,0.02 2.326,0.029 3.863,-0.366 3.884,-3.274 0.029,-2.891 -0.751,-4.205 -3.914,-4.168 -11.714,0.133 -23.433,0.102 -35.148,0.022 -2.759,-0.022 -3.439,1.216 -3.443,3.732 -0.008,2.545 0.777,3.738 3.472,3.695 C -12.308,-0.066 -6.154,-0.002 0,0"
             style="fill:#bfbfbf;fill-opacity:1;fill-rule:evenodd;stroke:none"
             id="path8758" />
        </g>
        <g
           id="g8760"
           transform="translate(588.3613,3793.752)">
          <path
             d="m 0,0 c -0.937,5.656 -3.706,9.93 -9.936,10.271 -6.696,0.368 -10.676,-3.709 -10.986,-9.957 -0.299,-6.011 3.724,-10.105 9.672,-10.459 C -4.773,-10.533 -1.171,-6.416 0,0 m 7.07,-0.187 c -0.1,-9.881 -8.11,-17.788 -17.884,-17.659 -9.777,0.127 -17.523,8.172 -17.438,18.104 0.085,10.07 7.702,17.472 17.879,17.379 C -0.238,17.545 7.174,9.969 7.07,-0.187"
             style="fill:#bfbfbf;fill-opacity:1;fill-rule:evenodd;stroke:none"
             id="path8762" />
        </g>
        <g
           id="g8764"
           transform="translate(595.3174,3818.5508)">
          <path
             d="M 0,0 C 2.491,0.332 3.842,-0.539 3.67,-3.297 3.539,-5.355 3.851,-7.35 0.689,-7.396 -2.175,-7.439 -3.585,-6.738 -3.464,-3.555 -3.371,-1.074 -2.745,0.348 0,0"
             style="fill:#bfbfbf;fill-opacity:1;fill-rule:evenodd;stroke:none"
             id="path8766" />
        </g>
        <g
           id="g8768"
           transform="translate(605.9912,3782.1191)">
          <path
             d="m 0,0 c -0.131,-7.373 -4.346,-11.498 -11.593,-11.697 -10.872,-0.303 -21.758,-0.256 -32.63,-0.043 -8.173,0.16 -12.299,4.64 -12.279,12.865 0.014,5.295 0.002,10.584 0.002,15.877 -0.646,29.139 0.622,27.766 27.515,27.422 5.584,-0.07 11.171,-0.063 16.756,0.002 7.996,0.092 12.033,-4.125 12.21,-11.795 C 0.237,21.76 0.196,10.875 0,0 m 7.101,33.508 c -0.131,10.924 -6.394,17.607 -17.28,18.144 -7.936,0.391 -15.946,0.723 -23.833,0.022 -2.904,-0.26 -4.9,0.039 -6.229,0.898 -3.789,-0.47 -7.582,-0.789 -11.383,-0.998 -1.268,-1.777 -3.19,-3.33 -6.095,-4.568 -4.525,-1.928 -5.969,-7.586 -5.898,-12.983 0.145,-11.478 0.2,-22.964 -0.014,-34.447 -0.142,-7.576 2.947,-13.422 9.539,-16.484 0.933,-0.432 1.678,-0.889 2.29,-1.377 4.082,-0.457 8.166,-0.897 12.256,-1.194 1.111,0.383 2.565,0.475 4.425,0.37 7.925,-0.448 15.9,-0.276 23.849,-0.067 11.064,0.291 18.214,7.375 18.369,18.223 0.164,11.488 0.146,22.974 0.004,34.461"
             style="fill:#e8501d;fill-opacity:1;fill-rule:evenodd;stroke:none"
             id="path8770" />
        </g>
        <g
           id="g8772"
           transform="translate(471.6816,3722.1836)">
          <path
             d="m 0,0 c 0.22,-11.945 0.057,-11.953 -12.104,-11.955 -16.772,-0.002 -33.55,0.154 -50.321,-0.084 -5.902,-0.086 -8.564,1.639 -8.326,8.039 0.416,11.168 0.328,22.367 0.025,33.543 -0.15,5.605 1.576,7.859 7.515,7.762 18.535,-0.299 37.082,-0.282 55.618,-0.006 5.677,0.084 8.589,-1.697 7.601,-7.514 C -1.132,23.059 1.467,18.758 10.106,16.299 -1.024,13.779 -0.127,6.865 0,0 M 10.74,23.816 C 7.496,25.637 7.189,27.727 7.08,30.803 6.688,41.922 3.957,44.441 -7.327,44.619 c -2.497,0.041 -4.531,0.074 -6.205,0.18 H -30.95 c -0.877,-0.235 -1.955,-0.311 -3.27,-0.272 -10.596,0.286 -21.203,0.159 -31.803,0.03 -7.848,-0.094 -11.805,-4.045 -11.724,-12.106 0.133,-12.959 -0.031,-25.918 0.058,-38.875 0.063,-9.103 3.677,-12.791 12.755,-12.916 9.836,-0.133 19.68,-0.107 29.518,-0.004 0.342,0.145 0.738,0.229 1.189,0.227 5.135,-0.018 10.314,-0.309 15.468,-0.225 0.683,0.143 1.534,0.174 2.59,0.076 2.866,0.125 5.721,0.395 8.553,0.926 1.232,0.235 2.228,-0.242 2.87,-1 0.061,0.002 0.117,0.002 0.174,0.002 6.376,0.123 11.037,2.94 11.484,9.582 0.02,0.346 0.054,0.658 0.101,0.955 V 2.682 c 0,0.506 0.105,0.943 0.289,1.316 -0.02,0.066 -0.037,0.129 -0.055,0.199 -0.591,2.846 1.838,3.303 3.487,4.307 12.883,7.844 12.995,8.023 0.006,15.312"
             style="fill:#e8501d;fill-opacity:1;fill-rule:evenodd;stroke:none"
             id="path8774" />
        </g>
        <g
           id="g8776"
           transform="translate(401.0488,3847.3594)">
          <path
             d="m 0,0 c 8.27,-6.564 15.859,-11.578 22.174,-17.875 7.191,-7.172 12.606,-6.799 19.608,0.271 6.085,6.149 13.526,10.956 21.843,17.518 0,-12.148 -0.162,-22.377 0.079,-32.594 0.097,-4.111 -1.018,-5.636 -5.388,-5.582 -17.611,0.225 -35.227,0.133 -52.839,0.061 -3.231,-0.016 -5.645,0.053 -5.552,4.467 C 0.151,-23.002 0,-12.264 0,0 M 56.221,3.898 C 48.004,-2.736 41.36,-7.881 34.994,-13.34 32.337,-15.617 30.649,-15.01 28.28,-12.998 22.047,-7.709 15.594,-2.68 7.439,3.898 Z M -7.078,-23.564 c 0,-22.022 0,-21.85 22.151,-22.108 7.529,-0.084 17.656,2.824 23.277,0.359 10.153,0.653 20.331,0.821 30.504,0.86 1.45,1.09 1.999,2.969 1.941,5.98 -0.274,14.129 -0.362,28.274 0.035,42.395 0.169,6 -2.081,7.99 -7.671,7.453 -2.335,-0.223 -4.735,-0.262 -7.055,0.023 -1.962,0.245 -4.789,-1.007 -6.005,0.916 -2.963,0.077 -5.932,0.092 -8.901,0.094 -0.885,-0.89 -2.321,-1.228 -4.617,-1.174 -12.361,0.311 -24.738,-0.013 -37.105,0.161 -4.853,0.07 -6.826,-1.606 -6.646,-6.688 0.327,-9.412 0.092,-18.844 0.092,-28.271"
             style="fill:#e8501d;fill-opacity:1;fill-rule:evenodd;stroke:none"
             id="path8778" />
        </g>
        <g
           id="g8780"
           transform="translate(437.1924,3745.2363)">
          <path
             d="m 0,0 c -8.21,0 -16.422,0.037 -24.634,-0.018 -2.539,-0.015 -4.49,0.049 -4.519,3.571 -0.026,3.289 1.433,3.873 4.24,3.857 C -8.784,7.34 7.348,7.322 23.477,7.426 26.503,7.443 27.562,6.469 27.543,3.393 27.519,-0.244 25.278,-0.012 22.88,-0.006 15.253,0.014 7.629,0 0,0"
             style="fill:#e8501d;fill-opacity:1;fill-rule:evenodd;stroke:none"
             id="path8782" />
        </g>
        <g
           id="g8784"
           transform="translate(437.1924,3724.3418)">
          <path
             d="m 0,0 c 7.629,-0.002 15.253,-0.006 22.882,0.002 2.383,0.004 4.561,0.252 4.677,-3.391 0.127,-4.006 -2.073,-4.033 -4.966,-4.021 -15.546,0.062 -31.092,0.043 -46.638,0.015 -2.727,-0.005 -5.189,-0.349 -5.116,3.85 0.081,4.391 2.947,3.506 5.401,3.525 C -15.838,0.035 -7.917,0.002 0,0"
             style="fill:#e8501d;fill-opacity:1;fill-rule:evenodd;stroke:none"
             id="path8786" />
        </g>
        <g
           id="g8788"
           transform="translate(437.0713,3738.4707)">
          <path
             d="m 0,0 c 5.565,0.002 11.129,-0.041 16.695,0.021 2.326,0.028 3.863,-0.367 3.884,-3.275 0.029,-2.891 -0.751,-4.201 -3.914,-4.168 -11.714,0.133 -23.433,0.104 -35.148,0.022 -2.759,-0.022 -3.439,1.218 -3.443,3.734 -0.008,2.545 0.777,3.738 3.472,3.695 C -12.308,-0.068 -6.154,0 0,0"
             style="fill:#e8501d;fill-opacity:1;fill-rule:evenodd;stroke:none"
             id="path8790" />
        </g>
        <g
           id="g8792"
           transform="translate(588.3613,3794.9277)">
          <path
             d="m 0,0 c -0.937,5.66 -3.706,9.934 -9.936,10.271 -6.696,0.372 -10.676,-3.707 -10.986,-9.955 -0.299,-6.011 3.724,-10.105 9.672,-10.459 C -4.773,-10.529 -1.171,-6.414 0,0 m 7.07,-0.184 c -0.1,-9.88 -8.11,-17.787 -17.884,-17.66 -9.777,0.127 -17.523,8.172 -17.438,18.108 0.085,10.068 7.702,17.468 17.879,17.373 C -0.238,17.545 7.174,9.969 7.07,-0.184"
             style="fill:#e8501d;fill-opacity:1;fill-rule:evenodd;stroke:none"
             id="path8794" />
        </g>
        <g
           id="g8796"
           transform="translate(595.3174,3819.7344)">
          <path
             d="M 0,0 C 2.491,0.328 3.842,-0.547 3.67,-3.305 3.539,-5.357 3.851,-7.355 0.689,-7.4 -2.175,-7.443 -3.585,-6.742 -3.464,-3.561 -3.371,-1.078 -2.745,0.342 0,0"
             style="fill:#e8501d;fill-opacity:1;fill-rule:evenodd;stroke:none"
             id="path8798" />
        </g>
      </g>
    </g>
  </g>
</svg>
